<svg width="178" height="131" viewBox="0 0 178 131" fill="none" xmlns="http://www.w3.org/2000/svg">
<path d="M158.369 129.05C162.625 131.508 168.113 130.064 170.134 125.583C175.305 114.114 178 101.646 178 88.9977C178 73.3741 173.886 58.0259 166.074 44.496C158.261 30.966 147.025 19.731 133.494 11.9202C119.963 4.10953 104.614 -0.00163638 88.9907 4.88457e-07C73.3671 0.00163735 58.0193 4.11602 44.4899 11.9296C30.9605 19.7431 19.7264 30.9805 11.9167 44.5121C4.1071 58.0437 -0.00286319 73.3928 1.49608e-06 89.0163C0.00232064 101.665 2.70009 114.132 7.87379 125.6C9.89515 130.08 15.3835 131.523 19.6398 129.065V129.065C23.896 126.606 25.2961 121.178 23.3874 116.648C19.713 107.928 17.8017 98.5348 17.8 89.0131C17.7977 76.5142 21.0857 64.235 27.3334 53.4097C33.5811 42.5844 42.5684 33.5945 53.3919 27.3437C64.2154 21.0928 76.4937 17.8013 88.9925 17.8C101.491 17.7987 113.77 21.0876 124.595 27.3362C135.42 33.5848 144.409 42.5728 150.659 53.3968C156.909 64.2208 160.2 76.4993 160.2 88.9981C160.2 98.5199 158.291 107.914 154.618 116.635C152.711 121.165 154.112 126.592 158.369 129.05V129.05Z" fill="white"/>
</svg>
