<svg width="73" height="82" xmlns="http://www.w3.org/2000/svg">
    <g fill="none" fill-rule="evenodd">
        <g stroke="#DADADA" stroke-linecap="round" stroke-width="2">
            <path d="M25.524 41.99c.592-5.796 3.38-12.065 4.677-20.627l-8.223-4.08a2.5 2.5 0 0 1 .633-4.693l8.58-1.674 7.85-5.39a2.5 2.5 0 0 1 3.799 2.817l-2.848 8.974c.187-.144.36-.177.523-.054 10.232 7.71 20.027 8.501 23.715 17.189 4.402 10.371-.437 22.347-10.808 26.75a20.321 20.321 0 0 1-14.288.619" stroke-linejoin="round"/>
            <path d="M28.045 22.153c3.623-.533 6.226-1.135 7.808-1.807 1.581-.671 3.663-2.057 6.243-4.158"/>
        </g>
        <path d="m41.115 50.779-3.61 1.386c-.76.291-1.134.435-1.42.372a1.017 1.017 0 0 1-.7-.578c-.12-.272-.062-.683.052-1.504l2.71-19.587c.116-.832.176-1.248.37-1.468a.96.96 0 0 1 .831-.32c.291.034.615.304 1.258.845l3.096 2.587.016.013c.692.58 1.043.873 1.284 1.23.265.39.438.841.502 1.307.06.43-.001.885-.13 1.793L43.96 47.168l-.004.026c-.127.9-.192 1.357-.372 1.753a2.902 2.902 0 0 1-.856 1.089c-.338.254-.763.417-1.613.743zm9.117-3.5c-.763.293-1.147.44-1.428.376-.31-.07-.568-.29-.702-.583-.119-.27-.059-.678.062-1.494l.003-.02.831-5.551c.121-.818.185-1.226.374-1.444a.95.95 0 0 1 .827-.317c.284.033.59.282 1.198.776l.049.04 4.342 3.565.063.052c.604.5.912.755 1.002 1.029.101.306.053.643-.131.902-.17.243-.553.39-1.316.683l-5.174 1.986z" fill="#DADADA"/>
        <g transform="translate(6.7 41.5)" stroke="#DADADA" stroke-width="2">
            <circle cx="16.4" cy="16.6" r="15"/>
            <g stroke-linecap="round">
                <path d="M8.4 16.6h16M16.4 8.6v16"/>
            </g>
        </g>
    </g>
</svg>
