<svg width="19" height="22" viewBox="0 0 19 22" fill="none" xmlns="http://www.w3.org/2000/svg">
    <path d="m4.684 10.68 1.148.078c.002-.026.003-.052.003-.079h-1.15zM2 16.5l-.749-.873A1.15 1.15 0 0 0 2 17.65V16.5zm15.04 0v1.15a1.15 1.15 0 0 0 .639-2.106l-.64.956zm-2.534-5.71h1.15a1.15 1.15 0 0 0-1.05-1.145l-.1 1.145zm0 0h-1.15a1.15 1.15 0 0 0 1.05 1.146l.1-1.146zM5.835 8.91a3.76 3.76 0 0 1 3.76-3.76v-2.3a6.06 6.06 0 0 0-6.06 6.06h2.3zm0 1.77V8.91h-2.3v1.77h2.3zm-2.298-.08a7.916 7.916 0 0 1-2.003 4.74 4.987 4.987 0 0 1-.279.283l-.008.008.002-.002h.001v-.001L2 16.5a123.696 123.696 0 0 0 .75.872l.002-.002a.235.235 0 0 1 .004-.004 2.23 2.23 0 0 0 .145-.134c.084-.08.197-.193.331-.34a10.216 10.216 0 0 0 2.6-6.133L3.537 10.6zM2 17.65h15.04v-2.3H2v2.3zm15.04-1.15c.639-.956.64-.956.64-.955l.003.001.002.002a.08.08 0 0 1 .003.002l-.004-.003a3.24 3.24 0 0 1-.256-.216 5.004 5.004 0 0 1-.706-.83c-.519-.757-1.066-1.961-1.066-3.71h-2.3c0 2.266.72 3.916 1.468 5.01.371.542.746.942 1.036 1.213a5.507 5.507 0 0 0 .517.426l.014.01c.002 0 .004.002.005.003l.003.002c.001 0 .002.001.64-.955zm-2.434-6.855-.2 2.291.2-2.291zm-1.25-.734v1.88h2.3V8.91h-2.3zM9.596 5.15a3.76 3.76 0 0 1 3.76 3.76h2.3a6.06 6.06 0 0 0-6.06-6.06v2.3z" fill="#9A97FF"/>
    <path d="M7.168 17.3v.5a2.5 2.5 0 0 0 5 0v-.5" stroke="#9A97FF" stroke-width="2.1"/>
    <path d="M9.535 1.323v1.935" stroke="#9A97FF" stroke-width="2.1" stroke-linecap="round" stroke-linejoin="round"/>
</svg>
