<svg width="56" height="56" viewBox="0 0 56 56" fill="none" xmlns="http://www.w3.org/2000/svg">
    <g filter="url(#d02ed5erka)">
        <path fill-rule="evenodd" clip-rule="evenodd" d="M44.285 16.931c.71.674.925 1.242.925 1.68 0 .438-.215 1.006-.925 1.68-.714.676-1.826 1.355-3.325 1.956-2.99 1.2-7.223 1.975-11.975 1.975S20 23.446 17.01 22.247c-1.499-.601-2.611-1.28-3.325-1.956-.702-.667-.92-1.23-.925-1.666v-.016c0-.438.216-1.005.925-1.678.714-.676 1.826-1.355 3.325-1.956C20 13.775 24.233 13 28.985 13s8.985.775 11.975 1.975c1.499.601 2.611 1.28 3.325 1.956zM9.76 18.637v-.026c0-1.526.777-2.828 1.86-3.856 1.081-1.025 2.564-1.879 4.273-2.564C19.32 10.816 23.948 10 28.985 10c5.037 0 9.666.816 13.092 2.19 1.709.686 3.192 1.54 4.272 2.565 1.084 1.027 1.86 2.33 1.861 3.854v9.482c0 1.526-.778 2.827-1.863 3.853-.274.26-.574.507-.897.744v5.517c0 1.546-.796 2.813-1.911 3.779-1.099.951-2.596 1.697-4.298 2.275-3.415 1.16-8.023 1.767-13.016 1.767-5.037 0-9.666-.816-13.092-2.19-1.709-.686-3.192-1.54-4.272-2.565C7.777 40.243 7 38.941 7 37.415v-9.482c0-1.899 1.177-3.435 2.76-4.603v-4.693zm3 4.75V28.5c0 .427.205.96.898 1.585.703.635 1.808 1.263 3.31 1.814 2.995 1.1 7.24 1.771 12.017 1.771 4.754 0 8.988-.768 11.978-1.96 1.5-.598 2.611-1.273 3.324-1.946.709-.67.923-1.236.923-1.673v-4.703c-.901.627-1.964 1.174-3.133 1.643-3.425 1.375-8.055 2.191-13.092 2.191-5.037 0-9.666-.816-13.092-2.19-1.169-.47-2.232-1.017-3.133-1.644zm13.465 13.21v.003c-5.04 0-9.671-.831-13.097-2.22-1.167-.474-2.229-1.026-3.128-1.656v4.691c0 .438.215 1.006.925 1.68.714.676 1.826 1.355 3.325 1.956 2.99 1.2 7.223 1.975 11.975 1.975 4.796 0 9.05-.59 12.051-1.608 1.506-.511 2.604-1.1 3.3-1.702.678-.589.874-1.093.874-1.51v-3.864c-.124.053-.25.104-.376.154-3.425 1.366-8.054 2.174-13.089 2.174a52.25 52.25 0 0 1-2.76-.072z" fill="url(#agvzu1siyb)"/>
    </g>
    <defs>
        <linearGradient id="agvzu1siyb" x1="10.605" y1="36.514" x2="38.605" y2="42.014" gradientUnits="userSpaceOnUse">
            <stop stop-color="#A5A9FF"/>
            <stop offset="1" stop-color="#C0A6FF"/>
        </linearGradient>
        <filter id="d02ed5erka" x="5" y="8" width="49.21" height="44.026" filterUnits="userSpaceOnUse" color-interpolation-filters="sRGB">
            <feFlood flood-opacity="0" result="BackgroundImageFix"/>
            <feColorMatrix in="SourceAlpha" values="0 0 0 0 0 0 0 0 0 0 0 0 0 0 0 0 0 0 127 0" result="hardAlpha"/>
            <feOffset dx="2" dy="2"/>
            <feGaussianBlur stdDeviation="2"/>
            <feColorMatrix values="0 0 0 0 0.749904 0 0 0 0 0.738025 0 0 0 0 1 0 0 0 0.25 0"/>
            <feBlend in2="BackgroundImageFix" result="effect1_dropShadow_646_20296"/>
            <feBlend in="SourceGraphic" in2="effect1_dropShadow_646_20296" result="shape"/>
        </filter>
    </defs>
</svg>
