<svg width="35" height="35" xmlns="http://www.w3.org/2000/svg">
    <g fill="none" fill-rule="evenodd">
        <path d="M33.977 17.5c0 9.525-7.606 17.246-16.988 17.246C7.606 34.746 0 27.025 0 17.5 0 7.975 7.606.254 16.989.254c9.382 0 16.988 7.721 16.988 17.246zM11.44 25.07H7.804c-.764 0-1.142 0-1.372-.15a.941.941 0 0 1-.419-.734c-.014-.275.175-.612.553-1.285l8.978-16.066c.383-.682.576-1.023.82-1.15a.914.914 0 0 1 .838 0c.244.127.437.468.819 1.15l1.846 3.271.01.017c.412.732.621 1.103.712 1.492.102.426.102.874 0 1.3-.092.392-.299.766-.718 1.509l-4.716 8.463-.012.022c-.416.738-.626 1.112-.918 1.394-.317.309-.7.533-1.118.66-.382.107-.81.107-1.667.107zm9.184 0h5.21c.769 0 1.156 0 1.386-.154a.938.938 0 0 0 .419-.739c.013-.266-.172-.59-.533-1.224l-.038-.065-2.61-4.533-.03-.051c-.367-.63-.552-.948-.79-1.07a.904.904 0 0 0-.833 0c-.239.126-.432.457-.814 1.125l-2.601 4.533-.009.016c-.38.667-.571 1-.557 1.274.018.3.17.575.419.738.225.15.612.15 1.38.15z" fill="#E84142"/>
    </g>
</svg>
