<svg width="93" height="35" xmlns="http://www.w3.org/2000/svg">
    <g fill="none" fill-rule="evenodd">
        <path d="M33.977 17.5c0 9.525-7.606 17.246-16.988 17.246C7.606 34.746 0 27.025 0 17.5 0 7.975 7.606.254 16.989.254c9.382 0 16.988 7.721 16.988 17.246zM11.44 25.07H7.804c-.764 0-1.142 0-1.372-.15a.941.941 0 0 1-.419-.734c-.014-.275.175-.612.553-1.285l8.978-16.066c.383-.682.576-1.023.82-1.15a.914.914 0 0 1 .838 0c.244.127.437.468.819 1.15l1.846 3.271.01.017c.412.732.621 1.103.712 1.492.102.426.102.874 0 1.3-.092.392-.299.766-.718 1.509l-4.716 8.463-.012.022c-.416.738-.626 1.112-.918 1.394-.317.309-.7.533-1.118.66-.382.107-.81.107-1.667.107zm9.184 0h5.21c.769 0 1.156 0 1.386-.154a.938.938 0 0 0 .419-.739c.013-.266-.172-.59-.533-1.224l-.038-.065-2.61-4.533-.03-.051c-.367-.63-.552-.948-.79-1.07a.904.904 0 0 0-.833 0c-.239.126-.432.457-.814 1.125l-2.601 4.533-.009.016c-.38.667-.571 1-.557 1.274.018.3.17.575.419.738.225.15.612.15 1.38.15z" fill="#E84142"/>
        <path d="m50.743 19.265-1.147-3.391a14.356 14.356 0 0 1-.272-.76 23.268 23.268 0 0 1-.289-.949 13.383 13.383 0 0 1-.544 1.726l-1.139 3.374h3.392zM55.308 24h-2.227c-.25 0-.45-.058-.604-.174a1.107 1.107 0 0 1-.348-.447l-.731-2.159h-4.709l-.731 2.16a1.033 1.033 0 0 1-.336.429.937.937 0 0 1-.599.191h-2.244l4.794-12.384h2.941L55.308 24zm12.087-12.384L62.431 24H59.83l-4.964-12.384h2.312c.25 0 .45.058.604.174.153.116.269.265.348.446l2.397 6.63c.113.289.224.605.331.948.108.343.21.701.306 1.075.08-.374.17-.732.268-1.075.1-.343.206-.659.319-.948l2.38-6.63c.062-.159.174-.302.336-.43a.937.937 0 0 1 .599-.19h2.329zm7.523 7.65-1.148-3.392a14.356 14.356 0 0 1-.272-.76 23.268 23.268 0 0 1-.289-.949 13.383 13.383 0 0 1-.544 1.726l-1.139 3.374h3.392zM79.482 24h-2.227c-.25 0-.45-.058-.603-.174a1.107 1.107 0 0 1-.349-.447l-.731-2.159h-4.709l-.731 2.16a1.033 1.033 0 0 1-.336.429.937.937 0 0 1-.599.191h-2.244l4.794-12.384h2.941L79.482 24zm12.603 0h-2.873a.718.718 0 0 1-.455-.136 1.037 1.037 0 0 1-.276-.323l-2.482-4.335a1.717 1.717 0 0 1-.153.323l-2.313 4.012a1.83 1.83 0 0 1-.28.314.601.601 0 0 1-.416.145H80.15l3.987-6.375-3.834-6.01h2.874c.187 0 .324.025.412.073a.642.642 0 0 1 .234.242l2.465 4.174a1.81 1.81 0 0 1 .097-.213c.037-.068.078-.139.123-.213l2.16-3.706a.875.875 0 0 1 .25-.271.592.592 0 0 1 .328-.085H92l-3.885 5.89L92.085 24z" fill="#000"/>
    </g>
</svg>
