<svg width="18" height="18" viewBox="0 0 18 18" fill="none" xmlns="http://www.w3.org/2000/svg">
    <path fill-rule="evenodd" clip-rule="evenodd" d="M18 9A9 9 0 1 1 0 9a9 9 0 0 1 18 0z" fill="#E84142"/>
    <path fill-rule="evenodd" clip-rule="evenodd" d="M6.057 13.007H4.132c-.405 0-.605 0-.726-.079a.498.498 0 0 1-.222-.388c-.008-.146.092-.324.292-.68L8.23 3.354c.202-.361.305-.542.434-.609a.484.484 0 0 1 .443 0c.13.067.232.248.434.609l.977 1.732.005.008c.219.388.33.584.378.79a1.49 1.49 0 0 1 0 .688c-.049.208-.158.406-.38.8l-2.497 4.48-.007.012c-.22.39-.331.588-.485.738-.169.163-.37.282-.593.349-.202.056-.429.056-.882.056zM10.92 13.007h2.758c.407 0 .612 0 .733-.081a.496.496 0 0 0 .222-.391c.007-.141-.09-.313-.282-.648l-.02-.035-1.382-2.4-.015-.027c-.195-.333-.293-.501-.419-.567a.479.479 0 0 0-.44 0c-.127.067-.23.243-.432.597l-1.377 2.4-.005.008c-.201.353-.302.53-.295.674.01.158.09.304.222.391.12.08.324.08.731.08z" fill="#fff"/>
</svg>
