<svg width="557" height="116" viewBox="0 0 557 116" fill="none" xmlns="http://www.w3.org/2000/svg">
    <mask id="bubble-body" fill="#fff">
        <path fill="white" fill-rule="evenodd" clip-rule="evenodd"
              d="M523.338 3c13.807 0 25 11.193 25 25v37.809c0 9.167-4.934 17.182-12.292 21.534 1.023 5.477 3.666 12.329 10.403 15.101 12 4.939-21.616 11.493-32.773-4.938-1.679-2.474-2.975-4.695-3.91-6.697H31c-13.807 0-25-11.193-25-25V28C6 14.193 17.193 3 31 3h492.338z"/>
    </mask>
    <path fill="white" mask="url(#bubble-body)"
          d="m536.046 87.343-2.949.55-.385-2.064 1.807-1.069 1.527 2.583zm10.403 15.101-1.142 2.775 1.142-2.775zm-32.773-4.938 2.482-1.686-2.482 1.686zm-3.91-6.697v-3h1.91l.808 1.73-2.718 1.27zM545.338 28c0-12.15-9.85-22-22-22V0c15.464 0 28 12.536 28 28h-6zm0 37.809V28h6v37.809h-6zM534.519 84.76c6.483-3.833 10.819-10.887 10.819-18.951h6c0 10.271-5.532 19.247-13.765 24.116l-3.054-5.165zm4.476 2.032c.974 5.218 3.33 10.711 8.595 12.878l-2.283 5.549c-8.208-3.378-11.139-11.589-12.21-17.326l5.898-1.1zm8.595 12.878c.896.369 1.727.803 2.419 1.334.671.516 1.416 1.282 1.779 2.367.406 1.211.199 2.406-.356 3.364-.498.859-1.223 1.453-1.851 1.856-1.259.809-2.929 1.359-4.662 1.728-1.788.38-3.869.615-6.1.669-8.646.21-21.178-2.302-27.625-11.797l4.964-3.37c4.71 6.936 14.565 9.362 22.515 9.169 1.919-.047 3.625-.248 4.997-.54 1.427-.304 2.289-.664 2.668-.907.191-.123.062-.091-.097.183-.216.373-.34.96-.142 1.55.156.466.403.601.254.486-.129-.099-.442-.295-1.046-.543l2.283-5.549zm-36.396-.48c-1.74-2.563-3.125-4.926-4.146-7.111l5.436-2.54c.849 1.818 2.056 3.898 3.674 6.281l-4.964 3.37zM31 87.81h478.766v6H31v-6zm-22-22c0 12.15 9.85 22 22 22v6c-15.464 0-28-12.536-28-28h6zM9 28v37.809H3V28h6zM31 6C18.85 6 9 15.85 9 28H3C3 12.536 15.536 0 31 0v6zm492.338 0H31V0h492.338v6z"/>
</svg>
