<?xml version="1.0"?>
<svg xmlns="http://www.w3.org/2000/svg" xmlns:xlink="http://www.w3.org/1999/xlink" xmlns:svgjs="http://svgjs.com/svgjs" version="1.1" width="512" height="512" x="0" y="0" viewBox="0 0 512.007 512.007" style="enable-background:new 0 0 512 512" xml:space="preserve" class=""><g>
<path xmlns="http://www.w3.org/2000/svg" style="" d="M501.333,448.004H64V10.67c0-5.891-4.776-10.667-10.667-10.667S42.667,4.779,42.667,10.67v437.333  h-32C4.776,448.004,0,452.779,0,458.67c0,5.891,4.776,10.667,10.667,10.667h32v32c0,5.891,4.776,10.667,10.667,10.667  S64,507.228,64,501.337v-32h437.333c5.891,0,10.667-4.776,10.667-10.667C512,452.779,507.224,448.004,501.333,448.004z" fill="#455a64" data-original="#455a64"/>
<path xmlns="http://www.w3.org/2000/svg" style="" d="M96,426.67c-5.891-0.008-10.66-4.791-10.651-10.682c0.003-2.414,0.825-4.755,2.331-6.641  l85.333-106.667c1.887-2.374,4.695-3.832,7.723-4.011c3.032-0.187,5.997,0.949,8.128,3.115l33.003,33.024l56.96-94.955  c1.815-3.027,5.01-4.959,8.533-5.163c3.472-0.151,6.816,1.323,9.045,3.989l28.544,35.691L362.901,93.87  c1.217-5.764,6.877-9.45,12.641-8.232c2.025,0.428,3.881,1.435,5.343,2.899l55.296,55.296L492.8,68.27  c3.53-4.716,10.215-5.678,14.931-2.149s5.678,10.215,2.149,14.931c-0.004,0.006-0.009,0.012-0.013,0.017l-64,85.333  c-3.535,4.712-10.221,5.666-14.934,2.131c-0.399-0.299-0.777-0.627-1.13-0.979l-50.069-50.091L341.12,300.932  c-1.213,5.765-6.87,9.454-12.635,8.241c-2.423-0.51-4.593-1.847-6.138-3.782l-33.088-41.344l-56.107,93.504  c-3.006,5.066-9.55,6.737-14.616,3.731c-0.752-0.446-1.446-0.983-2.066-1.598l-34.133-34.133l-77.995,97.131  C102.312,425.209,99.242,426.677,96,426.67z" fill="#b9b7ff" data-original="#2196f3" class=""/>
<g xmlns="http://www.w3.org/2000/svg">
</g>
<g xmlns="http://www.w3.org/2000/svg">
</g>
<g xmlns="http://www.w3.org/2000/svg">
</g>
<g xmlns="http://www.w3.org/2000/svg">
</g>
<g xmlns="http://www.w3.org/2000/svg">
</g>
<g xmlns="http://www.w3.org/2000/svg">
</g>
<g xmlns="http://www.w3.org/2000/svg">
</g>
<g xmlns="http://www.w3.org/2000/svg">
</g>
<g xmlns="http://www.w3.org/2000/svg">
</g>
<g xmlns="http://www.w3.org/2000/svg">
</g>
<g xmlns="http://www.w3.org/2000/svg">
</g>
<g xmlns="http://www.w3.org/2000/svg">
</g>
<g xmlns="http://www.w3.org/2000/svg">
</g>
<g xmlns="http://www.w3.org/2000/svg">
</g>
<g xmlns="http://www.w3.org/2000/svg">
</g>
</g></svg>
