<svg width="180" height="45" viewBox="0 0 180 45" fill="none" xmlns="http://www.w3.org/2000/svg">
    <path fill-rule="evenodd" clip-rule="evenodd" d="M132.397 17.227c.366 0 .669-.12.911-.362.241-.241.362-.538.362-.891 0-.34-.121-.623-.362-.852-.242-.229-.545-.343-.911-.343s-.669.121-.911.363a1.19 1.19 0 0 0-.362.871c0 .34.121.627.362.862.242.235.545.352.911.352zm-19.229 12.379v-4.152h3.388c1.776 0 3.173-.425 4.191-1.274 1.019-.848 1.528-2.017 1.528-3.505 0-1.489-.509-2.657-1.528-3.506-1.018-.849-2.415-1.273-4.191-1.273h-5.347v13.71h1.959zm3.329-5.857h-3.329V17.6h3.329c1.241 0 2.187.265 2.84.794s.979 1.289.979 2.281c0 .993-.326 1.753-.979 2.282-.653.529-1.599.793-2.84.793zm9.411.686v5.17h-1.88v-10.38h1.802v1.743c.326-.6.809-1.057 1.449-1.37.64-.314 1.417-.47 2.331-.47v1.82a3.667 3.667 0 0 0-.431-.019c-1.019 0-1.818.304-2.399.91-.581.608-.872 1.473-.872 2.596zm7.429-5.21v10.38h-1.88v-10.38h1.88zm3.942 10.38V24.26c0-1.11.281-1.962.842-2.556.561-.595 1.319-.892 2.272-.892.862 0 1.524.255 1.988.764.463.51.695 1.267.695 2.272v5.758h1.88V24.26c0-1.11.281-1.962.843-2.556.561-.595 1.318-.892 2.271-.892.862 0 1.525.255 1.988.764.464.51.696 1.267.696 2.272v5.758h1.88v-5.973c0-1.489-.382-2.612-1.146-3.369-.764-.757-1.799-1.136-3.104-1.136-.875 0-1.662.17-2.36.51-.699.339-1.244.809-1.636 1.41a3.398 3.398 0 0 0-1.449-1.43c-.627-.327-1.345-.49-2.154-.49-.784 0-1.482.14-2.096.421-.614.281-1.11.689-1.488 1.224v-1.547h-1.802v10.38h1.88zm24.585-.313c-.699.287-1.479.43-2.341.43-1.096 0-2.069-.224-2.918-.675a4.819 4.819 0 0 1-1.968-1.89c-.464-.81-.695-1.723-.695-2.742 0-1.005.225-1.913.675-2.722a4.844 4.844 0 0 1 1.861-1.89c.79-.45 1.681-.676 2.673-.676.993 0 1.877.225 2.654.676a4.75 4.75 0 0 1 1.822 1.89c.437.81.656 1.736.656 2.781 0 .144-.013.333-.04.568h-8.421c.117.914.519 1.648 1.204 2.203.686.555 1.538.833 2.556.833 1.241 0 2.239-.418 2.997-1.254l1.038 1.214a4.551 4.551 0 0 1-1.753 1.254zm.617-5.601h-6.659c.104-.888.46-1.606 1.067-2.155.607-.548 1.361-.822 2.262-.822s1.655.277 2.263.832c.607.555.962 1.27 1.067 2.145zm-55.401-3.723c-.796-.783-1.854-1.175-3.173-1.175-.678 0-1.305.118-1.88.353a4.112 4.112 0 0 0-1.488.979v-1.156h-3.544v10.614h3.72v-5.13c0-.836.19-1.463.568-1.88.392-.418.908-.627 1.547-.627 1.162 0 1.743.725 1.743 2.174v5.463h3.721v-6.07c0-1.58-.405-2.762-1.214-3.545zm-11.213 4.328c0 .026-.02.333-.06.92h-7.715c.157.549.457.973.9 1.273.458.288 1.026.431 1.705.431.509 0 .946-.072 1.312-.215A3.853 3.853 0 0 0 93.144 26l1.959 2.036c-1.032 1.15-2.54 1.724-4.524 1.724-1.24 0-2.33-.235-3.27-.705s-1.671-1.123-2.194-1.959c-.509-.835-.763-1.782-.763-2.84 0-1.044.248-1.977.744-2.8a5.316 5.316 0 0 1 2.095-1.958c.888-.47 1.887-.705 2.996-.705 1.058 0 2.017.222 2.88.666a4.843 4.843 0 0 1 2.036 1.9c.509.822.764 1.801.764 2.937zm-5.66-2.86c-.575 0-1.057.164-1.45.49-.378.327-.62.77-.724 1.332h4.348c-.105-.561-.353-1.005-.744-1.332-.379-.326-.856-.49-1.43-.49zm-6.993 6.209v-8.676H79.67v1.293c-.705-.98-1.815-1.469-3.33-1.469-.94 0-1.808.216-2.604.646a4.757 4.757 0 0 0-1.9 1.802c-.47.77-.705 1.658-.705 2.663 0 1.019.235 1.92.705 2.703a4.94 4.94 0 0 0 1.9 1.802 5.521 5.521 0 0 0 2.604.626c1.384 0 2.435-.418 3.153-1.253v.352c0 .849-.228 1.489-.685 1.92-.457.43-1.175.646-2.154.646a6.52 6.52 0 0 1-1.959-.314c-.652-.195-1.194-.47-1.625-.822l-1.351 2.605c.64.456 1.416.802 2.33 1.037.914.235 1.893.353 2.938.353 2.01 0 3.55-.496 4.621-1.488 1.07-.98 1.606-2.455 1.606-4.426zm-4.347-2.174c-.431.405-.98.607-1.645.607-.666 0-1.221-.202-1.665-.607-.444-.405-.666-.927-.666-1.567 0-.64.216-1.155.646-1.547.444-.404 1.006-.607 1.685-.607.678 0 1.233.203 1.664.607.431.392.647.908.647 1.547 0 .64-.222 1.162-.666 1.567zm-8.785-1.175c0 .026-.02.333-.06.92h-7.715c.157.549.457.973.9 1.273.458.288 1.026.431 1.705.431.509 0 .946-.072 1.312-.215A3.853 3.853 0 0 0 67.359 26l1.959 2.036c-1.031 1.15-2.54 1.724-4.524 1.724-1.24 0-2.33-.235-3.27-.705s-1.671-1.123-2.194-1.959c-.509-.835-.763-1.782-.763-2.84 0-1.044.248-1.977.744-2.8a5.316 5.316 0 0 1 2.095-1.958c.888-.47 1.887-.705 2.997-.705 1.057 0 2.016.222 2.878.666a4.843 4.843 0 0 1 2.037 1.9c.509.822.764 1.801.764 2.937zm-5.66-2.86c-.574 0-1.057.164-1.45.49-.378.327-.62.77-.724 1.332h4.348c-.105-.561-.353-1.005-.744-1.332-.379-.326-.856-.49-1.43-.49zm-14.319-5.56h-6.482v13.708h6.482c1.502 0 2.833-.281 3.995-.843 1.162-.561 2.063-1.357 2.703-2.389.64-1.031.96-2.239.96-3.623 0-1.384-.32-2.591-.96-3.623-.64-1.031-1.54-1.827-2.703-2.389-1.162-.561-2.493-.842-3.995-.842zm2.663 9.615c-.704.665-1.645.998-2.82.998H47.5v-7.52h2.447c1.175 0 2.116.333 2.82 1 .719.665 1.078 1.585 1.078 2.76 0 1.175-.36 2.096-1.078 2.762z" fill="#F64C7F"/>
    <path fill-rule="evenodd" clip-rule="evenodd" d="M22.918 37.872a6.957 6.957 0 0 1-4.597.281c-.674-.19-1.243-.425-2.114-1.151-.871-.726-1.326-1.778-1.007-1.714l.085.017c.462.092.872.173 1.471.23.636.059 1.513-.018 1.84-.052 1.537-.163 2.54-.792 3.316-1.28 1.33-.837 2.67-2.182 3.706-3.615.895-1.238 1.862-2.937 2.62-5 .4-1.086.684-2.318.684-3.178 0-.45-.034-1.139-.369-1.816-.619 1.192-1.67 3.191-2.452 4.546-1.275 2.208-3.035 5.034-5.212 6.405-2.386 1.503-5.402 1.517-8.093-.037-1.61-.93-2.4-1.85-3.87-3.79-.877-1.16-1.487-2.314-2.075-3.427-.121-.23-.241-.457-.363-.683-.25-.465-.774-1.61-1.339-3.574-.565-1.963-.648-4.167-.503-5.334a6.957 6.957 0 0 1 2.055-4.121c.501-.489.99-.864 2.054-1.255 1.064-.392 2.202-.26 1.988-.016l-.057.065c-.311.355-.587.669-.935 1.16-.37.521-.742 1.318-.875 1.618-.628 1.414-.585 2.597-.55 3.513.06 1.57.555 3.402 1.278 5.016.624 1.395 1.613 3.081 3.02 4.77.74.888 1.665 1.75 2.41 2.181.375.216.956.516 1.67.582-.72-1.129-1.94-3.058-2.727-4.423-1.275-2.208-2.843-5.145-2.941-7.716-.109-2.818 1.387-5.437 4.078-6.99 1.61-.93 2.803-1.154 5.217-1.456 1.443-.18 2.748-.132 4.005-.084l.774.027c.528.015 1.781.134 3.764.627 1.983.493 3.933 1.523 4.871 2.231a6.958 6.958 0 0 1 2.542 3.84c.172.68.253 1.29.06 2.407s-.876 2.037-.98 1.73c-.01-.028-.02-.055-.028-.082-.152-.447-.286-.843-.538-1.39-.266-.58-.77-1.301-.963-1.567-.91-1.25-1.957-1.805-2.767-2.232-1.39-.734-3.224-1.22-4.983-1.402-1.52-.157-3.475-.144-5.642.231-1.139.197-2.349.567-3.094.997-.397.229-.992.613-1.413 1.265 1.322-.06 3.677-.155 5.293-.155 2.549 0 5.877.112 8.153 1.312 2.494 1.315 4.014 3.92 4.014 7.027 0 1.859-.402 3.004-1.348 5.246-.565 1.34-1.26 2.445-1.93 3.51-.138.22-.275.438-.41.657-.277.45-1.007 1.475-2.425 2.946-1.419 1.471-3.286 2.645-4.368 3.103zm-6.88-19.423c.133.303.293.622.48.957a314.384 314.384 0 0 0 3.858 6.713c.218-.291.438-.62.658-.988a314.938 314.938 0 0 0 3.829-6.6c-.34-.038-.707-.061-1.105-.067a314.969 314.969 0 0 0-7.72-.015z" fill="url(#ofgjtj5lfa)"/>
    <defs>
        <linearGradient id="ofgjtj5lfa" x1="27" y1="22.5" x2="17.484" y2="4.247" gradientUnits="userSpaceOnUse">
            <stop stop-color="#F64C7F"/>
            <stop offset="1" stop-color="#FF6E99"/>
        </linearGradient>
    </defs>
</svg>
