<svg width="32" height="32" viewBox="0 0 32 32" xmlns="http://www.w3.org/2000/svg">
    <defs>
        <linearGradient x1="37.62%" y1="11.258%" x2="67.481%" y2="82.884%" id="a">
            <stop stop-color="#A79DFF" offset="0%"/>
            <stop stop-color="#6B70ED" offset="100%"/>
        </linearGradient>
    </defs>
    <path d="M17.455.255c.65.185 1.2.413 2.04 1.116.842.703 1.281 1.723.973 1.661-.481-.096-.889-.181-1.503-.239-.614-.057-1.46.017-1.775.05-1.485.158-2.454.768-3.203 1.24-1.284.812-2.577 2.115-3.578 3.504-.864 1.2-1.797 2.847-2.53 4.847-.385 1.052-.66 2.246-.66 3.08 0 .424.03 1.067.33 1.705a110.978 110.978 0 0 1 2.355-4.36c1.231-2.132 2.93-4.86 5.037-6.182 2.308-1.449 5.227-1.458 7.836.048 1.56.901 2.327 1.792 3.753 3.67 1.027 1.353 1.677 2.699 2.368 3.975.243.45.752 1.558 1.302 3.456.55 1.9.633 4.03.495 5.156a6.693 6.693 0 0 1-1.983 3.98c-.485.471-.957.833-1.986 1.21-1.03.377-2.133.248-1.925.011.323-.368.601-.679.958-1.182.357-.503.716-1.272.844-1.562.606-1.365.563-2.509.527-3.394-.06-1.518-.542-3.289-1.245-4.85-.606-1.349-1.566-2.98-2.932-4.615-.718-.86-1.615-1.694-2.337-2.111-.353-.204-.896-.485-1.563-.56a111.37 111.37 0 0 1 2.635 4.277c1.23 2.131 2.744 4.968 2.836 7.452.1 2.723-1.352 5.256-3.96 6.762-1.561.901-2.716 1.12-5.055 1.416-1.685.213-3.176.103-4.626.063-.512-.015-1.725-.128-3.645-.6-1.92-.474-3.806-1.466-4.713-2.15A6.693 6.693 0 0 1 .07 23.422c-.166-.655-.243-1.245-.054-2.325.188-1.08.851-1.97.952-1.673.158.464.288.86.545 1.42.257.561.744 1.257.93 1.513.88 1.208 1.892 1.742 2.676 2.154 1.345.707 3.12 1.174 4.823 1.346 1.471.15 3.364.134 5.463-.232 1.103-.192 2.275-.551 2.997-.968.382-.22.954-.589 1.361-1.211-2.09.1-3.797.15-5.119.15-2.461 0-5.674-.108-7.872-1.271-2.408-1.275-3.875-3.8-3.875-6.81 0-1.803.388-2.913 1.301-5.086.658-1.566 1.499-2.802 2.259-4.038.268-.436.972-1.43 2.342-2.856S11.97.972 13.016.528a6.693 6.693 0 0 1 4.439-.273zm-1.989 11.638-.07.096c-.194.264-.39.558-.585.886a275.563 275.563 0 0 0-3.712 6.394 11 11 0 0 0 1.107.07c2.752.039 5.245.044 7.48.015-.13-.293-.284-.602-.465-.928a273.717 273.717 0 0 0-3.755-6.533z" transform="translate(.7 1)" fill="url(#a)" fill-rule="nonzero"/>
</svg>
