<svg width="169" height="49" viewBox="0 0 169 49" fill="none" xmlns="http://www.w3.org/2000/svg">
    <path fill-rule="evenodd" clip-rule="evenodd" d="M131.011 18.525c-.257.256-.581.384-.972.384-.39 0-.714-.124-.972-.373a1.222 1.222 0 0 1-.386-.913c0-.36.129-.667.386-.923.258-.256.582-.384.972-.384.391 0 .715.121.972.363.258.242.387.543.387.903 0 .373-.129.688-.387.943zm-49.328 13.7c.731 0 1.484-.166 2.195-.436l-.293-3.443c-.355.166-.71.27-1.045.27-.565 0-.983-.311-.983-1.079v-10.91h-4.222v11.035c0 3.131 2.07 4.563 4.348 4.563zm-22.915-1.1c-1.24.595-2.662.892-4.264.892h-6.919V17.5h6.919c1.602 0 3.024.297 4.264.892 1.24.594 2.202 1.438 2.885 2.53.682 1.092 1.024 2.371 1.024 3.837 0 1.466-.342 2.745-1.024 3.837-.683 1.092-1.645 1.936-2.885 2.53zm-7.044-2.385h2.613c1.254 0 2.26-.352 3.02-1.058.76-.705 1.14-1.68 1.14-2.924 0-1.245-.38-2.22-1.14-2.925-.76-.705-1.766-1.057-3.02-1.057h-2.613v7.964zm18.437 3.464c2.118 0 3.727-.609 4.828-1.825l-2.09-2.157c-.404.345-.805.594-1.202.746-.397.152-.868.228-1.411.228-.725 0-1.327-.155-1.808-.466-.481-.311-.805-.757-.972-1.338h8.236c.041-.622.062-.947.062-.975 0-1.203-.268-2.243-.805-3.121a5.31 5.31 0 0 0-2.184-2.012c-.92-.463-1.944-.695-3.073-.695-1.184 0-2.25.249-3.198.747a5.604 5.604 0 0 0-2.226 2.063c-.536.878-.805 1.87-.805 2.977 0 1.12.276 2.122.826 3.007.55.885 1.327 1.576 2.33 2.074 1.004.498 2.168.747 3.492.747zm-1.934-8.297c-.411.346-.672.816-.784 1.41h4.64c-.111-.594-.372-1.064-.783-1.41-.411-.345-.924-.518-1.537-.518-.613 0-1.125.173-1.536.518zm22.942 8.13c-.48.111-.993.167-1.536.167-1.478 0-2.613-.36-3.408-1.079-.794-.719-1.191-1.79-1.191-3.215v-3.774h-1.651V21.19h1.65v-2.925h3.972v2.925h2.592v2.945h-2.591v3.733c0 .401.108.715.323.944.217.228.506.342.868.342.46 0 .864-.118 1.212-.353l.983 2.759a4.019 4.019 0 0 1-1.223.477zm6.28.167c1.658 0 2.773-.546 3.344-1.639v1.452h3.7v-6.243c0-1.756-.494-3.06-1.484-3.91-.989-.85-2.425-1.275-4.306-1.275-.906 0-1.808.114-2.707.342-.899.228-1.662.55-2.289.965l1.338 2.675c.39-.304.864-.543 1.421-.715a5.553 5.553 0 0 1 1.652-.26c1.533 0 2.334.595 2.404 1.784h-2.258c-1.714 0-2.982.294-3.804.882-.822.587-1.233 1.413-1.233 2.478 0 .664.163 1.255.49 1.773.328.519.813.93 1.454 1.234.64.305 1.4.457 2.278.457zm.02-2.8c.266.207.628.31 1.088.31.46 0 .864-.11 1.212-.33.349-.222.599-.547.753-.976v-.975h-1.714c-1.157 0-1.735.38-1.735 1.141a1 1 0 0 0 .397.83zm12.047 2.613V27.62h3.617c1.895 0 3.386-.45 4.473-1.348 1.087-.899 1.63-2.136 1.63-3.713 0-1.576-.543-2.814-1.63-3.712-1.087-.899-2.578-1.348-4.473-1.348h-5.707v14.518h2.09zm0-6.201h3.554c1.324 0 2.334-.28 3.031-.84.697-.56 1.045-1.366 1.045-2.417 0-1.05-.348-1.856-1.045-2.416-.697-.56-1.707-.84-3.031-.84h-3.554v6.513zm13.598 6.201v-5.475c0-1.19.31-2.106.93-2.749.62-.642 1.474-.964 2.561-.964.195 0 .348.007.46.02v-1.928c-.976 0-1.805.166-2.488.498a3.415 3.415 0 0 0-1.547 1.451v-1.846h-1.923v10.993h2.007zm7.929 0V21.024h-2.007v10.993h2.007zm4.207-5.662v5.662h-2.007V21.024h1.923v1.64a3.882 3.882 0 0 1 1.589-1.297c.655-.297 1.4-.446 2.236-.446.864 0 1.631.173 2.3.518.669.346 1.184.85 1.546 1.514.418-.636 1-1.133 1.746-1.493.745-.36 1.585-.54 2.519-.54 1.393 0 2.498.402 3.313 1.204.815.802 1.223 1.99 1.223 3.567v6.326h-2.007V25.92c0-1.064-.247-1.866-.742-2.406-.495-.539-1.202-.809-2.122-.809-1.017 0-1.825.315-2.425.944-.599.63-.898 1.532-.898 2.707v5.662h-2.007V25.92c0-1.064-.247-1.866-.742-2.406-.495-.539-1.202-.809-2.122-.809-1.017 0-1.825.315-2.425.944-.599.63-.898 1.532-.898 2.707zm23.741 5.787c.919 0 1.752-.153 2.498-.457a4.848 4.848 0 0 0 1.87-1.327l-1.107-1.286c-.809.885-1.875 1.327-3.199 1.327-1.087 0-1.996-.294-2.727-.881-.732-.588-1.161-1.366-1.286-2.334h8.988c.028-.248.042-.449.042-.6 0-1.107-.233-2.089-.7-2.946a5.045 5.045 0 0 0-1.944-2.002c-.829-.477-1.773-.715-2.832-.715-1.06 0-2.011.238-2.854.715a5.148 5.148 0 0 0-1.986 2.002c-.48.857-.721 1.818-.721 2.883 0 1.078.248 2.046.742 2.903a5.127 5.127 0 0 0 2.101 2.002c.906.477 1.944.716 3.115.716zm-3.951-6.389h7.107c-.111-.926-.491-1.683-1.139-2.27-.648-.588-1.453-.882-2.415-.882-.961 0-1.766.29-2.414.871-.648.58-1.028 1.341-1.139 2.281z" fill="#6B70ED"/>
    <path fill-rule="evenodd" clip-rule="evenodd" d="M18.841 8.126a7.48 7.48 0 0 1 4.906-.298c.72.201 1.327.45 2.257 1.219.93.768 1.415 1.882 1.075 1.815l-.09-.018c-.494-.097-.932-.184-1.572-.243-.678-.063-1.614.018-1.962.055-1.642.172-2.712.838-3.54 1.355-1.42.886-2.849 2.31-3.955 3.828-.956 1.31-1.987 3.11-2.797 5.296-.425 1.149-.73 2.454-.73 3.365 0 .476.036 1.206.394 1.923.66-1.262 1.783-3.38 2.618-4.814 1.36-2.338 3.238-5.332 5.562-6.783 2.546-1.591 5.765-1.606 8.637.039 1.719.985 2.562 1.96 4.13 4.014.937 1.228 1.587 2.45 2.215 3.628.13.244.258.485.388.724.267.493.826 1.705 1.429 3.785.602 2.08.69 4.413.537 5.648a7.349 7.349 0 0 1-2.193 4.365c-.536.517-1.057.914-2.192 1.33-1.136.414-2.351.274-2.122.015l.06-.068c.332-.376.627-.708.998-1.229.394-.552.791-1.396.934-1.713.67-1.497.624-2.75.587-3.72-.064-1.663-.593-3.603-1.364-5.312-.666-1.477-1.721-3.263-3.224-5.052-.79-.94-1.777-1.854-2.572-2.31-.399-.228-1.02-.545-1.781-.615.769 1.195 2.07 3.238 2.91 4.683 1.36 2.338 3.034 5.45 3.14 8.172.115 2.983-1.481 5.757-4.354 7.402-1.718.984-2.99 1.222-5.568 1.542-1.54.19-2.932.139-4.274.089l-.825-.029c-.565-.016-1.902-.142-4.018-.664-2.117-.522-4.198-1.613-5.199-2.363a7.362 7.362 0 0 1-2.713-4.067c-.184-.718-.27-1.365-.064-2.548.206-1.183.935-2.158 1.047-1.831l.03.086c.161.473.304.892.573 1.472.284.614.822 1.378 1.028 1.659.972 1.324 2.088 1.911 2.953 2.364 1.484.777 3.441 1.292 5.319 1.484 1.622.166 3.708.153 6.02-.244 1.216-.209 2.507-.6 3.303-1.056.423-.242 1.059-.65 1.508-1.34-1.41.063-3.924.164-5.649.164-2.72 0-6.272-.118-8.701-1.388-2.662-1.393-4.284-4.151-4.284-7.442 0-1.969.429-3.181 1.438-5.556.603-1.418 1.345-2.59 2.06-3.717.147-.233.293-.464.437-.695.296-.477 1.075-1.563 2.589-3.12 1.514-1.558 3.506-2.801 4.662-3.286zm7.344 20.568c-.143-.32-.313-.658-.513-1.013a331.749 331.749 0 0 0-4.118-7.109c-.232.308-.467.656-.702 1.046-1.804 3-3.294 5.594-4.086 6.99.362.04.754.064 1.18.07 3.59.052 6.65.033 8.239.016z" fill="url(#a)"/>
    <defs>
        <linearGradient id="a" x1="1.339" y1="19.538" x2="14.899" y2="43.802" gradientUnits="userSpaceOnUse">
            <stop stop-color="#A79DFF"/>
            <stop offset="1" stop-color="#6B70ED"/>
        </linearGradient>
    </defs>
</svg>
