<svg width="165" height="45" viewBox="0 0 165 45" xmlns="http://www.w3.org/2000/svg">
    <defs>
        <linearGradient x1="27.399%" y1="20.761%" x2="69.634%" y2="82.403%" id="a">
            <stop stop-color="#A79DFF" offset="0%"/>
            <stop stop-color="#6B70ED" offset="100%"/>
        </linearGradient>
    </defs>
    <g fill-rule="nonzero" fill="none">
        <path d="M49.834 29.172c1.46 0 2.755-.273 3.885-.82 1.13-.545 2.007-1.32 2.629-2.323.622-1.003.933-2.178.933-3.524s-.31-2.52-.933-3.524c-.622-1.003-1.499-1.778-2.629-2.324-1.13-.546-2.425-.819-3.885-.819h-6.305v13.334h6.305zm-.153-3.01h-2.38v-7.314h2.38c1.143 0 2.06.324 2.753.971.692.648 1.038 1.543 1.038 2.686s-.346 2.038-1.038 2.686c-.692.647-1.61.971-2.753.971zm14.42 3.181c1.93 0 3.396-.559 4.4-1.676l-1.905-1.981a3.793 3.793 0 0 1-1.095.686c-.362.14-.79.21-1.286.21-.66 0-1.21-.144-1.648-.43-.438-.285-.733-.695-.885-1.228h7.504c.038-.571.057-.87.057-.895 0-1.105-.244-2.06-.733-2.867a4.854 4.854 0 0 0-1.99-1.848c-.838-.425-1.772-.638-2.8-.638-1.08 0-2.051.229-2.915.686a5.124 5.124 0 0 0-2.028 1.895c-.49.807-.734 1.718-.734 2.734 0 1.028.251 1.949.753 2.762.501.812 1.21 1.447 2.124 1.904.914.457 1.974.686 3.18.686zm1.752-6.324h-4.229c.102-.546.34-.978.715-1.295.374-.317.841-.476 1.4-.476.558 0 1.025.159 1.4.476.374.317.612.75.714 1.295zm8.747 6.343c.667 0 1.353-.152 2-.4l-.266-3.162c-.324.153-.648.248-.953.248-.514 0-.895-.286-.895-.99v-10.02h-3.848v10.134c0 2.876 1.886 4.19 3.962 4.19zm7.244-.019c.496 0 .962-.05 1.4-.152.438-.102.81-.248 1.115-.438l-.896-2.534a1.917 1.917 0 0 1-1.104.324c-.33 0-.594-.105-.79-.314-.198-.21-.296-.499-.296-.867v-3.428h2.362v-2.705h-2.362v-2.686h-3.62v2.686H76.15v2.705h1.505V25.4c0 1.308.362 2.292 1.086 2.953.723.66 1.758.99 3.104.99zm7.123 0c1.511 0 2.527-.502 3.048-1.505v1.334h3.371v-5.734c0-1.612-.45-2.81-1.352-3.59-.902-.781-2.21-1.172-3.924-1.172-.826 0-1.648.105-2.467.315-.819.21-1.514.504-2.086.885l1.22 2.458a4.01 4.01 0 0 1 1.295-.658 5.025 5.025 0 0 1 1.505-.238c1.396 0 2.127.546 2.19 1.638H89.71c-1.562 0-2.718.27-3.467.81-.749.54-1.124 1.298-1.124 2.276 0 .61.15 1.152.448 1.629.298.476.74.854 1.324 1.133.584.28 1.276.42 2.076.42zm1.01-2.286c-.42 0-.75-.095-.99-.285a.922.922 0 0 1-.363-.762c0-.699.527-1.048 1.581-1.048h1.562v.895c-.14.394-.368.692-.686.896a2.005 2.005 0 0 1-1.104.304zm9.986 2.115v-4.038h3.296c1.727 0 3.085-.413 4.076-1.239.99-.825 1.486-1.961 1.486-3.41 0-1.447-.496-2.583-1.486-3.409-.99-.825-2.35-1.238-4.076-1.238h-5.2v13.334h1.904zm3.239-5.696h-3.239v-5.98h3.239c1.206 0 2.127.257 2.761.77.635.515.953 1.255.953 2.22 0 .965-.318 1.705-.953 2.219-.634.514-1.555.771-2.761.771zm9.152 5.696v-5.029c0-1.092.283-1.933.848-2.524.565-.59 1.343-.885 2.333-.885.178 0 .317.006.419.019V18.98c-.889 0-1.644.153-2.267.457a3.12 3.12 0 0 0-1.41 1.334v-1.696h-1.752v10.096h1.829zm6.31-12.038c.356 0 .652-.118.887-.353.234-.235.352-.524.352-.866 0-.33-.118-.607-.352-.83-.235-.221-.53-.332-.886-.332s-.651.117-.886.352a1.156 1.156 0 0 0-.352.848c0 .33.117.61.352.838.235.228.53.343.886.343zm.915 12.038V19.076h-1.828v10.096h1.828zm3.834 0v-5.2c0-1.08.273-1.908.819-2.486.546-.578 1.282-.867 2.21-.867.837 0 1.482.248 1.933.743.45.495.676 1.232.676 2.21v5.6h1.828v-5.2c0-1.08.273-1.908.82-2.486.545-.578 1.282-.867 2.209-.867.838 0 1.482.248 1.933.743.451.495.676 1.232.676 2.21v5.6h1.829v-5.81c0-1.448-.371-2.54-1.114-3.276-.743-.737-1.75-1.105-3.02-1.105-.85 0-1.615.165-2.295.495-.679.33-1.21.788-1.59 1.372a3.31 3.31 0 0 0-1.41-1.39c-.61-.318-1.308-.477-2.095-.477-.762 0-1.441.137-2.038.41-.597.273-1.08.67-1.448 1.19v-1.505h-1.752v10.096h1.829zm21.633.114c.839 0 1.597-.14 2.277-.42a4.422 4.422 0 0 0 1.704-1.218l-1.01-1.181c-.736.813-1.707 1.219-2.913 1.219-.99 0-1.82-.27-2.486-.81-.667-.54-1.057-1.254-1.172-2.142h8.19a5.24 5.24 0 0 0 .039-.553c0-1.016-.213-1.917-.638-2.705a4.615 4.615 0 0 0-1.772-1.838c-.755-.438-1.615-.657-2.58-.657-.966 0-1.832.22-2.6.657a4.708 4.708 0 0 0-1.81 1.838c-.438.788-.657 1.67-.657 2.648 0 .99.225 1.88.676 2.667.45.787 1.089 1.4 1.914 1.838.826.438 1.772.657 2.838.657zm2.877-5.867h-6.477c.102-.863.448-1.562 1.039-2.095.59-.533 1.323-.8 2.2-.8.876 0 1.61.27 2.2.81.59.54.936 1.234 1.038 2.085z" fill="#6B70ED"/>
        <path d="M16.886.413c.518.21 1.172.701 1.693 1.221.398.398.117.832-.233.846-1.797.073-3.16.419-4.087 1.037a7.458 7.458 0 0 0-2.276 2.376L7.238 14c-.227.389-.56.973-.56 1.552 0 1.034.475 1.403 1.083 1.545.19.044.389.08.597.108l5.63-9.75c1.454-2.516 4.629-3.403 7.092-1.98a5.066 5.066 0 0 1 1.816 1.79l.062.107c2.91 4.941 4.81 8.295 5.695 10.063 1.33 2.652 1.22 6.223-1.365 8.235-.442.344-1.194.665-1.905.856-.544.146-.779-.314-.616-.625.835-1.592 1.217-2.945 1.146-4.058a7.458 7.458 0 0 0-.92-3.16l-4.648-8.161c-.223-.391-.562-.972-1.063-1.261-.896-.518-1.453-.29-1.88.165-.13.139-.256.289-.382.45l5.548 9.61c1.453 2.516.633 5.71-1.83 7.132a5.066 5.066 0 0 1-2.46.676h-.123c-1.564.014-2.988.022-4.272.023h-.836c-2.987-.003-5.138-.044-6.454-.121-2.962-.175-6-2.057-6.45-5.3-.076-.555.022-1.367.212-2.078.145-.544.661-.517.849-.221.962 1.52 1.942 2.526 2.942 3.021a7.458 7.458 0 0 0 3.196.783l9.392.056c.45.002 1.122-.001 1.624-.29.896-.518.978-1.114.796-1.711a6.186 6.186 0 0 0-.144-.417H7.76c-2.905 0-5.261-2.307-5.261-5.152 0-.863.221-1.711.643-2.468l.062-.107c2.823-4.99 4.78-8.312 5.867-9.964C10.703.87 13.85-.82 16.886.413zm.05 16.855-2.131-3.691-2.131 3.691h4.262z" fill="url(#a)" transform="translate(6 7)"/>
    </g>
</svg>
