<svg width="20" height="20" xmlns="http://www.w3.org/2000/svg">
    <g transform="translate(1.5 1.5)" fill="none" fill-rule="evenodd">
        <circle fill="#F64254" cx="8.486" cy="8.486" r="8.131"/>
        <path d="M7.568 13.537a1.275 1.275 0 0 1-.362-.928c0-.371.12-.68.362-.927.24-.245.547-.369.92-.369.371 0 .678.124.918.369.241.247.362.556.362.927 0 .372-.12.681-.362.928-.24.247-.547.37-.918.37-.373 0-.68-.123-.92-.37m.42-3.38c-.136-.131-.221-.322-.254-.573l-.72-4.966A1.297 1.297 0 0 1 7 4.388c0-.402.14-.723.423-.964.284-.24.64-.358 1.065-.358.423 0 .779.119 1.061.358.284.24.427.568.427.981 0 .098-.006.174-.018.229l-.736 4.95c-.02.251-.101.442-.236.573a.695.695 0 0 1-.498.196.693.693 0 0 1-.5-.196" fill="#FFF"/>
    </g>
</svg>
