<svg width="22" height="22" viewBox="0 0 22 22" fill="none" xmlns="http://www.w3.org/2000/svg">
    <path d="M11.2 1.832h-.403a1.833 1.833 0 0 0-1.833 1.833v.165a1.833 1.833 0 0 1-.917 1.586l-.394.23a1.833 1.833 0 0 1-1.834 0l-.137-.074a1.833 1.833 0 0 0-2.503.67l-.201.348a1.833 1.833 0 0 0 .669 2.502l.137.092a1.833 1.833 0 0 1 .917 1.576v.468a1.833 1.833 0 0 1-.917 1.595l-.137.082a1.833 1.833 0 0 0-.67 2.503l.202.348a1.833 1.833 0 0 0 2.503.67l.137-.074a1.833 1.833 0 0 1 1.834 0l.394.23a1.833 1.833 0 0 1 .917 1.585v.165a1.833 1.833 0 0 0 1.833 1.833h.403a1.834 1.834 0 0 0 1.834-1.833v-.165a1.834 1.834 0 0 1 .916-1.586l.394-.229a1.833 1.833 0 0 1 1.834 0l.137.073a1.834 1.834 0 0 0 2.503-.669l.201-.357a1.834 1.834 0 0 0-.669-2.503l-.137-.073a1.834 1.834 0 0 1-.917-1.595v-.458a1.835 1.835 0 0 1 .917-1.595l.137-.083a1.833 1.833 0 0 0 .67-2.502l-.202-.349a1.833 1.833 0 0 0-2.503-.669l-.137.073a1.833 1.833 0 0 1-1.834 0l-.394-.229a1.834 1.834 0 0 1-.916-1.586v-.165A1.833 1.833 0 0 0 11.2 1.832z" stroke="#9A97FF" stroke-width="2" stroke-linecap="round" stroke-linejoin="round"/>
    <path d="M11 13.75a2.75 2.75 0 1 0 0-5.5 2.75 2.75 0 0 0 0 5.5z" stroke="#9A97FF" stroke-width="2" stroke-linecap="round" stroke-linejoin="round"/>
</svg>
