<svg width="30" height="30" viewBox="0 0 30 30" fill="none" xmlns="http://www.w3.org/2000/svg">
    <circle cx="15" cy="15" r="15" fill="#4F2E4A"/>
    <circle cx="14.988" cy="14.988" r="7.318" stroke="#FF6287" stroke-width="1.2"/>
    <path fill-rule="evenodd" clip-rule="evenodd" d="M14.162 19.535a1.147 1.147 0 0 1-.326-.835c0-.334.109-.613.325-.835a1.11 1.11 0 0 1 .829-.331c.334 0 .61.11.826.331.217.223.326.5.326.835 0 .335-.109.613-.325.835a1.106 1.106 0 0 1-.827.333c-.336 0-.612-.11-.829-.333m.379-3.043c-.123-.117-.2-.289-.229-.515l-.648-4.47a1.163 1.163 0 0 1-.013-.206c0-.363.127-.652.381-.868.256-.216.576-.323.958-.323s.701.107.956.323c.255.216.383.51.383.883 0 .088-.005.156-.015.206l-.663 4.455c-.018.226-.09.398-.213.515a.625.625 0 0 1-.448.177.624.624 0 0 1-.45-.177" fill="#FF6287"/>
</svg>
