<svg width="30" height="30" viewBox="0 0 30 30" fill="none" xmlns="http://www.w3.org/2000/svg">
    <circle cx="15" cy="15" r="15" fill="#F64254" fill-opacity=".1"/>
    <circle cx="14.988" cy="14.988" r="7.318" stroke="#F64254" stroke-width="1.2"/>
    <path fill-rule="evenodd" clip-rule="evenodd" d="M14.162 19.534a1.147 1.147 0 0 1-.325-.835c0-.334.108-.613.325-.835.217-.22.492-.331.828-.331.335 0 .61.11.827.331.217.223.325.5.325.835 0 .335-.108.613-.325.835a1.106 1.106 0 0 1-.827.333c-.336 0-.611-.11-.828-.333zm.378-3.043c-.123-.117-.2-.289-.229-.515l-.647-4.47a1.164 1.164 0 0 1-.014-.206c0-.363.127-.651.382-.868.255-.216.575-.323.958-.323.381 0 .7.107.955.323.256.217.384.51.384.883 0 .088-.005.156-.016.206l-.662 4.455c-.02.226-.091.397-.213.515a.625.625 0 0 1-.448.177.624.624 0 0 1-.45-.177z" fill="#F64254"/>
</svg>
