<svg width="60" height="70" viewBox="0 0 60 70" fill="none" xmlns="http://www.w3.org/2000/svg">
    <path d="m13.844 34.484 1.496.105c.003-.035.004-.07.004-.105h-1.5zM4.766 54.13l-.977-1.139a1.5 1.5 0 0 0 .977 2.639v-1.5zm50.877 0v1.5a1.5 1.5 0 0 0 .834-2.747l-.834 1.247zm-8.572-19.315h1.5a1.5 1.5 0 0 0-1.384-1.495l-.116 1.495zm-.003 0h-1.5a1.5 1.5 0 0 0 1.385 1.496l.115-1.496zM15.344 28.46c0-8.346 6.766-15.112 15.112-15.112v-3c-10.003 0-18.112 8.109-18.112 18.112h3zm0 6.024V28.46h-3v6.024h3zm-2.996-.106a29.17 29.17 0 0 1-4.636 13.847 27.65 27.65 0 0 1-2.76 3.599 19.324 19.324 0 0 1-1.101 1.112 4.518 4.518 0 0 1-.063.056l-.001.001.001-.001.978 1.138a157.712 157.712 0 0 0 .978 1.137l.003-.003.009-.007a3.69 3.69 0 0 0 .109-.097 22.3 22.3 0 0 0 1.302-1.313 30.63 30.63 0 0 0 3.063-3.991 32.17 32.17 0 0 0 5.11-15.267l-2.992-.21zM4.766 55.63h50.877v-3H4.766v3zm50.877-1.5c.834-1.247.834-1.247.835-1.246h.001l.002.001s0 .001 0 0l-.007-.004-.05-.035a7.331 7.331 0 0 1-.225-.17 13.372 13.372 0 0 1-.872-.75 19.316 19.316 0 0 1-2.732-3.207c-1.993-2.911-4.024-7.449-4.024-13.904h-3c0 7.13 2.256 12.25 4.549 15.599a22.311 22.311 0 0 0 3.16 3.705c.437.407.805.712 1.071.92a10.468 10.468 0 0 0 .412.306l.03.02.01.007.004.003h.001c.001.001.002.002.835-1.245zm-8.456-20.81h-.004l-.23 2.99h.003l.23-2.99zm-1.619-4.86v6.355h3V28.46h-3zM30.456 13.348c8.346 0 15.112 6.766 15.112 15.112h3c0-10.003-8.109-18.112-18.112-18.112v3z" fill="#B9B7FF"/>
    <path d="M22.248 55.049v1.691a8.457 8.457 0 0 0 16.914 0V55.05" stroke="#B9B7FF" stroke-width="3"/>
    <path d="M30.254 4.581v6.548" stroke="#B9B7FF" stroke-width="3" stroke-linecap="round" stroke-linejoin="round"/>
</svg>
