<svg width="42" height="42" xmlns="http://www.w3.org/2000/svg">
    <defs>
        <linearGradient x1="35.898%" y1="100%" x2="71.77%" y2="0%" id="a">
            <stop stop-color="#BABAFE" offset="0%"/>
            <stop stop-color="#FA91BF" offset="50.784%"/>
            <stop stop-color="#FEC2A5" offset="100%"/>
        </linearGradient>
        <linearGradient x1="8.818%" y1="95.158%" x2="100%" y2="6.045%" id="b">
            <stop stop-color="#BABAFE" offset="0%"/>
            <stop stop-color="#FA91BF" offset="50.784%"/>
            <stop stop-color="#FEC2A5" offset="100%"/>
        </linearGradient>
    </defs>
    <g fill="none" fill-rule="evenodd">
        <circle cx="20" cy="20.874" r="18.5" stroke="url(#a)" stroke-width="3" transform="translate(1)"/>
        <path d="M4.978 8.866H1.889a2.503 2.503 0 0 0-.665.096.657.657 0 0 0-.505.554c-.073.3.073.61.346.737.333.16.69.26 1.056.293.963.047 1.35.483 1.205 1.506-.27 1.913-.634 3.811-.945 5.72-.211 1.288-.388 2.579-.592 3.866-.274 1.734 1.291 3.361 2.534 3.576.737.106 1.48.155 2.223.146a5.701 5.701 0 0 0 4.207-1.88c.199-.19.347-.427.433-.69a.87.87 0 0 0-.145-.659.61.61 0 0 0-.544-.06c-.284.096-.537.296-.814.422a4.913 4.913 0 0 1-1.01.357.962.962 0 0 1-.813-.163 1.027 1.027 0 0 1-.407-.745 3.554 3.554 0 0 1-.03-1.008c.117-.83.283-1.652.429-2.475.394-2.243.795-4.487 1.201-6.733.11-.615.298-1.22.173-1.866a1.085 1.085 0 0 0-.362-.742 1.017 1.017 0 0 0-.767-.252h-3.12zM3.702 2.22a3.3 3.3 0 1 0 6.297 1.451A3.27 3.27 0 0 0 6.844.31a3.282 3.282 0 0 0-3.142 1.911z" transform="translate(15 7)" fill="url(#b)" fill-rule="nonzero"/>
    </g>
</svg>
