<svg width="17" height="17" viewBox="0 0 17 17" fill="none" xmlns="http://www.w3.org/2000/svg">
    <circle cx="8.131" cy="8.131" r="8.131" fill="url(#xxh6yylfqa)"/>
    <path fill-rule="evenodd" clip-rule="evenodd" d="M7.376 4.536a1.485 1.485 0 0 1-.265-1.635c.252-.549.81-.89 1.414-.86a1.472 1.472 0 0 1 1.42 1.513 1.485 1.485 0 0 1-2.57.982zM6.295 5.891H9.089c.125-.012.249.029.345.113a.488.488 0 0 1 .163.334c.045.234 0 .456-.046.677a6.84 6.84 0 0 0-.032.163 641.818 641.818 0 0 0-.6 3.357c-.049.261-.097.523-.134.786a1.6 1.6 0 0 0 .014.454c.01.134.077.257.183.335.105.079.239.106.365.074a2.207 2.207 0 0 0 .61-.245c.068-.04.138-.081.211-.106a.274.274 0 0 1 .245.027c.06.085.084.193.066.296a.747.747 0 0 1-.195.31 2.566 2.566 0 0 1-1.893.847 6.44 6.44 0 0 1-1-.066c-.56-.096-1.264-.828-1.141-1.609.04-.258.08-.516.118-.774.047-.322.095-.644.148-.965.05-.309.104-.617.157-.925.095-.549.19-1.098.268-1.65.066-.46-.109-.656-.542-.677a1.38 1.38 0 0 1-.475-.132.29.29 0 0 1-.156-.331.295.295 0 0 1 .228-.25c.097-.028.198-.042.299-.043z" fill="#fff"/>
    <defs>
        <linearGradient id="xxh6yylfqa" x1="8.68" y1="22.889" x2="23.508" y2="8.397" gradientUnits="userSpaceOnUse">
            <stop stop-color="#A4A4FF"/>
            <stop offset=".216" stop-color="#CD94FF"/>
            <stop offset=".599" stop-color="#FF8DBF"/>
            <stop offset="1" stop-color="#FEC2A5"/>
        </linearGradient>
    </defs>
</svg>
