<svg width="50" height="50" viewBox="0 0 50 50" fill="none" xmlns="http://www.w3.org/2000/svg">
    <path d="m43 31.706-.853.968a3.615 3.615 0 0 1-5.477-.06l-1.469-1.744a3.615 3.615 0 0 0-5.529 0l-1.407 1.672a3.614 3.614 0 0 1-5.53 0l-1.407-1.672a3.615 3.615 0 0 0-5.53 0l-1.468 1.744a3.615 3.615 0 0 1-5.477.06L8 31.706M43 38.912l-.853.968a3.615 3.615 0 0 1-5.477-.06l-1.469-1.744a3.615 3.615 0 0 0-5.529 0l-1.407 1.672a3.614 3.614 0 0 1-5.53 0l-1.407-1.672a3.615 3.615 0 0 0-5.53 0L14.33 39.82a3.615 3.615 0 0 1-5.477.06L8 38.912" stroke="#fff" stroke-width="2" stroke-linecap="round"/>
    <path d="M19.35 7v0a3.51 3.51 0 0 0-3.51 3.51v20.3M38.059 7v0a3.51 3.51 0 0 0-3.51 3.51v19.876M16.524 15.354h17.134M16.524 22.582h17.134" stroke="#fff" stroke-width="2" stroke-linecap="round"/>
</svg>
