<svg width="50" height="50" viewBox="0 0 50 50" fill="none" xmlns="http://www.w3.org/2000/svg">
    <path fill-rule="evenodd" clip-rule="evenodd"
          d="M14.34 10.51a5.01 5.01 0 0 1 5.01-5.01 1.5 1.5 0 0 1 0 3c-1.11 0-2.01.9-2.01 2.01v2.844H33.05V10.51a5.01 5.01 0 0 1 5.01-5.01 1.5 1.5 0 1 1 0 3c-1.11 0-2.01.9-2.01 2.01v19.067c.103.104.203.212.3.327l1.469 1.744a2.115 2.115 0 0 0 3.204.035l.852-.968a1.5 1.5 0 0 1 2.252 1.982l-.853.968a5.115 5.115 0 0 1-7.75-.085l-1.469-1.743a1.97 1.97 0 0 0-.044-.051 1.505 1.505 0 0 1-.656-.494 2.116 2.116 0 0 0-2.534.544l-1.408 1.672a5.115 5.115 0 0 1-7.824 0l-1.408-1.672a2.115 2.115 0 0 0-3.234 0l-1.469 1.744a5.114 5.114 0 0 1-7.75.085l-.853-.968a1.5 1.5 0 1 1 2.252-1.983l.852.969c.855.97 2.372.953 3.204-.035l1.159-1.375V10.51zm3 10.072v-4.228H33.05v4.228H17.34zm0 3v4.65a5.11 5.11 0 0 1 5.135 1.672l1.408 1.671a2.114 2.114 0 0 0 3.234 0l1.408-1.671a5.1 5.1 0 0 1 4.524-1.783v-4.539H17.34zm-.394 15.46a2.115 2.115 0 0 1 3.234 0l1.408 1.672a5.115 5.115 0 0 0 7.824 0l1.408-1.672a2.115 2.115 0 0 1 3.234 0l1.469 1.744a5.115 5.115 0 0 0 7.75.085l.853-.968a1.5 1.5 0 1 0-2.252-1.983l-.852.969a2.115 2.115 0 0 1-3.204-.036l-1.47-1.743a5.114 5.114 0 0 0-7.823 0l-1.408 1.671a2.114 2.114 0 0 1-3.234 0l-1.408-1.671a5.114 5.114 0 0 0-7.824 0l-1.469 1.743a2.114 2.114 0 0 1-3.204.036l-.852-.969a1.5 1.5 0 0 0-2.252 1.983l.853.968a5.115 5.115 0 0 0 7.75-.085l1.469-1.744z"
          fill="#fff"/>
</svg>
