<svg width="56" height="56" viewBox="0 0 56 56" fill="none" xmlns="http://www.w3.org/2000/svg">
    <path fill-rule="evenodd" clip-rule="evenodd"
          d="M45.832 7.4a1.5 1.5 0 0 0-1.554-1.565c-3.309.123-5.847.739-7.871 1.686-2.033.95-3.472 2.2-4.621 3.476-.055.061-.105.126-.149.195a17.833 17.833 0 0 0-2.811 9.748 11.262 11.262 0 0 0-1.275 3.609c-1.091-2.295-2.53-4.394-4.502-5.829-2.972-2.161-7.146-3.35-13.98-2.13a1.5 1.5 0 0 0-1.171 1.913c1.708 5.614 4.475 9.052 7.744 10.695 3.444 1.847 7.305 1.794 11.968.883.049.347.101.69.155 1.025.045.286.09.564.136.838v.002c.125.761.243 1.48.33 2.2.238 1.943.204 3.54-.467 4.953-.636 1.338-1.956 2.741-4.759 4.067h-6.672a1.5 1.5 0 0 0 0 3h6.93c.047.002.094.002.142 0h16.261a1.5 1.5 0 1 0 0-3H28.422c.906-.858 1.579-1.784 2.052-2.78 1.043-2.198.994-4.494.735-6.605-.096-.785-.228-1.592-.356-2.371l-.126-.776c-.164-1.033-.302-2.026-.35-3.005-.085-1.694.1-3.297.871-4.853 4.25-.342 7.574-1.552 10.056-3.537a1.49 1.49 0 0 0 .124-.111c2.66-2.66 4.159-6.084 4.404-11.729zM31.866 19.701a14.834 14.834 0 0 1 2.232-6.79c.934-1.02 2.041-1.954 3.58-2.674 1.277-.597 2.9-1.07 5.037-1.29-.409 3.97-1.608 6.235-3.35 8-1.75 1.377-4.174 2.37-7.499 2.754zm-20.536-.42c1.53 4.036 3.616 6.214 5.674 7.243l.04.021c2.228 1.2 4.835 1.419 8.473.857-1.064-2.704-2.418-4.936-4.233-6.256-1.952-1.42-4.826-2.49-9.954-1.866z"
          fill="#fff"/>
</svg>
