<svg width="56" height="56" viewBox="0 0 56 56" fill="none" xmlns="http://www.w3.org/2000/svg">
    <path d="M16.333 44.666h23.334M23.333 44.667c12.834-5.833 1.867-14.933 7-23.333" stroke="#DADADA" stroke-width="2" stroke-linecap="round" stroke-linejoin="round"/>
    <path d="M22.167 19.933c2.566 1.867 4.2 5.134 5.366 8.634-4.666.933-8.166.933-11.2-.7-2.8-1.4-5.366-4.434-7-9.8 6.534-1.167 10.267 0 12.834 1.866v0zM32.9 12a16.333 16.333 0 0 0-2.567 9.334c4.434-.233 7.7-1.4 10.034-3.267 2.333-2.333 3.733-5.366 3.966-10.733-6.3.233-9.333 2.333-11.433 4.667z" stroke="#DADADA" stroke-width="2" stroke-linecap="round" stroke-linejoin="round"/>
</svg>
