<svg width="21" height="21" viewBox="0 0 21 21" fill="none" xmlns="http://www.w3.org/2000/svg">
    <path fill-rule="evenodd" clip-rule="evenodd" d="M10.5 1.797a.7.7 0 0 1 .7.7v1.6a.7.7 0 1 1-1.4 0v-1.6a.7.7 0 0 1 .7-.7zm0 14.398a.7.7 0 0 1 .7.7v1.6a.7.7 0 1 1-1.4 0v-1.6a.7.7 0 0 1 .7-.7zM5.34 4.35a.7.7 0 1 0-.99.99l1.128 1.128a.7.7 0 1 0 .99-.99L5.34 4.35zm9.193 10.18a.7.7 0 0 1 .99 0l1.128 1.127a.7.7 0 1 1-.99.99l-1.128-1.128a.7.7 0 0 1 0-.99zM2.501 9.796a.7.7 0 0 0 0 1.4h1.6a.7.7 0 1 0 0-1.4H2.5zm13.7.7a.7.7 0 0 1 .7-.7h1.6a.7.7 0 0 1 0 1.4h-1.6a.7.7 0 0 1-.7-.7zm-9.733 5.022a.7.7 0 0 0-.99-.99L4.35 15.657a.7.7 0 1 0 .99.99l1.128-1.128zM16.65 4.35a.7.7 0 0 1 0 .99l-1.128 1.129a.7.7 0 1 1-.99-.99l1.128-1.128a.7.7 0 0 1 .99 0zM15 10.498a4.5 4.5 0 1 1-9 0 4.5 4.5 0 0 1 9 0z" fill="url(#04fd51sx9a)"/>
    <defs>
        <linearGradient id="04fd51sx9a" x1="5.522" y1="7.463" x2="13.481" y2="13.023" gradientUnits="userSpaceOnUse">
            <stop offset=".186" stop-color="#FFD3A5"/>
            <stop offset="1" stop-color="#FFC0C0"/>
        </linearGradient>
    </defs>
</svg>
