<?xml version="1.0"?>
<svg xmlns="http://www.w3.org/2000/svg" xmlns:xlink="http://www.w3.org/1999/xlink" xmlns:svgjs="http://svgjs.com/svgjs" version="1.1" width="512" height="512" x="0" y="0" viewBox="0 0 477.859 477.859" style="enable-background:new 0 0 512 512" xml:space="preserve" class=""><g>
<g xmlns="http://www.w3.org/2000/svg">
	<g>
		<path d="M472.863,175.662L353.396,56.195c-6.666-6.664-17.472-6.662-24.136,0.004c-3.199,3.2-4.996,7.538-4.997,12.063v51.2    H204.796c-9.426,0-17.067,7.641-17.067,17.067c0,9.426,7.641,17.067,17.067,17.067H341.33c9.426,0,17.067-7.641,17.067-17.067    V109.46l78.268,78.268l-78.268,78.268v-27.068c0-9.426-7.641-17.067-17.067-17.067H153.596v-51.2    c-0.002-9.426-7.645-17.065-17.07-17.063c-4.524,0.001-8.863,1.798-12.063,4.997L4.997,278.062    c-6.663,6.665-6.663,17.468,0,24.132l119.467,119.467c3.2,3.201,7.54,5,12.066,5.001c2.243,0.007,4.466-0.434,6.536-1.297    c6.376-2.644,10.532-8.867,10.53-15.77v-51.2h119.467c9.426,0,17.067-7.641,17.067-17.067s-7.641-17.067-17.067-17.067H136.53    c-9.426,0-17.067,7.641-17.067,17.067v27.068l-78.268-78.268l78.268-78.268v27.068c0,9.426,7.641,17.067,17.067,17.067h187.733    v51.2c0.002,9.426,7.645,17.065,17.07,17.063c4.524-0.001,8.863-1.798,12.063-4.997l119.467-119.467    C479.525,193.129,479.525,182.326,472.863,175.662z" fill="#a6a3ff" data-original="#000000" style="" class=""/>
	</g>
</g>
<g xmlns="http://www.w3.org/2000/svg">
</g>
<g xmlns="http://www.w3.org/2000/svg">
</g>
<g xmlns="http://www.w3.org/2000/svg">
</g>
<g xmlns="http://www.w3.org/2000/svg">
</g>
<g xmlns="http://www.w3.org/2000/svg">
</g>
<g xmlns="http://www.w3.org/2000/svg">
</g>
<g xmlns="http://www.w3.org/2000/svg">
</g>
<g xmlns="http://www.w3.org/2000/svg">
</g>
<g xmlns="http://www.w3.org/2000/svg">
</g>
<g xmlns="http://www.w3.org/2000/svg">
</g>
<g xmlns="http://www.w3.org/2000/svg">
</g>
<g xmlns="http://www.w3.org/2000/svg">
</g>
<g xmlns="http://www.w3.org/2000/svg">
</g>
<g xmlns="http://www.w3.org/2000/svg">
</g>
<g xmlns="http://www.w3.org/2000/svg">
</g>
</g></svg>
