<svg width="73" height="82" xmlns="http://www.w3.org/2000/svg">
    <g fill="none" fill-rule="evenodd">
        <g stroke="#DADADA" stroke-linecap="round" stroke-width="2">
            <path d="M47.476 41.99c-.592-5.796-3.38-12.065-4.677-20.627l8.223-4.08a2.5 2.5 0 0 0-.633-4.693l-8.58-1.674-7.85-5.39a2.5 2.5 0 0 0-3.799 2.817l2.848 8.974c-.187-.144-.36-.177-.523-.054-10.232 7.71-20.027 8.501-23.715 17.189-4.402 10.371.437 22.347 10.808 26.75a20.321 20.321 0 0 0 14.288.619" stroke-linejoin="round"/>
            <path d="M44.955 22.153c-3.623-.533-6.226-1.135-7.808-1.807-1.581-.671-3.663-2.057-6.243-4.158"/>
        </g>
        <path d="m21.19 46.674-3.61-1.386c-.758-.291-1.133-.435-1.304-.673-.183-.26-.23-.59-.132-.898.092-.283.41-.55 1.044-1.083l15.12-12.742c.643-.541.967-.81 1.258-.845a.96.96 0 0 1 .831.32c.194.22.254.636.37 1.468l.57 3.995.002.02c.127.894.192 1.347.132 1.774a3.074 3.074 0 0 1-.502 1.307c-.243.36-.593.657-1.296 1.245l-7.951 6.718-.02.017c-.698.584-1.051.88-1.45 1.053-.435.19-.9.27-1.365.237-.421-.038-.846-.2-1.696-.527zm9.118 3.5c-.763-.293-1.147-.44-1.313-.677a1.026 1.026 0 0 1-.13-.902c.091-.28.41-.544 1.06-1.082l4.332-3.57c.638-.526.958-.786 1.244-.822a.95.95 0 0 1 .827.317c.19.215.25.605.371 1.378l.01.063.84 5.555.013.081c.114.776-.529.772-.645 1.036-.13.295.092.938-.218 1.008-.288.067-.454-.106-1.217-.4l-5.174-1.985z" fill="#DADADA"/>
        <g transform="matrix(-1 0 0 1 66.3 41.5)" stroke="#DADADA" stroke-width="2">
            <circle cx="16.4" cy="16.6" r="15"/>
            <path d="M8.4 16.6h16" stroke-linecap="round"/>
        </g>
    </g>
</svg>
