<svg width="109" height="105" viewBox="0 0 109 105" fill="none" xmlns="http://www.w3.org/2000/svg">
    <path fill-rule="evenodd" clip-rule="evenodd" d="M46.395 2.272C52.315-.232 57.973.2 61.943 1.32c2.279.644 4.203 1.44 7.15 3.894 2.947 2.455 4.486 6.012 3.407 5.798l-.287-.057c-1.564-.312-2.95-.588-4.978-.777-2.151-.2-5.115.057-6.219.174-5.203.551-8.596 2.678-11.219 4.328-4.5 2.832-9.027 7.38-12.533 12.227-3.029 4.186-6.297 9.934-8.863 16.914-1.35 3.67-2.313 7.838-2.313 10.748 0 1.52.114 3.848 1.246 6.137 2.093-4.031 5.647-10.79 8.292-15.37 4.31-7.467 10.264-17.027 17.628-21.664 8.07-5.082 18.269-5.13 27.37.125 5.447 3.145 8.12 6.259 13.089 12.82 2.968 3.921 5.03 7.826 7.019 11.589.41.776.818 1.547 1.229 2.31.848 1.575 2.618 5.447 4.529 12.089 1.91 6.642 2.19 14.096 1.701 18.04-.791 6.38-3.994 11.063-6.949 13.941-1.697 1.652-3.348 2.92-6.947 4.245-3.6 1.325-7.45.879-6.725.051l.193-.219c1.052-1.199 1.984-2.26 3.161-3.923 1.25-1.763 2.509-4.459 2.959-5.472 2.124-4.782 1.98-8.784 1.861-11.88-.202-5.314-1.877-11.508-4.321-16.968C89.31 55.704 85.968 50 81.206 44.287c-2.504-3.003-5.632-5.922-8.152-7.376-1.264-.73-3.23-1.744-5.644-1.968 2.438 3.817 6.56 10.343 9.227 14.963 4.31 7.467 9.613 17.402 9.947 26.098.366 9.53-4.692 18.386-13.794 23.641-5.446 3.144-9.48 3.903-17.647 4.924-4.88.61-9.292.445-13.545.285-.878-.033-1.749-.065-2.615-.091-1.789-.053-6.026-.455-12.733-2.122-6.708-1.667-13.303-5.151-16.475-7.547-5.129-3.874-7.584-8.99-8.598-12.989-.582-2.295-.855-4.359-.203-8.138.653-3.78 2.964-6.891 3.318-5.85l.093.276c.513 1.511.966 2.85 1.817 4.7.902 1.963 2.607 4.402 3.26 5.299 3.079 4.23 6.617 6.106 9.358 7.552 4.702 2.481 10.905 4.128 16.855 4.74 5.14.53 11.752.487 19.08-.78 3.853-.667 7.944-1.917 10.464-3.372 1.344-.776 3.36-2.077 4.783-4.286-4.47.203-12.436.525-17.903.525-8.622 0-19.878-.376-27.576-4.435-8.435-4.448-13.576-13.257-13.576-23.767 0-6.288 1.36-10.161 4.559-17.744 1.91-4.531 4.26-8.27 6.525-11.873.468-.744.931-1.482 1.387-2.22.94-1.522 3.407-4.99 8.204-9.966C36.42 7.791 42.735 3.821 46.395 2.272zm23.269 65.692c-.452-1.023-.99-2.099-1.622-3.231-5.578-9.991-10.5-18.396-13.053-22.708a38.206 38.206 0 0 0-2.225 3.34 1065.774 1065.774 0 0 0-12.95 22.323c1.149.129 2.393.206 3.742.226 11.377.164 21.072.105 26.108.05z" fill="url(#jf9vr26nja)"/>
    <defs>
        <linearGradient id="jf9vr26nja" x1="21.5" y1="27.5" x2="40.407" y2="125.501" gradientUnits="userSpaceOnUse">
            <stop offset=".016" stop-color="#DEC5FF"/>
            <stop offset=".49" stop-color="#C3BAFF"/>
            <stop offset="1" stop-color="#A5A3FC"/>
        </linearGradient>
    </defs>
</svg>
