<svg width="109" height="105" viewBox="0 0 109 105" fill="none" xmlns="http://www.w3.org/2000/svg">
    <path fill-rule="evenodd" clip-rule="evenodd" d="M46.396 2.272C52.316-.232 57.974.2 61.944 1.32c2.278.644 4.203 1.44 7.15 3.894 2.946 2.455 4.485 6.012 3.406 5.798l-.286-.057c-1.564-.312-2.95-.588-4.978-.777-2.151-.2-5.116.057-6.219.174-5.203.551-8.596 2.678-11.22 4.328-4.5 2.832-9.026 7.38-12.532 12.227-3.03 4.186-6.297 9.934-8.864 16.914-1.349 3.67-2.312 7.838-2.312 10.748 0 1.52.113 3.848 1.245 6.137 2.094-4.031 5.647-10.79 8.292-15.37 4.311-7.467 10.265-17.027 17.628-21.664 8.07-5.082 18.27-5.13 27.372.125 5.445 3.145 8.12 6.259 13.087 12.82 2.968 3.921 5.032 7.826 7.02 11.589.41.776.817 1.547 1.228 2.31.849 1.575 2.619 5.447 4.529 12.089 1.91 6.642 2.191 14.096 1.702 18.04-.791 6.38-3.994 11.063-6.95 13.941-1.697 1.652-3.347 2.92-6.947 4.245-3.6 1.325-7.45.879-6.724.051l.192-.219c1.052-1.199 1.984-2.26 3.162-3.923 1.25-1.763 2.508-4.459 2.959-5.472 2.124-4.782 1.979-8.784 1.861-11.88-.202-5.314-1.878-11.508-4.322-16.968-2.11-4.716-5.455-10.42-10.216-16.133-2.504-3.003-5.632-5.922-8.152-7.376-1.265-.73-3.23-1.744-5.644-1.968 2.438 3.817 6.56 10.343 9.227 14.963 4.31 7.467 9.613 17.402 9.947 26.098.366 9.53-4.692 18.386-13.795 23.641-5.445 3.144-9.48 3.903-17.646 4.924-4.88.61-9.293.445-13.545.285-.878-.033-1.749-.065-2.616-.091-1.788-.053-6.026-.455-12.733-2.122-6.707-1.667-13.303-5.151-16.474-7.547-5.13-3.874-7.584-8.99-8.599-12.989-.582-2.295-.855-4.359-.202-8.138.652-3.78 2.963-6.891 3.317-5.85l.094.276c.512 1.511.966 2.85 1.817 4.7.902 1.963 2.607 4.402 3.26 5.299 3.078 4.23 6.617 6.106 9.357 7.552 4.703 2.481 10.905 4.128 16.855 4.74 5.14.53 11.752.487 19.08-.78 3.853-.667 7.944-1.917 10.465-3.372 1.343-.776 3.36-2.077 4.783-4.286-4.47.203-12.437.525-17.904.525-8.622 0-19.877-.376-27.575-4.435-8.436-4.448-13.577-13.257-13.577-23.767 0-6.288 1.36-10.161 4.56-17.744 1.91-4.531 4.26-8.27 6.525-11.873.468-.744.931-1.482 1.387-2.22.94-1.522 3.407-4.99 8.204-9.966C36.42 7.791 42.735 3.821 46.396 2.272zm23.268 65.692c-.452-1.023-.99-2.099-1.621-3.231-5.578-9.991-10.5-18.396-13.054-22.709a38.2 38.2 0 0 0-2.225 3.341 1065.774 1065.774 0 0 0-12.95 22.323c1.15.129 2.394.206 3.742.226 11.378.164 21.073.105 26.108.05z" fill="url(#y6rwj5dj1a)"/>
    <defs>
        <linearGradient id="y6rwj5dj1a" x1="-9.072" y1="38.722" x2="34.419" y2="115.931" gradientUnits="userSpaceOnUse">
            <stop stop-color="#AE69F2"/>
            <stop offset="1" stop-color="#5A48CA"/>
        </linearGradient>
    </defs>
</svg>
