<svg width="50" height="50" viewBox="0 0 50 50" fill="none" xmlns="http://www.w3.org/2000/svg">
    <path d="M21.497 34.078c-.516-1.355-1.222-2.931-2.75-4.455-1.753-1.75-2.96-4.088-2.96-6.76 0-5.085 4.133-9.21 9.231-9.21 5.1 0 9.232 4.125 9.232 9.21 0 2.713-1.264 5.059-3.045 6.837-1.55 1.545-2.292 3.059-2.809 4.352" stroke="#fff" stroke-width="2"/>
    <path clip-rule="evenodd" d="M29.021 39.094c-1.47.462-1.329 2.906-2.817 2.906h-2.309c-1.49 0-1.245-2.444-2.715-2.906v-2.989c0-2.218.168-1.402.582-1.913l6.738.028c.402.508.521-.304.521 1.886v2.988z" stroke="#fff" stroke-width="2" stroke-linecap="round" stroke-linejoin="round"/>
    <path d="M25.1 6.32v3.114M36.722 11.217l-2.203 2.204M41.478 22.898h-3.115M36.581 34.52l-2.203-2.203M13.277 34.38l2.202-2.203M8.522 22.698h3.113M13.42 11.076l2.2 2.2" stroke="#fff" stroke-width="2" stroke-linecap="round"/>
</svg>
