<svg width="50" height="50" viewBox="0 0 50 50" fill="none" xmlns="http://www.w3.org/2000/svg">
    <g fill="#fff" fill-rule="evenodd" clip-rule="evenodd">
        <path d="M26.6 6.252a1.5 1.5 0 0 0-3 0v3.126a1.5 1.5 0 1 0 3 0V6.252zm-1.582 8.862c-4.292 0-7.766 3.471-7.766 7.745 0 2.208.995 4.189 2.532 5.723 1.423 1.42 2.219 2.881 2.761 4.151l4.8.02c.56-1.24 1.385-2.659 2.824-4.094 1.58-1.577 2.616-3.57 2.616-5.8 0-4.273-3.473-7.745-7.767-7.745zm-7.353 15.591c1.124 1.122 1.737 2.275 2.197 3.387-.114.3-.142.585-.157.755-.03.317-.04.742-.04 1.304v3a1.5 1.5 0 0 0 1.04 1.427c.012.01.036.036.072.087.108.154.199.35.369.718l.013.028.008.018c.142.31.38.822.752 1.243a2.576 2.576 0 0 0 1.972.895h2.318c.864 0 1.515-.385 1.965-.87.382-.414.635-.92.79-1.232l.007-.011.025-.051c.177-.353.276-.552.393-.711a.585.585 0 0 1 .096-.109l.004-.003a1.5 1.5 0 0 0 1.047-1.43v-3c0-.55-.007-.96-.029-1.26v-.001c-.016-.22-.05-.678-.293-1.086l-.015-.025-.013-.02a10.363 10.363 0 0 1 2.102-2.975c1.997-1.993 3.497-4.71 3.497-7.924 0-5.937-4.823-10.745-10.767-10.745-5.942 0-10.766 4.808-10.766 10.745 0 3.155 1.428 5.866 3.412 7.846zm3.03 9.866s.003 0 .008.005a.026.026 0 0 1-.008-.005zm1.973-4.837c-.002.12-.003.258-.003.417v2.156c.23.2.415.419.565.631.275.39.478.835.612 1.127l.04.089c.096.206.16.333.206.413h1.952c.053-.082.13-.218.248-.455l.046-.093c.144-.291.36-.726.64-1.107.151-.204.336-.416.562-.61v-2.151c0-.15 0-.28-.002-.397l-4.866-.02zm15.159-25.626a1.5 1.5 0 0 1 0 2.121l-2.212 2.212a1.5 1.5 0 1 1-2.121-2.122l2.212-2.211a1.5 1.5 0 0 1 2.12 0zm.586 11.285a1.5 1.5 0 1 0 0 3h3.128a1.5 1.5 0 1 0 0-3h-3.128zm-5.06 9.895a1.5 1.5 0 0 1 2.121 0l2.212 2.211a1.5 1.5 0 1 1-2.121 2.121l-2.212-2.211a1.5 1.5 0 0 1 0-2.121zm-16.85 1.98a1.5 1.5 0 1 0-2.12-2.121l-2.211 2.21a1.5 1.5 0 1 0 2.121 2.121l2.21-2.21zM6.96 22.692a1.5 1.5 0 0 1 1.5-1.5h3.126a1.5 1.5 0 0 1 0 3H8.459a1.5 1.5 0 0 1-1.5-1.5zm7.478-12.726a1.5 1.5 0 1 0-2.122 2.12l2.21 2.21a1.5 1.5 0 1 0 2.12-2.121l-2.208-2.21z" fill="#fff"/>
        <path d="M26.6 6.252a1.5 1.5 0 0 0-3 0v3.126a1.5 1.5 0 1 0 3 0V6.252zm-1.582 8.862c-4.292 0-7.766 3.471-7.766 7.745 0 2.208.995 4.189 2.532 5.723 1.423 1.42 2.219 2.881 2.761 4.151l4.8.02c.56-1.24 1.385-2.659 2.824-4.094 1.58-1.577 2.616-3.57 2.616-5.8 0-4.273-3.473-7.745-7.767-7.745zm-7.353 15.591c1.124 1.122 1.737 2.275 2.197 3.387-.114.3-.142.585-.157.755-.03.317-.04.742-.04 1.304v3a1.5 1.5 0 0 0 1.04 1.427c.012.01.036.036.072.087.108.154.199.35.369.718l.013.028.008.018c.142.31.38.822.752 1.243a2.576 2.576 0 0 0 1.972.895h2.318c.864 0 1.515-.385 1.965-.87.382-.414.635-.92.79-1.232l.007-.011.025-.051c.177-.353.276-.552.393-.711a.585.585 0 0 1 .096-.109l.004-.003a1.5 1.5 0 0 0 1.047-1.43v-3c0-.55-.007-.96-.029-1.26v-.001c-.016-.22-.05-.678-.293-1.086l-.015-.025-.013-.02a10.363 10.363 0 0 1 2.102-2.975c1.997-1.993 3.497-4.71 3.497-7.924 0-5.937-4.823-10.745-10.767-10.745-5.942 0-10.766 4.808-10.766 10.745 0 3.155 1.428 5.866 3.412 7.846zm3.03 9.866s.003 0 .008.005a.026.026 0 0 1-.008-.005zm1.973-4.837c-.002.12-.003.258-.003.417v2.156c.23.2.415.419.565.631.275.39.478.835.612 1.127l.04.089c.096.206.16.333.206.413h1.952c.053-.082.13-.218.248-.455l.046-.093c.144-.291.36-.726.64-1.107.151-.204.336-.416.562-.61v-2.151c0-.15 0-.28-.002-.397l-4.866-.02zm15.159-25.626a1.5 1.5 0 0 1 0 2.121l-2.212 2.212a1.5 1.5 0 1 1-2.121-2.122l2.212-2.211a1.5 1.5 0 0 1 2.12 0zm.586 11.285a1.5 1.5 0 1 0 0 3h3.128a1.5 1.5 0 1 0 0-3h-3.128zm-5.06 9.895a1.5 1.5 0 0 1 2.121 0l2.212 2.211a1.5 1.5 0 1 1-2.121 2.121l-2.212-2.211a1.5 1.5 0 0 1 0-2.121zm-16.85 1.98a1.5 1.5 0 1 0-2.12-2.121l-2.211 2.21a1.5 1.5 0 1 0 2.121 2.121l2.21-2.21zM6.96 22.692a1.5 1.5 0 0 1 1.5-1.5h3.126a1.5 1.5 0 0 1 0 3H8.459a1.5 1.5 0 0 1-1.5-1.5zm7.478-12.726a1.5 1.5 0 1 0-2.122 2.12l2.21 2.21a1.5 1.5 0 1 0 2.12-2.121l-2.208-2.21z" fill="#fff"/>
    </g>
</svg>
