<svg width="20" height="21" viewBox="0 0 20 21" xmlns="http://www.w3.org/2000/svg">
    <path d="M20 10.5c0 5.633-4.477 10.2-10 10.2S0 16.133 0 10.5C0 4.867 4.477.3 10 .3s10 4.567 10 10.2zM6.73 15.042H4.59c-.449 0-.67 0-.806-.09a.567.567 0 0 1-.246-.44c-.009-.165.102-.367.324-.771L9.145 4.1c.224-.41.338-.614.482-.69a.528.528 0 0 1 .492 0c.144.076.258.28.482.69l1.086 1.963.006.01c.243.439.366.662.42.895.059.255.059.525 0 .78-.055.235-.177.46-.423.905l-2.775 5.078-.007.013c-.244.443-.368.668-.54.837-.186.185-.411.32-.658.395-.224.065-.476.065-.98.065zm5.402 0h3.066c.452 0 .68 0 .815-.093a.565.565 0 0 0 .246-.443c.008-.16-.1-.354-.313-.734l-.022-.04-1.536-2.72-.017-.03c-.216-.377-.325-.568-.465-.642a.523.523 0 0 0-.49 0c-.14.076-.255.275-.48.676l-1.53 2.72-.005.009c-.224.4-.335.6-.327.764.01.18.1.345.246.443.133.09.36.09.812.09z" fill="#C7C7C7" fill-rule="evenodd"/>
</svg>
