<svg width="33" height="32" viewBox="0 0 33 32" fill="none" xmlns="http://www.w3.org/2000/svg">
<path fill-rule="evenodd" clip-rule="evenodd" d="M16.2967 10.5625H12.3227L16.1898 21.9261H20.1638L16.2967 10.5625Z" fill="#FFB313"/>
<path fill-rule="evenodd" clip-rule="evenodd" d="M23.2952 15.3633H19.3635L21.5126 21.9254H25.4443L23.2952 15.3633Z" fill="#FFB313"/>
<path fill-rule="evenodd" clip-rule="evenodd" d="M10.8464 10.4062H6.88161L9.15764 16.9683H13.1224L10.8464 10.4062Z" fill="#FFB313"/>
<path fill-rule="evenodd" clip-rule="evenodd" d="M17.6857 0V4.12488C23.4968 4.94519 27.968 9.95154 27.968 16.0061C27.968 17.4014 27.7297 18.7408 27.2931 19.9865L30.7756 22.1436C31.5681 20.2409 32.0064 18.1529 32.0064 15.962C32.0064 7.66768 25.7331 0.84331 17.6857 0Z" fill="white"/>
<path fill-rule="evenodd" clip-rule="evenodd" d="M4.03843 16.0061C4.03843 9.95154 8.50954 4.94526 14.3207 4.12488V0C6.2733 0.84331 0 7.66768 0 15.962C0 18.6897 0.679263 21.2579 1.87608 23.5072L5.14289 21.0466C4.43451 19.514 4.03843 17.8065 4.03843 16.0061Z" fill="#FFB313"/>
<mask id="mask0_2445_19164" style="mask-type:luminance" maskUnits="userSpaceOnUse" x="3" y="22" width="27" height="10">
<path fill-rule="evenodd" clip-rule="evenodd" d="M3.76615 22.9746H29.1553V31.999H3.76615V22.9746Z" fill="white"/>
</mask>
<g mask="url(#mask0_2445_19164)">
<path fill-rule="evenodd" clip-rule="evenodd" d="M25.7349 22.9746C23.5641 26.0129 20.0143 27.9927 16.0032 27.9927C12.4016 27.9927 9.17197 26.3965 6.97851 23.8712L3.76615 26.2908C6.70171 29.7811 11.0938 31.999 16.0032 31.999C21.4529 31.999 26.2654 29.2663 29.1553 25.0932L25.7349 22.9746Z" fill="white"/>
</g>
</svg>
