<svg width="150" height="150" viewBox="0 0 150 150" fill="none" xmlns="http://www.w3.org/2000/svg">
<g filter="url(#filter0_ii_2733_57133)">
<circle cx="75" cy="75" r="75" fill="url(#paint0_linear_2733_57133)"/>
</g>
<g filter="url(#filter1_i_2733_57133)">
<path fill-rule="evenodd" clip-rule="evenodd" d="M67.3477 25.5769C72.6777 23.322 77.7718 23.7107 81.3462 24.7199C83.398 25.2992 85.1303 26.0154 87.7835 28.2256C90.4368 30.4359 91.8225 33.6388 90.8509 33.4457L90.5934 33.3944C89.1849 33.1138 87.9371 32.8652 86.1109 32.6951C84.1741 32.5148 81.5051 32.7467 80.5119 32.8518C75.8272 33.3479 72.772 35.2629 70.4106 36.7487C66.3587 39.2981 62.2829 43.3934 59.1262 47.7567C56.399 51.5263 53.4566 56.7015 51.1461 62.9859C49.9311 66.2905 49.064 70.0432 49.064 72.6631C49.064 74.0333 49.1665 76.1354 50.191 78.2006C52.0749 74.5721 55.2794 68.4779 57.6635 64.3484C61.545 57.6255 66.9049 49.0182 73.5351 44.8432C80.8008 40.268 89.9838 40.2248 98.179 44.9564C103.082 47.7872 105.49 50.591 109.963 56.4993C112.635 60.0293 114.493 63.5449 116.283 66.9328C116.652 67.632 117.019 68.3257 117.389 69.013C118.153 70.4312 119.747 73.9166 121.467 79.8969C123.186 85.8771 123.439 92.5887 122.999 96.1401C122.286 101.884 119.403 106.101 116.742 108.692C115.214 110.179 113.727 111.321 110.487 112.514C107.246 113.706 103.779 113.305 104.432 112.56L104.605 112.363C105.553 111.283 106.392 110.327 107.452 108.83C108.577 107.243 109.711 104.816 110.116 103.903C112.029 99.5981 111.898 95.9948 111.792 93.2068C111.61 88.4231 110.101 82.8457 107.901 77.9302C106 73.6836 102.989 68.5478 98.7022 63.4047C96.4478 60.7002 93.6315 58.0729 91.3625 56.7629C90.2238 56.1055 88.4542 55.1927 86.2798 54.9917C88.4747 58.4279 92.1849 64.3027 94.5858 68.4611C98.4672 75.1839 103.241 84.1294 103.542 91.9588C103.871 100.539 99.3172 108.513 91.122 113.245C86.2188 116.075 82.5868 116.759 75.2337 117.678C70.8405 118.227 66.867 118.078 63.0379 117.935C62.2477 117.905 61.4636 117.876 60.6833 117.853C59.0732 117.805 55.2578 117.443 49.2188 115.942C43.1799 114.441 37.2412 111.304 34.3858 109.147C29.768 105.658 27.5575 101.053 26.6443 97.4524C26.1201 95.3858 25.8742 93.5275 26.4617 90.1246C27.0492 86.7217 29.1302 83.9202 29.4487 84.8582C29.4771 84.9417 29.5052 85.0245 29.5331 85.1068C29.9943 86.4669 30.4029 87.6718 31.1687 89.3384C31.9809 91.1059 33.5163 93.3014 34.1039 94.1089C36.8759 97.918 40.0619 99.6063 42.5294 100.908C46.7632 103.143 52.3477 104.625 57.7048 105.177C62.3329 105.654 68.286 105.615 74.8837 104.473C78.353 103.873 82.0365 102.748 84.3055 101.438C85.5148 100.74 87.3292 99.5693 88.6103 97.5821C84.5873 97.7644 77.4084 98.0546 72.4827 98.0546C64.7198 98.0546 54.5857 97.7164 47.655 94.062C40.0599 90.0573 35.431 82.1262 35.431 72.6631C35.431 67.0014 36.6552 63.5144 39.5356 56.6867C41.2565 52.6074 43.3723 49.2408 45.4112 45.9966C45.832 45.327 46.2495 44.6627 46.6596 43.9984C47.5058 42.6277 49.7274 39.5048 54.0465 35.0252C58.3657 30.5457 64.0518 26.9713 67.3477 25.5769ZM88.3088 84.7233C87.9016 83.8014 87.4172 82.8313 86.8472 81.8105C81.8268 72.8178 77.3957 65.2522 75.0964 61.3684C74.4322 62.2543 73.7637 63.2527 73.0937 64.3754C67.9459 73.002 63.6936 80.464 61.4331 84.476C62.4642 84.5911 63.5812 84.6607 64.791 84.6781C75.0429 84.826 83.778 84.7725 88.3088 84.7233Z" fill="white"/>
</g>
<defs>
<filter id="filter0_ii_2733_57133" x="-2.36589" y="-2.36589" width="154.732" height="154.732" filterUnits="userSpaceOnUse" color-interpolation-filters="sRGB">
<feFlood flood-opacity="0" result="BackgroundImageFix"/>
<feBlend mode="normal" in="SourceGraphic" in2="BackgroundImageFix" result="shape"/>
<feColorMatrix in="SourceAlpha" type="matrix" values="0 0 0 0 0 0 0 0 0 0 0 0 0 0 0 0 0 0 127 0" result="hardAlpha"/>
<feOffset dx="2.36589" dy="2.36589"/>
<feGaussianBlur stdDeviation="1.18295"/>
<feComposite in2="hardAlpha" operator="arithmetic" k2="-1" k3="1"/>
<feColorMatrix type="matrix" values="0 0 0 0 1 0 0 0 0 1 0 0 0 0 1 0 0 0 0.25 0"/>
<feBlend mode="normal" in2="shape" result="effect1_innerShadow_2733_57133"/>
<feColorMatrix in="SourceAlpha" type="matrix" values="0 0 0 0 0 0 0 0 0 0 0 0 0 0 0 0 0 0 127 0" result="hardAlpha"/>
<feOffset dx="-2.36589" dy="-2.36589"/>
<feGaussianBlur stdDeviation="1.18295"/>
<feComposite in2="hardAlpha" operator="arithmetic" k2="-1" k3="1"/>
<feColorMatrix type="matrix" values="0 0 0 0 0.355716 0 0 0 0 0.305851 0 0 0 0 0.929167 0 0 0 0.35 0"/>
<feBlend mode="normal" in2="effect1_innerShadow_2733_57133" result="effect2_innerShadow_2733_57133"/>
</filter>
<filter id="filter1_i_2733_57133" x="26.1211" y="23.918" width="97.6579" height="94.7419" filterUnits="userSpaceOnUse" color-interpolation-filters="sRGB">
<feFlood flood-opacity="0" result="BackgroundImageFix"/>
<feBlend mode="normal" in="SourceGraphic" in2="BackgroundImageFix" result="shape"/>
<feColorMatrix in="SourceAlpha" type="matrix" values="0 0 0 0 0 0 0 0 0 0 0 0 0 0 0 0 0 0 127 0" result="hardAlpha"/>
<feOffset dx="0.591473" dy="0.591473"/>
<feGaussianBlur stdDeviation="2.07016"/>
<feComposite in2="hardAlpha" operator="arithmetic" k2="-1" k3="1"/>
<feColorMatrix type="matrix" values="0 0 0 0 0.603922 0 0 0 0 0.592157 0 0 0 0 1 0 0 0 0.45 0"/>
<feBlend mode="normal" in2="shape" result="effect1_innerShadow_2733_57133"/>
</filter>
<linearGradient id="paint0_linear_2733_57133" x1="-19.5714" y1="27" x2="62.1429" y2="158" gradientUnits="userSpaceOnUse">
<stop stop-color="#A79DFF"/>
<stop offset="1" stop-color="#6B70ED"/>
</linearGradient>
</defs>
</svg>
