<svg width="20" height="20" viewBox="0 0 20 20" fill="none" xmlns="http://www.w3.org/2000/svg">
    <path fill-rule="evenodd" clip-rule="evenodd" d="M8.496.643a4.366 4.366 0 0 1 2.885-.177c.423.12.78.267 1.326.722.547.456.833 1.116.632 1.076l-.053-.01c-.29-.058-.547-.11-.923-.144-.4-.038-.95.01-1.154.032-.966.102-1.595.497-2.082.803-.835.525-1.675 1.37-2.325 2.268a13.173 13.173 0 0 0-1.645 3.139c-.25.68-.429 1.454-.429 1.994 0 .282.021.714.231 1.139.389-.749 1.048-2.001 1.538-2.85.8-1.386 1.904-3.16 3.27-4.02 1.498-.943 3.39-.952 5.08.023 1.01.584 1.506 1.161 2.427 2.379.551.727.934 1.452 1.303 2.15.076.144.151.287.228.429.157.292.486 1.01.84 2.242.354 1.233.406 2.616.316 3.348a4.366 4.366 0 0 1-1.29 2.586c-.314.307-.62.542-1.289.788-.668.246-1.382.163-1.247.01l.035-.041c.196-.223.368-.42.587-.728.232-.327.465-.827.549-1.015.394-.888.367-1.63.345-2.205-.037-.985-.348-2.135-.802-3.148a13.171 13.171 0 0 0-1.895-2.993c-.465-.557-1.045-1.099-1.513-1.369-.233-.135-.596-.322-1.042-.364a84.147 84.147 0 0 1 1.71 2.772c.8 1.385 1.783 3.229 1.845 4.842.068 1.768-.87 3.412-2.56 4.387-1.01.583-1.758.724-3.273.913-.906.113-1.724.083-2.513.053l-.486-.017c-.332-.01-1.118-.084-2.362-.394-1.245-.309-2.468-.955-3.057-1.4a4.366 4.366 0 0 1-1.595-2.41c-.108-.426-.159-.808-.038-1.51.121-.701.55-1.278.616-1.085l.017.051c.095.28.18.529.337.872.168.364.484.817.605.983.571.785 1.228 1.133 1.736 1.402.873.46 2.024.765 3.127.88.954.097 2.181.09 3.54-.146.716-.124 1.475-.355 1.942-.625.25-.144.623-.385.887-.794-.83.037-2.308.097-3.323.097-1.6 0-3.688-.07-5.116-.823-1.565-.825-2.519-2.46-2.519-4.41 0-1.166.252-1.885.846-3.292.354-.84.79-1.534 1.21-2.202l.258-.412c.174-.283.632-.926 1.522-1.85C6.645 1.668 7.817.93 8.496.644zm4.32 12.188a7.229 7.229 0 0 0-.302-.601 196.87 196.87 0 0 0-2.422-4.213c-.138.183-.276.39-.415.623a197.67 197.67 0 0 0-2.402 4.14c.213.024.444.038.694.042 2.113.03 3.913.02 4.846.009z" fill="url(#5mzbcauo3a)"/>
    <defs>
        <linearGradient id="5mzbcauo3a" x1="-1.794" y1="7.405" x2="6.275" y2="21.729" gradientUnits="userSpaceOnUse">
            <stop stop-color="#A79DFF"/>
            <stop offset="1" stop-color="#6B70ED"/>
        </linearGradient>
    </defs>
</svg>
