<svg width="22" height="22" viewBox="0 0 22 22" fill="none" xmlns="http://www.w3.org/2000/svg">
<path d="M0.814637 8.46121L0.814669 8.46108C2.21655 2.83553 7.91432 -0.588046 13.5389 0.814318L13.5389 0.814325C19.1648 2.2167 22.5881 7.9148 21.1856 13.5401C19.7831 19.1649 14.0853 22.5883 8.45897 21.1855C2.83508 19.7831 -0.588535 14.0857 0.814637 8.46121Z" fill="white" stroke="#C4C4C4"/>
<path d="M10.7528 2L10.6322 2.41016V14.3122L10.7528 14.4326L16.2776 11.1669L10.7528 2Z" fill="#343434"/>
<path d="M10.7529 2L5.22809 11.1669L10.7529 14.4327V8.65579V2Z" fill="#8C8C8C"/>
<path d="M10.7528 15.4787L10.6848 15.5616V19.8014L10.7528 20L16.2809 12.2147L10.7528 15.4787Z" fill="#3C3C3B"/>
<path d="M10.7529 19.9999V15.4786L5.22809 12.2146L10.7529 19.9999Z" fill="#8C8C8C"/>
<path d="M10.7528 14.4326L16.2775 11.167L10.7528 8.65582V14.4326Z" fill="#141414"/>
<path d="M5.22813 11.167L10.7528 14.4326V8.65582L5.22813 11.167Z" fill="#393939"/>
</svg>
