<svg width="20" height="20" viewBox="0 0 20 20" fill="none" xmlns="http://www.w3.org/2000/svg">
    <path d="m18.578.748-7.435 5.523 1.375-3.259 6.06-2.264z" fill="#E2761B" stroke="#E2761B" stroke-width=".078" stroke-linecap="round" stroke-linejoin="round"/>
    <path d="M1.414.748 8.79 6.323l-1.308-3.31L1.414.747zm14.49 12.802-1.98 3.034 4.237 1.166 1.218-4.133-3.475-.067zM.63 13.617l1.21 4.133 4.238-1.166-1.98-3.034-3.468.067z" fill="#E4761B" stroke="#E4761B" stroke-width=".078" stroke-linecap="round" stroke-linejoin="round"/>
    <path d="m5.838 8.423-1.18 1.786 4.207.187-.15-4.521-2.877 2.548zm8.318 0-2.915-2.6-.097 4.573 4.2-.187-1.188-1.786zm-8.079 8.16 2.526-1.232-2.182-1.704-.344 2.937zm5.314-1.232 2.533 1.233-.351-2.937-2.182 1.704z" fill="#E4761B" stroke="#E4761B" stroke-width=".078" stroke-linecap="round" stroke-linejoin="round"/>
    <path d="M13.923 16.583 11.39 15.35 11.59 17l-.022.695 2.354-1.113zm-7.847 0 2.354 1.113-.015-.695.187-1.651-2.526 1.233z" fill="#D7C1B3" stroke="#D7C1B3" stroke-width=".078" stroke-linecap="round" stroke-linejoin="round"/>
    <path d="m8.468 12.554-2.108-.62 1.488-.68.62 1.3zm3.056 0 .62-1.3 1.495.68-2.115.62z" fill="#233447" stroke="#233447" stroke-width=".078" stroke-linecap="round" stroke-linejoin="round"/>
    <path d="m6.076 16.584.359-3.034-2.34.067 1.981 2.967zm7.488-3.034.359 3.034 1.98-2.967-2.339-.068zm1.779-3.341-4.2.187.388 2.16.62-1.3 1.495.68 1.697-1.727zM6.36 11.935l1.495-.68.613 1.3.396-2.16-4.208-.186 1.704 1.726z" fill="#CD6116" stroke="#CD6116" stroke-width=".078" stroke-linecap="round" stroke-linejoin="round"/>
    <path d="m4.657 10.209 1.764 3.438-.06-1.712-1.704-1.726zm8.99 1.726-.074 1.712 1.77-3.438-1.695 1.726zm-4.782-1.54-.396 2.16.493 2.549.112-3.355-.21-1.353zm2.279 0-.202 1.346.09 3.363.5-2.548-.388-2.16z" fill="#E4751F" stroke="#E4751F" stroke-width=".078" stroke-linecap="round" stroke-linejoin="round"/>
    <path d="m11.532 12.554-.5 2.548.358.247 2.182-1.704.075-1.711-2.115.62zm-5.172-.62.06 1.711 2.182 1.704.359-.247-.493-2.548-2.108-.62z" fill="#F6851B" stroke="#F6851B" stroke-width=".078" stroke-linecap="round" stroke-linejoin="round"/>
    <path d="m11.569 17.695.022-.695-.186-.164H8.587l-.172.165.015.694-2.354-1.113.822.673 1.667 1.158h2.862l1.674-1.158.822-.673-2.354 1.113z" fill="#C0AD9E" stroke="#C0AD9E" stroke-width=".078" stroke-linecap="round" stroke-linejoin="round"/>
    <path d="m11.39 15.35-.358-.246h-2.07l-.36.246-.186 1.652.172-.165h2.817l.187.165-.202-1.652z" fill="#161616" stroke="#161616" stroke-width=".078" stroke-linecap="round" stroke-linejoin="round"/>
    <path d="m18.894 6.63.635-3.05L18.58.748l-7.189 5.336 2.765 2.339 3.908 1.143.867-1.008-.373-.27.598-.545-.464-.359.598-.456-.396-.299zM.473 3.58l.635 3.05-.404.298.598.456-.456.359.598.545-.373.27.859 1.008 3.908-1.143 2.765-2.34L1.414.749.473 3.58z" fill="#763D16" stroke="#763D16" stroke-width=".078" stroke-linecap="round" stroke-linejoin="round"/>
    <path d="m18.064 9.568-3.909-1.144 1.189 1.786-1.772 3.438 2.332-.03h3.475l-1.315-4.05zM5.838 8.424 1.929 9.568l-1.3 4.05h3.467l2.325.03-1.764-3.438 1.18-1.786zm5.306 1.973.246-4.312 1.136-3.071H7.482l1.12 3.071.262 4.312.09 1.36.007 3.348h2.07l.015-3.348.098-1.36z" fill="#F6851B" stroke="#F6851B" stroke-width=".078" stroke-linecap="round" stroke-linejoin="round"/>
</svg>
