<svg width="39" height="9" viewBox="0 0 39 9" fill="none" xmlns="http://www.w3.org/2000/svg">
    <path fill-rule="evenodd" clip-rule="evenodd" d="M7.927 5.025a2.772 2.772 0 0 1-3.418-3.45H1.64a.799.799 0 0 0-.8.798v5.49c0 .44.359.798.8.798h5.489a.799.799 0 0 0 .799-.799V5.025z" fill="#000"/>
    <path d="M9.502 1.969a1.969 1.969 0 1 1-3.938 0 1.969 1.969 0 0 1 3.938 0z" fill="url(#9rmwvf2yka)"/>
    <path d="M17.903 5.614v2.989h1.241V5.614c0-1.837-.953-3.038-2.462-3.038-.735 0-1.39.437-1.609 1.043v-.974h-1.241v5.958h1.241V5.624c0-1.052.586-1.807 1.39-1.807.874 0 1.44.705 1.44 1.797zM19.974 5.614c0 1.728 1.28 3.048 2.928 3.048 1.649 0 2.92-1.32 2.92-3.048 0-1.717-1.271-3.038-2.92-3.038-1.648 0-2.928 1.32-2.928 3.038zm2.928-1.797c.954 0 1.678.775 1.678 1.797 0 1.033-.724 1.807-1.677 1.807-.954 0-1.688-.774-1.688-1.807 0-1.022.734-1.797 1.688-1.797zM27.583 1.385l-.298 1.26h-.883v1.172h.883v2.74c0 1.46.596 2.046 2.016 2.046h.516V7.372h-.397c-.616 0-.894-.268-.894-.884v-2.67h1.291V2.644h-1.29v-1.26h-.944zM31.922 8.603V2.645H30.68v5.958h1.242zM38.28 8.603V2.645h-3.416V2.21c0-.616.278-.894.894-.894h.397V.094h-.516c-1.42 0-2.016.576-2.016 2.045v.506h-.874v1.172h.874v4.786h1.241V3.817h2.175v4.786h1.24z" fill="#000"/>
    <path fill-rule="evenodd" clip-rule="evenodd" d="M31.159 0c-.351 0-.477.192-.477.466v.995h.973c.338 0 .488-.118.488-.452V.466c0-.312-.206-.466-.523-.466h-.462z" fill="#000"/>
    <defs>
        <linearGradient id="9rmwvf2yka" x1="8.722" y1=".307" x2="6.83" y2="3.937" gradientUnits="userSpaceOnUse">
            <stop stop-color="#FE7970"/>
            <stop offset="1" stop-color="#FEB776"/>
        </linearGradient>
    </defs>
</svg>
