<svg width="39" height="9" viewBox="0 0 39 9" fill="none" xmlns="http://www.w3.org/2000/svg">
    <path fill-rule="evenodd" clip-rule="evenodd" d="M7.927 5.026a2.772 2.772 0 0 1-3.418-3.45H1.64a.799.799 0 0 0-.8.798v5.49c0 .44.359.798.8.798h5.489a.799.799 0 0 0 .799-.799V5.026z" fill="#E6E9FC"/>
    <path d="M9.502 1.969a1.969 1.969 0 1 1-3.937 0 1.969 1.969 0 0 1 3.937 0z" fill="url(#yjmf6wpk0a)"/>
    <path d="M17.904 5.613v2.989h1.24V5.613c0-1.837-.952-3.038-2.462-3.038-.734 0-1.39.437-1.608 1.043v-.973h-1.241v5.957h1.24V5.623c0-1.052.587-1.807 1.39-1.807.875 0 1.44.705 1.44 1.797zM19.974 5.613c0 1.728 1.281 3.048 2.93 3.048 1.648 0 2.918-1.32 2.918-3.048 0-1.717-1.27-3.038-2.919-3.038-1.648 0-2.929 1.32-2.929 3.038zm2.93-1.797c.952 0 1.677.775 1.677 1.797 0 1.033-.725 1.807-1.678 1.807s-1.688-.774-1.688-1.807c0-1.022.735-1.797 1.688-1.797zM27.584 1.384l-.298 1.26h-.884v1.172h.884v2.74c0 1.46.596 2.046 2.016 2.046h.516V7.37h-.397c-.616 0-.894-.268-.894-.884v-2.67h1.29V2.644h-1.29V1.384h-.943zM31.922 8.602V2.645h-1.24v5.957h1.24zM38.28 8.602V2.645h-3.415v-.437c0-.616.278-.894.893-.894h.398V.093h-.517c-1.42 0-2.015.576-2.015 2.045v.507h-.874v1.171h.874v4.786h1.24V3.816h2.175v4.786h1.241z" fill="#E6E9FC"/>
    <path fill-rule="evenodd" clip-rule="evenodd" d="M31.158 0c-.351 0-.477.192-.477.466v.995h.973c.338 0 .488-.118.488-.452V.466c0-.312-.206-.466-.522-.466h-.462z" fill="#E6E9FC"/>
    <defs>
        <linearGradient id="yjmf6wpk0a" x1="8.722" y1=".307" x2="6.83" y2="3.937" gradientUnits="userSpaceOnUse">
            <stop stop-color="#FE7970"/>
            <stop offset="1" stop-color="#FEB776"/>
        </linearGradient>
    </defs>
</svg>
