<svg width="64" height="64" viewBox="0 0 64 64" fill="none" xmlns="http://www.w3.org/2000/svg">
<g filter="url(#filter0_ii_2684_42958)">
<circle cx="32" cy="32" r="32" fill="url(#paint0_linear_2684_42958)"/>
</g>
<g filter="url(#filter1_i_2684_42958)">
<path fill-rule="evenodd" clip-rule="evenodd" d="M28.6221 9.82856C30.9924 8.8258 33.2577 8.99865 34.8473 9.44743C35.7597 9.70505 36.5301 10.0236 37.71 11.0064C38.8899 11.9893 39.5061 13.4137 39.074 13.3278L38.9595 13.305L38.9595 13.305C38.3331 13.1802 37.7783 13.0696 36.9661 12.994C36.1049 12.9138 34.918 13.017 34.4763 13.0637C32.393 13.2843 31.0343 14.1359 29.9842 14.7967C28.1823 15.9304 26.3698 17.7516 24.966 19.6919C23.7532 21.3683 22.4448 23.6697 21.4173 26.4644C20.877 27.9339 20.4914 29.6027 20.4914 30.7678C20.4914 31.377 20.5369 32.3115 20.9922 33.2297C21.8301 31.616 23.2547 28.9066 24.3148 27.0706C26.0408 24.0809 28.4244 20.2532 31.3728 18.3966C34.6039 16.362 38.6876 16.3428 42.332 18.4469C44.5125 19.7058 45.5832 20.9526 47.5722 23.5801C48.7606 25.1498 49.5867 26.7133 50.3828 28.2199C50.5471 28.5308 50.7101 28.8393 50.8748 29.1449C51.2145 29.7756 51.9232 31.3256 52.688 33.985C53.4528 36.6444 53.5651 39.629 53.3693 41.2084C53.0526 43.7625 51.7702 45.6379 50.5868 46.7901C49.9074 47.4515 49.2464 47.9594 47.8053 48.4898C46.3641 49.0201 44.8225 48.8416 45.1129 48.5104L45.1899 48.4226L45.19 48.4225C45.6112 47.9425 45.9844 47.5172 46.4559 46.8518C46.956 46.146 47.4601 45.0665 47.6405 44.6607C48.4911 42.7462 48.4329 41.1437 48.3857 39.9039C48.3048 37.7766 47.6339 35.2963 46.6554 33.1104C45.8101 31.222 44.4712 28.9381 42.5647 26.6509C41.5622 25.4482 40.3097 24.2799 39.3007 23.6973C38.794 23.4048 38.0064 22.9985 37.0386 22.9095C38.0146 24.4373 39.6654 27.0511 40.7334 28.901C42.4595 31.8907 44.5825 35.8687 44.7162 39.3504C44.8627 43.1659 42.8375 46.7121 39.1931 48.8162C37.0126 50.0751 35.3975 50.379 32.1275 50.7878C30.1739 51.0321 28.4068 50.9658 26.704 50.9019C26.3526 50.8888 26.004 50.8757 25.6569 50.8654C24.9409 50.8443 23.2442 50.6832 20.5587 50.0158C17.8732 49.3484 15.2323 47.9533 13.9624 46.994C11.9089 45.4427 10.9259 43.3944 10.5198 41.7935C10.2867 40.8744 10.1773 40.0481 10.4386 38.5348C10.6998 37.0215 11.6252 35.7757 11.7669 36.1928C11.7795 36.2299 11.792 36.2668 11.8044 36.3034C12.0095 36.9082 12.1912 37.444 12.5318 38.1852C12.893 38.9711 13.5757 39.9475 13.8371 40.3066C15.0698 42.0005 16.4866 42.7513 17.5839 43.3304C19.4667 44.324 21.9501 44.9831 24.3324 45.2286C26.3905 45.4408 29.0379 45.4233 31.9719 44.9157C33.5147 44.6489 35.1527 44.1484 36.1617 43.5659C36.6999 43.2552 37.5075 42.7341 38.0773 41.8493C36.2882 41.9304 33.096 42.0594 30.9057 42.0594C27.4535 42.0594 22.9469 41.909 19.8648 40.2839C16.4872 38.503 14.4287 34.9761 14.4287 30.7678C14.4287 28.2501 14.9732 26.6994 16.2541 23.6631C17.0194 21.849 17.9603 20.3519 18.867 18.9092C19.0541 18.6114 19.2398 18.316 19.4221 18.0206C19.7984 17.4111 20.7864 16.0223 22.7071 14.0302C24.6278 12.0382 27.1565 10.4486 28.6221 9.82856ZM37.9413 36.131C37.7603 35.7216 37.5452 35.2908 37.2921 34.8375C35.0593 30.8382 33.0887 27.4736 32.0663 25.7465C31.7712 26.1402 31.4742 26.5838 31.1766 27.0826C28.8875 30.9186 26.9966 34.2367 25.9913 36.021C26.45 36.0722 26.9469 36.1031 27.4852 36.1109C32.0425 36.1766 35.9257 36.1529 37.9413 36.131Z" fill="white"/>
</g>
<defs>
<filter id="filter0_ii_2684_42958" x="-0.975238" y="-0.975238" width="65.9505" height="65.9505" filterUnits="userSpaceOnUse" color-interpolation-filters="sRGB">
<feFlood flood-opacity="0" result="BackgroundImageFix"/>
<feBlend mode="normal" in="SourceGraphic" in2="BackgroundImageFix" result="shape"/>
<feColorMatrix in="SourceAlpha" type="matrix" values="0 0 0 0 0 0 0 0 0 0 0 0 0 0 0 0 0 0 127 0" result="hardAlpha"/>
<feOffset dx="0.975238" dy="0.975238"/>
<feGaussianBlur stdDeviation="0.487619"/>
<feComposite in2="hardAlpha" operator="arithmetic" k2="-1" k3="1"/>
<feColorMatrix type="matrix" values="0 0 0 0 1 0 0 0 0 1 0 0 0 0 1 0 0 0 0.25 0"/>
<feBlend mode="normal" in2="shape" result="effect1_innerShadow_2684_42958"/>
<feColorMatrix in="SourceAlpha" type="matrix" values="0 0 0 0 0 0 0 0 0 0 0 0 0 0 0 0 0 0 127 0" result="hardAlpha"/>
<feOffset dx="-0.975238" dy="-0.975238"/>
<feGaussianBlur stdDeviation="0.487619"/>
<feComposite in2="hardAlpha" operator="arithmetic" k2="-1" k3="1"/>
<feColorMatrix type="matrix" values="0 0 0 0 0.355716 0 0 0 0 0.305851 0 0 0 0 0.929167 0 0 0 0.35 0"/>
<feBlend mode="normal" in2="effect1_innerShadow_2684_42958" result="effect2_innerShadow_2684_42958"/>
</filter>
<filter id="filter1_i_2684_42958" x="10.2871" y="9.09082" width="43.4346" height="42.1377" filterUnits="userSpaceOnUse" color-interpolation-filters="sRGB">
<feFlood flood-opacity="0" result="BackgroundImageFix"/>
<feBlend mode="normal" in="SourceGraphic" in2="BackgroundImageFix" result="shape"/>
<feColorMatrix in="SourceAlpha" type="matrix" values="0 0 0 0 0 0 0 0 0 0 0 0 0 0 0 0 0 0 127 0" result="hardAlpha"/>
<feOffset dx="0.267608" dy="0.267608"/>
<feGaussianBlur stdDeviation="0.936629"/>
<feComposite in2="hardAlpha" operator="arithmetic" k2="-1" k3="1"/>
<feColorMatrix type="matrix" values="0 0 0 0 0.603922 0 0 0 0 0.592157 0 0 0 0 1 0 0 0 0.45 0"/>
<feBlend mode="normal" in2="shape" result="effect1_innerShadow_2684_42958"/>
</filter>
<linearGradient id="paint0_linear_2684_42958" x1="-8.35048" y1="11.52" x2="26.5143" y2="67.4133" gradientUnits="userSpaceOnUse">
<stop stop-color="#A79DFF"/>
<stop offset="1" stop-color="#6B70ED"/>
</linearGradient>
</defs>
</svg>
