<svg width="64" height="65" viewBox="0 0 64 65" fill="none" xmlns="http://www.w3.org/2000/svg">
<path d="M56 28C56 42.9117 43.9117 55 29 55C14.0883 55 2 42.9117 2 28C2 13.0883 14.0883 1 29 1C43.9117 1 56 13.0883 56 28Z" fill="white"/>
<path fill-rule="evenodd" clip-rule="evenodd" d="M29 51.3182C41.8783 51.3182 52.3182 40.8783 52.3182 28C52.3182 15.1217 41.8783 4.68182 29 4.68182C16.1217 4.68182 5.68182 15.1217 5.68182 28C5.68182 40.8783 16.1217 51.3182 29 51.3182ZM29 55C43.9117 55 56 42.9117 56 28C56 13.0883 43.9117 1 29 1C14.0883 1 2 13.0883 2 28C2 42.9117 14.0883 55 29 55Z" fill="#D9D9D9"/>
<path fill-rule="evenodd" clip-rule="evenodd" d="M29 51.3182C41.8783 51.3182 52.3182 40.8783 52.3182 28C52.3182 15.1217 41.8783 4.68182 29 4.68182C16.1217 4.68182 5.68182 15.1217 5.68182 28C5.68182 40.8783 16.1217 51.3182 29 51.3182ZM29 55C43.9117 55 56 42.9117 56 28C56 13.0883 43.9117 1 29 1C14.0883 1 2 13.0883 2 28C2 42.9117 14.0883 55 29 55Z" fill="url(#paint0_linear_2706_41753)"/>
<g filter="url(#filter0_i_2706_41753)">
<path fill-rule="evenodd" clip-rule="evenodd" d="M26.2699 10.3621C28.1706 9.55799 29.9872 9.69659 31.2619 10.0565C31.9936 10.2631 32.6113 10.5185 33.5575 11.3067C34.5037 12.0948 34.9978 13.237 34.6513 13.1682L34.5595 13.1499C34.0572 13.0498 33.6123 12.9611 32.961 12.9005C32.2703 12.8362 31.3186 12.9189 30.9644 12.9564C29.2938 13.1333 28.2043 13.8162 27.3622 14.346C25.9172 15.2552 24.4638 16.7156 23.3381 18.2716C22.3655 19.6158 21.3162 21.4613 20.4923 23.7024C20.0591 24.8809 19.7498 26.2191 19.7498 27.1534C19.7498 27.6422 19.7864 28.3923 20.1522 29.1291C20.824 27.8352 21.9669 25.6617 22.8171 24.189C24.2013 21.7916 26.1127 18.7222 28.477 17.2334C31.068 15.6018 34.3428 15.5864 37.2652 17.2737C39.0137 18.2832 39.8724 19.283 41.4674 21.39C42.4203 22.6488 43.0828 23.9025 43.7212 25.1106C43.8529 25.36 43.9836 25.6074 44.1157 25.8525C44.3881 26.3582 44.9565 27.6011 45.5698 29.7337C46.1831 31.8663 46.2731 34.2597 46.116 35.5262C45.8621 37.5743 44.8337 39.0782 43.8848 40.0022C43.34 40.5326 42.8099 40.9398 41.6543 41.3651C40.4986 41.7905 39.2624 41.6473 39.4952 41.3817L39.557 41.3113L39.557 41.3113C39.8948 40.9263 40.1941 40.5853 40.5722 40.0516C40.9732 39.4857 41.3775 38.6201 41.5221 38.2946C42.2042 36.7593 42.1575 35.4744 42.1197 34.4802C42.0549 32.7742 41.5169 30.7853 40.7322 29.0324C40.0543 27.518 38.9807 25.6866 37.4518 23.8525C36.6479 22.8881 35.6436 21.9511 34.8344 21.484C34.4279 21.2493 33.7959 20.9234 33.0194 20.8521C33.8021 22.0775 35.1252 24.1726 35.9814 25.6555C37.3655 28.0529 39.068 31.2429 39.1752 34.035C39.2927 37.0946 37.6687 39.9383 34.7462 41.6256C32.9977 42.6351 31.7025 42.8788 29.0803 43.2066C27.5137 43.4025 26.0967 43.3494 24.7312 43.2981C24.4494 43.2876 24.1698 43.2771 23.8915 43.2689C23.3173 43.2519 21.9568 43.1227 19.8032 42.5875C17.6497 42.0523 15.5319 40.9336 14.5137 40.1644C12.8669 38.9204 12.0786 37.2778 11.753 35.994C11.566 35.2571 11.4784 34.5944 11.6879 33.3809C11.8974 32.1674 12.6395 31.1683 12.7531 31.5028C12.7632 31.5326 12.7732 31.5622 12.7831 31.5915C12.9476 32.0765 13.0933 32.5062 13.3664 33.1005C13.6561 33.7308 14.2036 34.5137 14.4131 34.8017C15.4016 36.16 16.5378 36.7621 17.4177 37.2265C18.9275 38.0233 20.919 38.5518 22.8294 38.7487C24.4798 38.9188 26.6027 38.9048 28.9555 38.4978C30.1927 38.2838 31.5062 37.8825 32.3154 37.4153C32.7467 37.1663 33.394 36.7487 33.8509 36.0397C32.4159 36.1047 29.857 36.2081 28.1011 36.2081C25.3328 36.2081 21.7189 36.0875 19.2474 34.7844C16.5389 33.3563 14.8882 30.528 14.8882 27.1534C14.8882 25.1344 15.3248 23.8909 16.3519 21.4561C16.9656 20.0014 17.7201 18.8008 18.4472 17.6439L18.4472 17.6439C18.5973 17.4051 18.7462 17.1682 18.8924 16.9313C19.1941 16.4425 19.9864 15.3289 21.5266 13.7314C23.0669 12.134 25.0946 10.8593 26.2699 10.3621ZM33.7427 31.4541C33.5975 31.1256 33.4249 30.7798 33.2218 30.416C31.4323 27.2106 29.8528 24.5137 29.0325 23.1281C28.7961 23.4436 28.5581 23.799 28.3196 24.1987C26.4842 27.2745 24.9679 29.9352 24.1617 31.366C24.5292 31.407 24.9271 31.4318 25.3582 31.438C29.0125 31.4907 32.1264 31.4717 33.7427 31.4541Z" fill="url(#paint1_linear_2706_41753)"/>
</g>
<g filter="url(#filter1_d_2706_41753)">
<path fill-rule="evenodd" clip-rule="evenodd" d="M58.46 45C58.46 52.7321 52.192 59 44.46 59C36.728 59 30.46 52.7321 30.46 45C30.46 37.268 36.728 31 44.46 31C52.192 31 58.46 37.268 58.46 45Z" fill="#E84142"/>
<path fill-rule="evenodd" clip-rule="evenodd" d="M39.8869 51.1455H36.8902C36.2605 51.1455 35.9495 51.1455 35.7598 51.0242C35.555 50.8914 35.4298 50.6714 35.4146 50.4286C35.4033 50.2049 35.5588 49.9317 35.8698 49.3854L43.2691 36.3433C43.5839 35.7895 43.7432 35.5126 43.9443 35.4101C44.1605 35.3001 44.4184 35.3001 44.6347 35.4101C44.8357 35.5126 44.995 35.7895 45.3098 36.3433L46.831 38.9986L46.8387 39.0121C47.1788 39.6063 47.3512 39.9076 47.4265 40.2238C47.51 40.569 47.51 40.9332 47.4265 41.2784C47.3507 41.597 47.18 41.9005 46.8348 42.5036L42.9481 49.3741L42.9381 49.3917C42.5958 49.9907 42.4223 50.2943 42.1819 50.5234C41.9202 50.7738 41.6053 50.9558 41.2601 51.0584C40.9453 51.1455 40.5925 51.1455 39.8869 51.1455Z" fill="white"/>
<path fill-rule="evenodd" clip-rule="evenodd" d="M47.4554 51.1454H51.7493C52.3828 51.1454 52.7015 51.1454 52.8913 51.0204C53.0961 50.8876 53.225 50.6637 53.2365 50.4211C53.2474 50.2046 53.0953 49.942 52.7971 49.4275C52.7868 49.41 52.7766 49.3922 52.7661 49.3741L50.6152 45.6946L50.5907 45.6531C50.2885 45.142 50.1359 44.8839 49.94 44.7842C49.7239 44.6742 49.4696 44.6742 49.2534 44.7842C49.0562 44.8866 48.8969 45.1559 48.582 45.6984L46.4388 49.3779L46.4315 49.3905C46.1177 49.9321 45.9609 50.2027 45.9723 50.4248C45.9874 50.6676 46.1126 50.8913 46.3174 51.0241C46.5033 51.1454 46.8219 51.1454 47.4554 51.1454Z" fill="white"/>
</g>
<defs>
<filter id="filter0_i_2706_41753" x="11.5664" y="9.77051" width="34.7904" height="33.7484" filterUnits="userSpaceOnUse" color-interpolation-filters="sRGB">
<feFlood flood-opacity="0" result="BackgroundImageFix"/>
<feBlend mode="normal" in="SourceGraphic" in2="BackgroundImageFix" result="shape"/>
<feColorMatrix in="SourceAlpha" type="matrix" values="0 0 0 0 0 0 0 0 0 0 0 0 0 0 0 0 0 0 127 0" result="hardAlpha"/>
<feOffset dx="0.173184" dy="0.173184"/>
<feGaussianBlur stdDeviation="0.606142"/>
<feComposite in2="hardAlpha" operator="arithmetic" k2="-1" k3="1"/>
<feColorMatrix type="matrix" values="0 0 0 0 0.603922 0 0 0 0 0.592157 0 0 0 0 1 0 0 0 0.45 0"/>
<feBlend mode="normal" in2="shape" result="effect1_innerShadow_2706_41753"/>
</filter>
<filter id="filter1_d_2706_41753" x="20.2781" y="20.8182" width="43.2727" height="43.2727" filterUnits="userSpaceOnUse" color-interpolation-filters="sRGB">
<feFlood flood-opacity="0" result="BackgroundImageFix"/>
<feColorMatrix in="SourceAlpha" type="matrix" values="0 0 0 0 0 0 0 0 0 0 0 0 0 0 0 0 0 0 127 0" result="hardAlpha"/>
<feOffset dx="-2.54545" dy="-2.54545"/>
<feGaussianBlur stdDeviation="3.81818"/>
<feColorMatrix type="matrix" values="0 0 0 0 0.17225 0 0 0 0 0 0 0 0 0 0.6625 0 0 0 0.15 0"/>
<feBlend mode="normal" in2="BackgroundImageFix" result="effect1_dropShadow_2706_41753"/>
<feBlend mode="normal" in="SourceGraphic" in2="effect1_dropShadow_2706_41753" result="shape"/>
</filter>
<linearGradient id="paint0_linear_2706_41753" x1="-2.84262" y1="20.7737" x2="19.9647" y2="60.0493" gradientUnits="userSpaceOnUse">
<stop stop-color="#ABA1FF"/>
<stop offset="1" stop-color="#878CFF"/>
</linearGradient>
<linearGradient id="paint1_linear_2706_41753" x1="8.46198" y1="22.065" x2="22.4245" y2="46.8559" gradientUnits="userSpaceOnUse">
<stop stop-color="#9D92FF"/>
<stop offset="1" stop-color="#7075FD"/>
</linearGradient>
</defs>
</svg>
