<svg width="64" height="64" viewBox="0 0 64 64" fill="none" xmlns="http://www.w3.org/2000/svg">
<path d="M64 32C64 49.6731 49.6731 64 32 64C14.3269 64 0 49.6731 0 32C0 14.3269 14.3269 0 32 0C49.6731 0 64 14.3269 64 32Z" fill="white"/>
<path fill-rule="evenodd" clip-rule="evenodd" d="M32 59.6364C47.2631 59.6364 59.6364 47.2631 59.6364 32C59.6364 16.7369 47.2631 4.36364 32 4.36364C16.7369 4.36364 4.36364 16.7369 4.36364 32C4.36364 47.2631 16.7369 59.6364 32 59.6364ZM32 64C49.6731 64 64 49.6731 64 32C64 14.3269 49.6731 0 32 0C14.3269 0 0 14.3269 0 32C0 49.6731 14.3269 64 32 64Z" fill="#D9D9D9"/>
<path fill-rule="evenodd" clip-rule="evenodd" d="M32 59.6364C47.2631 59.6364 59.6364 47.2631 59.6364 32C59.6364 16.7369 47.2631 4.36364 32 4.36364C16.7369 4.36364 4.36364 16.7369 4.36364 32C4.36364 47.2631 16.7369 59.6364 32 59.6364ZM32 64C49.6731 64 64 49.6731 64 32C64 14.3269 49.6731 0 32 0C14.3269 0 0 14.3269 0 32C0 49.6731 14.3269 64 32 64Z" fill="url(#paint0_linear_2684_42959)"/>
<g filter="url(#filter0_i_2684_42959)">
<path fill-rule="evenodd" clip-rule="evenodd" d="M28.7628 11.0957C31.0155 10.1427 33.1685 10.3069 34.6792 10.7335C35.5464 10.9783 36.2785 11.281 37.3999 12.2152C38.5213 13.1493 39.1069 14.503 38.6963 14.4214L38.5875 14.3997C37.9922 14.2811 37.4648 14.176 36.6929 14.1042C35.8744 14.0279 34.7463 14.1259 34.3266 14.1704C32.3466 14.3801 31.0553 15.1894 30.0573 15.8174C28.3448 16.8949 26.6221 18.6257 25.288 20.4698C24.1353 22.0631 22.8918 24.2503 21.9152 26.9064C21.4017 28.3031 21.0352 29.8891 21.0352 30.9964C21.0352 31.5759 21.0786 32.4652 21.5125 33.3387C22.3086 31.8053 23.6635 29.2286 24.6715 27.4827C26.3119 24.6413 28.5773 21.0035 31.3795 19.2389C34.4503 17.3052 38.3315 17.287 41.7952 19.2868C43.8675 20.4832 44.8851 21.6682 46.7755 24.1653C47.9049 25.6572 48.69 27.1431 49.4466 28.5749L49.4466 28.575C49.6028 28.8705 49.7577 29.1637 49.9142 29.4542C50.2371 30.0536 50.9107 31.5267 51.6375 34.0542C52.3644 36.5817 52.4711 39.4183 52.285 40.9193C51.984 43.3468 50.7652 45.1292 49.6405 46.2242C48.9949 46.8528 48.3666 47.3355 46.9969 47.8396C45.6273 48.3437 44.1621 48.174 44.4381 47.8592L44.5113 47.7757L44.5113 47.7757C44.9117 47.3195 45.2664 46.9153 45.7145 46.2828C46.1898 45.6121 46.6689 44.5861 46.8403 44.2004C47.6487 42.3808 47.5934 40.8579 47.5486 39.6796C47.4717 37.6578 46.8341 35.3005 45.9041 33.223C45.1007 31.4282 43.8282 29.2576 42.0163 27.0838C41.0635 25.9408 39.8731 24.8304 38.9142 24.2767C38.4321 23.9984 37.6823 23.6117 36.7611 23.5277C37.6887 24.9799 39.2573 27.4635 40.2722 29.2214C41.9127 32.0628 43.9305 35.8436 44.0575 39.1526C44.1967 42.7789 42.2719 46.1492 38.8083 48.149C36.736 49.3454 35.2009 49.6342 32.0931 50.0228C30.2364 50.2549 28.557 50.1919 26.9386 50.1312C26.6047 50.1187 26.2733 50.1063 25.9435 50.0965C25.263 50.0765 23.6504 49.9233 21.0981 49.289C18.5458 48.6547 16.0358 47.3288 14.829 46.4171C12.8773 44.9428 11.943 42.9961 11.5571 41.4745C11.3355 40.6011 11.2316 39.8157 11.4799 38.3774C11.7282 36.9392 12.6077 35.7552 12.7423 36.1516C12.7543 36.1869 12.7662 36.2219 12.778 36.2567C12.9729 36.8315 13.1456 37.3408 13.4693 38.0452C13.8126 38.7922 14.4615 39.7201 14.7098 40.0614C15.8814 41.6713 17.228 42.3848 18.2708 42.9352C20.0602 43.8795 22.4205 44.506 24.6846 44.7393C26.6407 44.9409 29.1567 44.9243 31.9452 44.4419C33.4115 44.1883 34.9683 43.7126 35.9273 43.159C36.4386 42.8638 37.2058 42.3689 37.7473 41.5284C36.0466 41.6055 33.014 41.728 30.9331 41.728C27.6521 41.728 23.369 41.5851 20.4397 40.0406C17.2297 38.348 15.2733 34.996 15.2733 30.9964C15.2733 28.6036 15.7907 27.1298 17.0081 24.2441C17.7354 22.52 18.6297 21.0971 19.4914 19.7259C19.6693 19.443 19.8457 19.1622 20.019 18.8814C20.3767 18.3021 21.3156 16.9822 23.1411 15.089C24.9666 13.1957 27.3698 11.685 28.7628 11.0957ZM37.6189 36.0937C37.4468 35.7043 37.2422 35.2946 37.0016 34.8635C34.8809 31.065 33.0091 27.869 32.0368 26.2266C31.7569 26.6002 31.4753 27.0211 31.193 27.4941C29.0174 31.1399 27.2202 34.2936 26.2648 35.9893C26.7001 36.0378 27.1716 36.0672 27.6822 36.0745C32.0129 36.137 35.7031 36.1144 37.6189 36.0937Z" fill="url(#paint1_linear_2684_42959)"/>
</g>
<defs>
<filter id="filter0_i_2684_42959" x="11.3359" y="10.3945" width="41.2346" height="39.9982" filterUnits="userSpaceOnUse" color-interpolation-filters="sRGB">
<feFlood flood-opacity="0" result="BackgroundImageFix"/>
<feBlend mode="normal" in="SourceGraphic" in2="BackgroundImageFix" result="shape"/>
<feColorMatrix in="SourceAlpha" type="matrix" values="0 0 0 0 0 0 0 0 0 0 0 0 0 0 0 0 0 0 127 0" result="hardAlpha"/>
<feOffset dx="0.205255" dy="0.205255"/>
<feGaussianBlur stdDeviation="0.718391"/>
<feComposite in2="hardAlpha" operator="arithmetic" k2="-1" k3="1"/>
<feColorMatrix type="matrix" values="0 0 0 0 0.603922 0 0 0 0 0.592157 0 0 0 0 1 0 0 0 0.45 0"/>
<feBlend mode="normal" in2="shape" result="effect1_innerShadow_2684_42959"/>
</filter>
<linearGradient id="paint0_linear_2684_42959" x1="-5.7394" y1="23.4354" x2="21.2914" y2="69.9844" gradientUnits="userSpaceOnUse">
<stop stop-color="#ABA1FF"/>
<stop offset="1" stop-color="#878CFF"/>
</linearGradient>
<linearGradient id="paint1_linear_2684_42959" x1="7.65649" y1="24.9659" x2="24.2045" y2="54.3483" gradientUnits="userSpaceOnUse">
<stop stop-color="#9D92FF"/>
<stop offset="1" stop-color="#7075FD"/>
</linearGradient>
</defs>
</svg>
