<svg width="64" height="64" viewBox="0 0 64 64" fill="none" xmlns="http://www.w3.org/2000/svg">
<g filter="url(#filter0_ii_2684_42959)">
<circle cx="32" cy="32" r="32" fill="url(#paint0_linear_2684_42959)"/>
</g>
<g filter="url(#filter1_i_2684_42959)">
<path fill-rule="evenodd" clip-rule="evenodd" d="M29.3755 14.9171C31.1799 14.1537 32.9045 14.2853 34.1146 14.6269C34.8092 14.8231 35.3957 15.0655 36.2939 15.8138C37.1922 16.5621 37.6613 17.6464 37.3323 17.581L37.2452 17.5637C36.7683 17.4687 36.3459 17.3845 35.7276 17.3269C35.072 17.2659 34.1684 17.3444 33.8322 17.38C32.2462 17.5479 31.2119 18.1962 30.4124 18.6992C29.0407 19.5623 27.6608 20.9487 26.5921 22.4259C25.6689 23.7021 24.6727 25.4541 23.8905 27.5817C23.4792 28.7004 23.1857 29.9709 23.1857 30.8578C23.1857 31.3216 23.2203 32.0331 23.567 32.7322C24.2049 31.5037 25.2895 29.4409 26.0966 28.043C27.4106 25.767 29.2252 22.8531 31.4698 21.4397C33.9296 19.8908 37.0384 19.8761 39.8129 21.478C41.4728 22.4363 42.2879 23.3855 43.8022 25.3858C44.7069 26.5808 45.3358 27.771 45.9418 28.918C46.0669 29.1547 46.191 29.3895 46.3163 29.6222C46.5749 30.1023 47.1145 31.2823 47.6967 33.3069C48.279 35.3314 48.3644 37.6036 48.2153 38.8059C47.9742 40.7503 46.998 42.178 46.0971 43.0552C45.5799 43.5587 45.0767 43.9453 43.9796 44.3491C42.8824 44.7529 41.7088 44.617 41.9299 44.3648L41.9885 44.298L41.9886 44.2979C42.3093 43.9325 42.5933 43.6088 42.9523 43.1021C43.333 42.5648 43.7168 41.7431 43.8541 41.4341C44.5017 39.9766 44.4573 38.7567 44.4214 37.8129C44.3599 36.1934 43.8491 34.3052 43.1042 32.6411C42.4606 31.2034 41.4414 29.4647 39.99 27.7235C39.2268 26.808 38.2733 25.9185 37.5052 25.475C37.1192 25.2522 36.5191 24.9427 35.7818 24.8751C36.5248 26.0383 37.7813 28.0278 38.5943 29.436C39.9083 31.712 41.5246 34.7404 41.6263 37.391C41.7379 40.2957 40.1961 42.9953 37.4216 44.5972C35.7617 45.5555 34.5321 45.7868 32.0428 46.0981C30.5555 46.284 29.2103 46.2336 27.914 46.185C27.6464 46.1749 27.381 46.165 27.1168 46.1572C26.5717 46.1411 25.2801 46.0184 23.2356 45.5103C21.1912 45.0023 19.1807 43.9402 18.214 43.2099C16.6506 42.0289 15.9023 40.4696 15.5931 39.2508C15.4157 38.5512 15.3324 37.9221 15.5313 36.77C15.7302 35.618 16.4347 34.6696 16.5426 34.9871C16.5522 35.0154 16.5617 35.0435 16.5711 35.0713C16.7273 35.5318 16.8656 35.9397 17.1249 36.5039C17.3998 37.1022 17.9196 37.8455 18.1186 38.1189C19.057 39.4084 20.1356 39.98 20.9709 40.4209C22.4043 41.1773 24.2949 41.6791 26.1085 41.866C27.6753 42.0275 29.6907 42.0141 31.9243 41.6278C33.0988 41.4246 34.3458 41.0436 35.114 40.6001C35.5235 40.3637 36.138 39.9672 36.5718 39.2941C35.2094 39.3558 32.7806 39.4539 31.1139 39.4539C28.4858 39.4539 25.055 39.3394 22.7086 38.1023C20.1374 36.7465 18.5703 34.0615 18.5703 30.8578C18.5703 28.9411 18.9847 27.7606 19.9599 25.4491C20.5425 24.0681 21.2588 22.9284 21.949 21.83C22.0915 21.6034 22.2328 21.3785 22.3717 21.1536C22.6581 20.6895 23.4102 19.6323 24.8725 18.1158C26.3347 16.5992 28.2597 15.3891 29.3755 14.9171ZM36.469 34.9407C36.3311 34.6289 36.1673 34.3007 35.9745 33.9554C34.2753 30.9119 32.7756 28.3512 31.997 27.036C31.7726 27.3355 31.5468 27.6729 31.3204 28.0522C29.5777 30.9725 28.1381 33.4987 27.3728 34.857C27.722 34.8959 28.1002 34.9195 28.5099 34.9254C31.9786 34.9754 34.9343 34.9574 36.469 34.9407Z" fill="white"/>
</g>
<g filter="url(#filter2_i_2684_42959)">
<path fill-rule="evenodd" clip-rule="evenodd" d="M32.0589 55.5549C45.1678 55.5549 55.7947 44.9281 55.7947 31.8192C55.7947 18.7103 45.1678 8.08347 32.0589 8.08347C18.9501 8.08347 8.32322 18.7103 8.32322 31.8192C8.32322 44.9281 18.9501 55.5549 32.0589 55.5549ZM32.0589 59.3332C47.2545 59.3332 59.573 47.0148 59.573 31.8192C59.573 16.6236 47.2545 4.30518 32.0589 4.30518C16.8634 4.30518 4.54492 16.6236 4.54492 31.8192C4.54492 47.0148 16.8634 59.3332 32.0589 59.3332Z" fill="white"/>
</g>
<defs>
<filter id="filter0_ii_2684_42959" x="-0.97433" y="-0.97433" width="65.9487" height="65.9487" filterUnits="userSpaceOnUse" color-interpolation-filters="sRGB">
<feFlood flood-opacity="0" result="BackgroundImageFix"/>
<feBlend mode="normal" in="SourceGraphic" in2="BackgroundImageFix" result="shape"/>
<feColorMatrix in="SourceAlpha" type="matrix" values="0 0 0 0 0 0 0 0 0 0 0 0 0 0 0 0 0 0 127 0" result="hardAlpha"/>
<feOffset dx="0.97433" dy="0.97433"/>
<feGaussianBlur stdDeviation="0.487165"/>
<feComposite in2="hardAlpha" operator="arithmetic" k2="-1" k3="1"/>
<feColorMatrix type="matrix" values="0 0 0 0 1 0 0 0 0 1 0 0 0 0 1 0 0 0 0.25 0"/>
<feBlend mode="normal" in2="shape" result="effect1_innerShadow_2684_42959"/>
<feColorMatrix in="SourceAlpha" type="matrix" values="0 0 0 0 0 0 0 0 0 0 0 0 0 0 0 0 0 0 127 0" result="hardAlpha"/>
<feOffset dx="-0.97433" dy="-0.97433"/>
<feGaussianBlur stdDeviation="0.487165"/>
<feComposite in2="hardAlpha" operator="arithmetic" k2="-1" k3="1"/>
<feColorMatrix type="matrix" values="0 0 0 0 0.355716 0 0 0 0 0.305851 0 0 0 0 0.929167 0 0 0 0.35 0"/>
<feBlend mode="normal" in2="effect1_innerShadow_2684_42959" result="effect2_innerShadow_2684_42959"/>
</filter>
<filter id="filter1_i_2684_42959" x="15.416" y="14.3555" width="33.0275" height="32.0388" filterUnits="userSpaceOnUse" color-interpolation-filters="sRGB">
<feFlood flood-opacity="0" result="BackgroundImageFix"/>
<feBlend mode="normal" in="SourceGraphic" in2="BackgroundImageFix" result="shape"/>
<feColorMatrix in="SourceAlpha" type="matrix" values="0 0 0 0 0 0 0 0 0 0 0 0 0 0 0 0 0 0 127 0" result="hardAlpha"/>
<feOffset dx="0.164258" dy="0.164258"/>
<feGaussianBlur stdDeviation="0.574903"/>
<feComposite in2="hardAlpha" operator="arithmetic" k2="-1" k3="1"/>
<feColorMatrix type="matrix" values="0 0 0 0 0.603922 0 0 0 0 0.592157 0 0 0 0 1 0 0 0 0.45 0"/>
<feBlend mode="normal" in2="shape" result="effect1_innerShadow_2684_42959"/>
</filter>
<filter id="filter2_i_2684_42959" x="4.54492" y="4.30518" width="55.1926" height="55.1921" filterUnits="userSpaceOnUse" color-interpolation-filters="sRGB">
<feFlood flood-opacity="0" result="BackgroundImageFix"/>
<feBlend mode="normal" in="SourceGraphic" in2="BackgroundImageFix" result="shape"/>
<feColorMatrix in="SourceAlpha" type="matrix" values="0 0 0 0 0 0 0 0 0 0 0 0 0 0 0 0 0 0 127 0" result="hardAlpha"/>
<feOffset dx="0.164258" dy="0.164258"/>
<feGaussianBlur stdDeviation="0.574903"/>
<feComposite in2="hardAlpha" operator="arithmetic" k2="-1" k3="1"/>
<feColorMatrix type="matrix" values="0 0 0 0 0.603922 0 0 0 0 0.592157 0 0 0 0 1 0 0 0 0.45 0"/>
<feBlend mode="normal" in2="shape" result="effect1_innerShadow_2684_42959"/>
</filter>
<linearGradient id="paint0_linear_2684_42959" x1="-8.35048" y1="11.52" x2="26.5143" y2="67.4133" gradientUnits="userSpaceOnUse">
<stop stop-color="#A79DFF"/>
<stop offset="1" stop-color="#6B70ED"/>
</linearGradient>
</defs>
</svg>
