<?xml version="1.0" standalone="yes"?>
<svg xmlns="http://www.w3.org/2000/svg" width="2251" height="2251">

<path style="fill:#f569bf; stroke:none;" d="M1105 310.424C1084.64 313.097 1063.52 312.184 1043 314.17C998.594 318.467 954.002 326.471 911 338.424C710.163 394.252 536.85 524.021 427.811 702C378.633 782.27 344.056 871.738 325.6 964C260.315 1290.36 403.626 1634.76 686 1813.95C763.182 1862.93 848.039 1899.02 937 1920.12C1033.95 1943.1 1135.38 1947.69 1234 1934.72C1406.96 1911.98 1568.15 1832.3 1694 1711.96C1858.07 1555.07 1950.89 1323.74 1940.96 1097C1935.91 981.578 1908.13 869.151 1857.74 765C1760 562.98 1574.24 408.555 1360 344.28C1299.55 326.145 1237.8 316.212 1175 311.911C1152.38 310.361 1127.61 307.456 1105 310.424z"/>
<path style="fill:#ffffff; stroke:none;" d="M1313 573.425C1277.94 578.198 1257.01 599.987 1233 624L1168 689L852 1005C812.349 1044.65 758.418 1083.87 770.804 1147C772.588 1156.1 775.848 1164.87 780.312 1173C802.664 1213.7 854.689 1230.67 897 1212.57C916.046 1204.43 927.628 1188.21 945 1177.86C981.584 1156.08 1028.56 1160.66 1059 1191C1067.43 1199.4 1074.86 1208.99 1079.57 1220C1092.19 1249.47 1089.14 1284.67 1070.56 1311C1059.58 1326.57 1043.44 1339.56 1030 1353L910 1473C888.738 1494.26 861.743 1515.22 847.309 1542C812.997 1605.67 862.395 1682.1 934 1678.96C968.215 1677.46 991.248 1654.75 1014 1632L1077 1569L1399 1247C1437.63 1208.37 1491.01 1169.53 1480.71 1108C1479.29 1099.49 1476.58 1090.73 1472.73 1083C1451.76 1040.95 1399.67 1020.76 1356 1038.45C1335.72 1046.67 1323.27 1063.66 1305 1074.55C1267.16 1097.1 1220.71 1089.85 1190 1059C1180.83 1049.79 1174.02 1039.17 1169.43 1027C1158.51 998.069 1163.18 965.152 1181.04 940C1191.85 924.777 1206.85 912.155 1220 899L1344 775C1364.74 754.258 1391.94 733.793 1404.89 707C1435.27 644.158 1385.97 563.493 1313 573.425z"/>
</svg>
