<svg width="20" height="21" viewBox="0 0 20 21" xmlns="http://www.w3.org/2000/svg">
    <path d="M10 .3c5.523 0 10 4.567 10 10.2 0 5.633-4.477 10.2-10 10.2S0 16.133 0 10.5C0 4.867 4.477.3 10 .3zm.822 3.7h-1.68v1.54c-1.092.13-1.927.483-2.506 1.057-.579.574-.868 1.262-.868 2.065 0 .681.177 1.223.532 1.624.355.401.78.693 1.274.875.495.182 1.11.352 1.848.511.672.15 1.16.292 1.463.427.303.135.455.343.455.623 0 .532-.532.798-1.596.798a5.81 5.81 0 0 1-1.708-.266 5.888 5.888 0 0 1-1.526-.7l-.91 2.044c.41.28.929.516 1.554.707.625.191 1.288.31 1.988.357v1.498h1.68v-1.554c1.055-.159 1.86-.52 2.415-1.085.555-.565.833-1.234.833-2.009 0-.681-.18-1.22-.539-1.617a3.203 3.203 0 0 0-1.274-.868 13.509 13.509 0 0 0-1.855-.511c-.663-.14-1.143-.275-1.442-.406-.299-.13-.448-.327-.448-.588 0-.261.126-.474.378-.637.252-.163.653-.245 1.204-.245.877 0 1.783.252 2.716.756l.854-2.058a5.657 5.657 0 0 0-1.309-.546 8.165 8.165 0 0 0-1.533-.28V4z" fill="#0BA466" fill-rule="evenodd"/>
</svg>
