<svg width="22" height="22" viewBox="0 0 22 22" fill="none" xmlns="http://www.w3.org/2000/svg">
<path d="M0.814637 8.46121L0.814669 8.46108C2.21655 2.83553 7.91432 -0.588046 13.5389 0.814318L13.5389 0.814325C19.1648 2.2167 22.5881 7.9148 21.1856 13.5401C19.7831 19.1649 14.0853 22.5883 8.45897 21.1855C2.83508 19.7831 -0.588535 14.0857 0.814637 8.46121Z" fill="white" stroke="#DADADA"/>
<g clip-path="url(#clip0_1005_121056)">
<path fill-rule="evenodd" clip-rule="evenodd" d="M5.29585 4.37689L2.01381 11.2708C2.00132 11.2964 1.99737 11.3254 2.00252 11.3535C2.00767 11.3815 2.02166 11.4072 2.04245 11.4267L10.9064 19.9205C10.9316 19.9447 10.9651 19.9582 11 19.9582C11.0349 19.9582 11.0684 19.9447 11.0936 19.9205L19.9576 11.4272C19.9784 11.4077 19.9924 11.382 19.9975 11.354C20.0027 11.3259 19.9987 11.297 19.9862 11.2713L16.7042 4.37742C16.6936 4.35427 16.6766 4.33466 16.6551 4.32093C16.6337 4.3072 16.6088 4.29993 16.5833 4.3H5.41781C5.39223 4.29968 5.3671 4.30677 5.34546 4.32041C5.32382 4.33406 5.30659 4.35367 5.29585 4.37689Z" fill="#50AF95"/>
<path fill-rule="evenodd" clip-rule="evenodd" d="M12.1388 11.9788C12.0752 11.9835 11.7464 12.0031 11.013 12.0031C10.4297 12.0031 10.0155 11.9856 9.87019 11.9788C7.61588 11.8796 5.93323 11.4872 5.93323 11.0173C5.93323 10.5475 7.61588 10.1556 9.87019 10.0548V11.5879C10.0176 11.5985 10.4397 11.6234 11.0231 11.6234C11.7231 11.6234 12.0736 11.5943 12.1367 11.5884V10.0559C14.3862 10.1561 16.0652 10.5485 16.0652 11.0173C16.0652 11.4861 14.3868 11.8785 12.1367 11.9782L12.1388 11.9788ZM12.1388 9.89732V8.52543H15.2782V6.4334H6.7308V8.52543H9.86966V9.89679C7.31838 10.014 5.39975 10.5194 5.39975 11.125C5.39975 11.7306 7.31838 12.2354 9.86966 12.3531V16.7493H12.1383V12.3516C14.6837 12.2344 16.5992 11.7295 16.5992 11.1244C16.5992 10.5194 14.6853 10.0145 12.1383 9.89679L12.1388 9.89732Z" fill="white"/>
</g>
<defs>
<clipPath id="clip0_1005_121056">
<rect width="18" height="15.6582" fill="white" transform="translate(2 4.3)"/>
</clipPath>
</defs>
</svg>
