<svg id="svg" version="1.1" xmlns="http://www.w3.org/2000/svg" xmlns:xlink="http://www.w3.org/1999/xlink" width="400" height="400" viewBox="0, 0, 400,400"><g id="svgg"><path id="path0" d="M324.139 89.021 C 321.467 89.835,314.264 95.899,311.800 99.409 C 311.360 100.036,310.627 101.010,310.172 101.574 C 308.091 104.153,303.600 111.574,303.600 112.435 C 303.600 112.717,303.249 113.679,302.819 114.574 C 301.993 116.296,301.212 119.966,300.903 123.585 C 300.677 126.227,301.873 137.243,302.599 139.207 C 302.885 139.981,303.250 141.691,303.410 143.007 C 303.570 144.323,303.860 145.708,304.056 146.085 C 304.252 146.462,304.669 147.992,304.983 149.485 C 305.684 152.819,306.615 156.412,307.396 158.800 C 307.953 160.503,308.584 164.187,309.068 168.564 C 309.317 170.814,308.649 173.251,307.496 174.294 C 306.766 174.955,304.289 175.013,268.449 175.200 L 230.181 175.400 229.215 176.300 C 228.684 176.795,228.111 177.200,227.943 177.200 C 226.869 177.200,222.792 183.920,220.420 189.600 C 220.190 190.150,219.841 190.870,219.644 191.200 C 219.447 191.530,219.088 192.250,218.846 192.800 C 218.604 193.350,218.242 194.070,218.041 194.400 C 217.840 194.730,216.750 196.890,215.619 199.200 C 214.488 201.510,213.408 203.670,213.219 204.000 C 213.030 204.330,212.369 205.725,211.751 207.100 C 211.133 208.475,210.501 209.600,210.345 209.600 C 210.190 209.600,209.948 210.128,209.806 210.772 C 209.664 211.417,209.290 212.159,208.974 212.421 C 208.658 212.683,208.397 213.191,208.394 213.549 C 208.391 213.907,208.132 214.650,207.818 215.200 C 207.505 215.750,206.971 216.740,206.632 217.400 C 206.293 218.060,205.853 218.870,205.653 219.200 C 205.453 219.530,204.788 220.880,204.175 222.200 C 203.562 223.520,202.846 224.870,202.584 225.200 C 202.322 225.530,201.988 226.303,201.842 226.917 C 201.331 229.065,198.736 228.440,198.209 226.041 C 198.066 225.389,197.709 224.656,197.416 224.413 C 197.123 224.170,196.770 223.366,196.631 222.626 C 196.492 221.886,196.125 221.070,195.815 220.813 C 195.505 220.555,195.138 219.830,195.000 219.200 C 194.862 218.570,194.502 217.850,194.200 217.600 C 193.898 217.350,193.536 216.617,193.394 215.972 C 193.252 215.328,192.978 214.800,192.784 214.800 C 192.591 214.800,192.216 214.080,191.953 213.200 C 191.689 212.320,191.336 211.600,191.168 211.600 C 191.000 211.600,190.642 210.925,190.373 210.100 C 190.104 209.275,189.770 208.510,189.630 208.400 C 189.489 208.290,187.792 204.960,185.858 201.000 C 183.923 197.040,182.181 193.530,181.987 193.200 C 180.908 191.369,179.200 187.805,179.200 187.385 C 179.200 187.117,178.942 186.683,178.626 186.421 C 178.310 186.159,177.938 185.430,177.800 184.800 C 177.662 184.170,177.308 183.455,177.014 183.211 C 176.719 182.967,176.366 182.320,176.229 181.774 C 175.943 180.632,173.563 178.063,171.329 176.482 L 169.800 175.400 131.790 175.200 L 93.781 175.000 92.790 174.073 C 91.559 172.921,91.322 163.696,92.479 161.926 C 92.812 161.417,93.219 159.920,93.384 158.600 C 93.548 157.281,93.916 155.748,94.203 155.195 C 94.489 154.642,94.854 153.292,95.014 152.195 C 95.174 151.098,95.537 149.570,95.822 148.800 C 96.106 148.030,96.460 146.502,96.608 145.405 C 96.756 144.308,97.130 142.922,97.439 142.325 C 97.747 141.728,98.006 140.466,98.014 139.520 C 98.022 138.574,98.327 136.720,98.692 135.400 C 99.632 131.997,99.890 119.503,99.047 118.216 C 98.723 117.722,98.333 116.616,98.180 115.758 C 98.028 114.901,97.565 113.639,97.151 112.953 C 96.738 112.267,96.400 111.322,96.400 110.853 C 96.400 110.384,96.222 110.000,96.005 110.000 C 95.788 110.000,95.332 109.415,94.991 108.700 C 93.928 106.471,93.084 105.016,92.612 104.600 C 92.363 104.380,91.628 103.403,90.979 102.429 C 88.312 98.424,81.083 91.200,79.742 91.200 C 79.582 91.200,79.037 90.811,78.531 90.335 C 75.998 87.955,72.722 90.046,74.547 92.878 C 74.873 93.385,75.271 94.520,75.431 95.400 C 75.590 96.280,75.952 97.360,76.234 97.800 C 76.701 98.527,77.042 100.777,77.934 109.000 C 78.137 110.868,78.075 112.399,77.749 113.600 C 77.480 114.590,77.143 116.435,77.001 117.700 C 76.859 118.965,76.513 120.230,76.233 120.510 C 75.952 120.791,75.598 121.685,75.445 122.499 C 75.161 124.013,73.320 127.200,72.729 127.200 C 72.548 127.200,72.400 127.532,72.400 127.938 C 72.400 128.344,72.040 129.002,71.600 129.400 C 71.160 129.798,70.800 130.338,70.800 130.600 C 70.800 130.862,70.440 131.402,70.000 131.800 C 69.560 132.198,69.200 132.738,69.200 133.000 C 69.200 133.262,68.840 133.802,68.400 134.200 C 67.960 134.598,67.600 135.068,67.600 135.244 C 67.600 135.566,66.115 137.929,65.000 139.381 C 64.670 139.811,64.400 140.298,64.400 140.464 C 64.400 140.755,62.782 143.353,62.052 144.233 C 61.854 144.472,61.571 145.222,61.422 145.900 C 61.273 146.578,60.909 147.226,60.613 147.340 C 60.317 147.453,59.951 148.110,59.800 148.800 C 59.649 149.490,59.272 150.151,58.962 150.270 C 58.653 150.388,58.400 151.008,58.400 151.647 C 58.400 152.313,58.059 153.100,57.600 153.493 C 57.160 153.870,56.799 154.543,56.797 154.989 C 56.796 155.435,56.437 156.340,56.000 157.000 C 55.563 157.660,55.204 158.606,55.203 159.101 C 55.201 159.597,54.840 160.675,54.400 161.496 C 53.960 162.316,53.600 163.569,53.600 164.279 C 53.600 164.989,53.224 166.522,52.764 167.685 C 51.729 170.302,51.737 185.338,52.774 187.194 C 53.079 187.741,53.466 189.685,53.632 191.514 C 53.799 193.344,54.130 195.074,54.367 195.360 C 54.605 195.647,54.917 196.763,55.060 197.840 C 55.204 198.918,55.654 200.229,56.061 200.754 C 56.467 201.279,56.800 202.150,56.800 202.691 C 56.800 203.231,57.160 204.131,57.600 204.691 C 58.040 205.250,58.400 206.134,58.400 206.654 C 58.400 207.174,58.550 207.600,58.733 207.600 C 58.916 207.600,59.642 208.489,60.346 209.577 C 61.519 211.386,63.617 213.995,64.600 214.867 C 67.810 217.711,68.683 218.390,69.137 218.394 C 69.432 218.397,70.131 218.760,70.691 219.200 C 71.250 219.640,71.954 220.000,72.255 220.000 C 72.557 220.000,73.475 220.360,74.296 220.800 C 75.116 221.240,76.421 221.608,77.194 221.618 C 77.967 221.627,79.320 221.927,80.200 222.283 C 81.592 222.846,85.058 222.961,106.859 223.165 C 129.141 223.374,131.999 223.472,132.659 224.046 C 133.066 224.402,133.885 224.808,134.478 224.948 C 135.834 225.270,140.404 229.849,141.844 232.329 C 142.442 233.358,143.061 234.290,143.220 234.400 C 143.380 234.510,143.797 235.230,144.147 236.000 C 144.497 236.770,144.956 237.670,145.167 238.000 C 145.378 238.330,145.943 239.500,146.423 240.600 C 147.372 242.777,147.397 242.826,149.182 245.894 C 149.852 247.046,150.400 248.187,150.400 248.431 C 150.400 248.674,150.760 249.331,151.200 249.891 C 151.640 250.450,152.000 251.170,152.000 251.491 C 152.000 251.811,152.360 252.531,152.800 253.091 C 153.240 253.650,153.600 254.370,153.600 254.691 C 153.600 255.011,153.960 255.731,154.400 256.291 C 154.840 256.850,155.200 257.570,155.200 257.891 C 155.200 258.211,155.560 258.931,156.000 259.491 C 156.440 260.050,156.800 260.770,156.800 261.091 C 156.800 261.411,157.160 262.131,157.600 262.691 C 158.040 263.250,158.400 263.932,158.400 264.205 C 158.400 264.478,158.658 264.917,158.974 265.179 C 159.290 265.441,159.664 266.183,159.806 266.828 C 159.948 267.472,160.222 268.000,160.416 268.000 C 160.609 268.000,160.984 268.720,161.247 269.600 C 161.511 270.480,161.871 271.200,162.047 271.200 C 162.224 271.200,162.584 271.920,162.847 272.800 C 163.111 273.680,163.464 274.400,163.632 274.400 C 163.800 274.400,164.158 275.075,164.427 275.900 C 164.696 276.725,165.033 277.490,165.175 277.600 C 165.318 277.710,165.942 278.880,166.562 280.200 C 167.182 281.520,167.842 282.870,168.028 283.200 C 168.214 283.530,168.914 284.864,169.583 286.164 L 170.800 288.528 170.800 313.421 C 170.800 335.179,170.876 338.343,171.400 338.545 C 171.730 338.671,172.000 339.017,172.000 339.312 C 172.000 339.608,172.585 340.288,173.300 340.825 L 174.600 341.800 200.028 341.909 L 225.456 342.017 227.143 340.795 C 229.668 338.966,229.600 339.734,229.600 313.251 L 229.600 288.953 232.853 282.577 C 234.643 279.070,238.616 271.250,241.683 265.200 C 244.750 259.150,247.426 253.930,247.630 253.600 C 247.834 253.270,248.180 252.550,248.399 252.000 C 248.619 251.450,248.971 250.730,249.183 250.400 C 249.395 250.070,250.126 248.630,250.807 247.200 C 251.489 245.770,252.208 244.330,252.406 244.000 C 252.603 243.670,253.183 242.500,253.694 241.400 C 254.205 240.300,255.158 238.609,255.812 237.643 C 256.465 236.676,257.180 235.593,257.400 235.235 C 258.110 234.079,259.759 231.815,260.287 231.271 C 260.569 230.981,260.800 230.606,260.800 230.438 C 260.800 229.971,266.074 224.802,266.567 224.786 C 266.805 224.779,267.720 224.425,268.600 224.000 C 270.124 223.264,271.335 223.226,294.200 223.196 C 308.954 223.177,318.893 223.008,320.000 222.757 C 320.990 222.533,322.790 222.133,324.000 221.869 C 325.210 221.605,326.560 221.191,327.000 220.950 C 327.440 220.708,328.289 220.394,328.886 220.251 C 329.483 220.109,330.803 219.409,331.819 218.696 C 332.835 217.983,334.066 217.182,334.554 216.916 C 336.600 215.801,340.825 210.307,342.797 206.200 C 343.537 204.660,344.259 203.310,344.401 203.200 C 345.168 202.610,348.400 189.968,348.400 187.561 C 348.400 186.611,348.691 183.576,349.048 180.817 C 349.585 176.653,349.615 175.256,349.222 172.600 C 348.962 170.840,348.565 168.140,348.340 166.600 C 348.115 165.060,347.762 163.596,347.555 163.346 C 347.348 163.097,346.930 162.017,346.627 160.946 C 345.490 156.940,340.764 146.412,339.379 144.800 C 339.095 144.470,338.387 143.300,337.805 142.200 C 336.106 138.988,335.445 137.889,334.700 137.044 C 334.315 136.607,334.000 136.092,334.000 135.901 C 334.000 135.709,333.415 134.770,332.700 133.815 C 331.985 132.859,331.090 131.565,330.711 130.939 C 329.969 129.711,329.183 128.496,328.694 127.822 C 327.436 126.085,326.372 124.227,326.166 123.406 C 326.031 122.871,325.669 122.223,325.361 121.967 C 325.052 121.711,324.800 120.990,324.800 120.365 C 324.800 119.740,324.485 118.367,324.100 117.314 C 323.118 114.628,323.135 104.223,324.126 101.650 C 324.497 100.687,324.800 99.332,324.800 98.639 C 324.800 97.945,325.048 97.023,325.352 96.589 C 325.655 96.155,326.184 94.450,326.527 92.800 C 327.327 88.952,326.849 88.195,324.139 89.021 " stroke="none" fill="#33c86f" fill-rule="evenodd"></path><path id="path1" d="M0.000 200.000 L 0.000 400.000 200.000 400.000 L 400.000 400.000 400.000 200.000 L 400.000 0.000 200.000 0.000 L 0.000 0.000 0.000 200.000 M80.887 89.700 C 83.023 91.075,84.777 92.413,84.785 92.673 C 84.793 92.933,85.160 93.260,85.600 93.400 C 86.040 93.540,86.400 93.791,86.400 93.958 C 86.400 94.125,87.480 95.404,88.800 96.800 C 90.120 98.196,91.200 99.459,91.200 99.608 C 91.200 99.756,91.560 100.293,92.000 100.800 C 92.440 101.307,92.800 101.922,92.800 102.165 C 92.800 102.408,93.160 102.832,93.600 103.107 C 94.040 103.382,94.400 103.959,94.400 104.389 C 94.400 104.820,94.760 105.365,95.200 105.600 C 95.640 105.835,96.000 106.308,96.000 106.651 C 96.000 106.994,96.360 107.731,96.800 108.291 C 97.240 108.850,97.600 109.570,97.600 109.891 C 97.600 110.211,97.960 110.931,98.400 111.491 C 98.840 112.050,99.200 112.898,99.200 113.374 C 99.200 113.850,99.411 114.451,99.669 114.709 C 99.927 114.967,100.368 116.488,100.649 118.089 C 100.931 119.690,101.342 121.810,101.563 122.800 C 102.126 125.319,102.087 127.223,101.449 128.447 C 101.149 129.022,100.774 131.452,100.617 133.847 C 100.459 136.241,100.103 138.560,99.824 139.000 C 99.546 139.440,99.225 141.110,99.112 142.710 C 98.988 144.456,98.666 145.897,98.306 146.310 C 97.977 146.690,97.592 148.156,97.452 149.570 C 97.312 150.983,96.951 152.423,96.651 152.770 C 96.350 153.116,96.006 154.538,95.887 155.930 C 95.768 157.321,95.409 158.761,95.089 159.130 C 94.746 159.524,94.402 161.105,94.253 162.969 C 94.097 164.908,93.766 166.396,93.399 166.801 C 92.450 167.850,92.613 171.149,93.670 172.274 L 94.539 173.200 130.993 173.200 C 162.426 173.200,167.554 173.281,168.224 173.787 C 168.651 174.110,169.587 174.380,170.304 174.387 C 171.101 174.395,171.874 174.711,172.293 175.200 C 172.670 175.640,173.143 176.000,173.344 176.000 C 173.868 176.000,177.181 179.702,177.191 180.300 C 177.196 180.575,177.560 181.160,178.000 181.600 C 178.440 182.040,178.800 182.738,178.800 183.151 C 178.800 183.564,179.052 184.111,179.361 184.367 C 179.669 184.623,180.040 185.306,180.186 185.885 C 180.331 186.463,180.798 187.380,181.225 187.922 C 181.651 188.464,182.000 189.222,182.000 189.605 C 182.000 189.988,182.270 190.526,182.600 190.800 C 182.930 191.074,183.200 191.612,183.200 191.995 C 183.200 192.378,183.560 193.150,184.000 193.709 C 184.440 194.269,184.800 194.985,184.800 195.302 C 184.800 195.619,185.160 196.293,185.600 196.800 C 186.040 197.307,186.400 198.027,186.400 198.400 C 186.400 198.773,186.760 199.493,187.200 200.000 C 187.640 200.507,188.000 201.305,188.000 201.772 C 188.000 202.240,188.360 202.930,188.800 203.307 C 189.240 203.684,189.600 204.281,189.600 204.633 C 189.600 204.985,189.960 205.731,190.400 206.291 C 190.840 206.850,191.200 207.570,191.200 207.891 C 191.200 208.211,191.560 208.931,192.000 209.491 C 192.440 210.050,192.800 210.844,192.800 211.254 C 192.800 211.664,193.160 212.360,193.600 212.800 C 194.040 213.240,194.400 213.960,194.400 214.400 C 194.400 214.840,194.760 215.560,195.200 216.000 C 195.640 216.440,196.000 217.138,196.000 217.551 C 196.000 217.964,196.252 218.511,196.561 218.767 C 196.869 219.023,197.243 219.720,197.392 220.316 C 197.541 220.912,197.902 221.670,198.194 222.000 C 198.486 222.330,198.929 223.365,199.178 224.300 C 199.719 226.330,200.705 226.573,201.067 224.766 C 201.203 224.087,201.553 223.439,201.846 223.327 C 202.139 223.215,202.496 222.496,202.640 221.729 C 202.783 220.963,203.131 220.248,203.411 220.140 C 203.692 220.033,204.039 219.318,204.183 218.551 C 204.327 217.785,204.687 217.065,204.983 216.951 C 205.279 216.838,205.634 216.144,205.772 215.411 C 205.909 214.677,206.287 213.976,206.611 213.851 C 206.935 213.727,207.200 213.284,207.200 212.866 C 207.200 212.449,207.560 211.650,208.000 211.091 C 208.440 210.531,208.800 209.699,208.800 209.240 C 208.800 208.782,209.160 208.182,209.600 207.907 C 210.085 207.604,210.400 206.974,210.400 206.307 C 210.400 205.640,210.715 205.010,211.200 204.707 C 211.640 204.432,212.000 203.825,212.000 203.358 C 212.000 202.890,212.360 202.050,212.800 201.491 C 213.240 200.931,213.600 200.099,213.600 199.640 C 213.600 199.182,213.960 198.582,214.400 198.307 C 214.882 198.006,215.200 197.374,215.200 196.718 C 215.200 196.038,215.501 195.467,216.000 195.200 C 216.527 194.918,216.800 194.362,216.800 193.573 C 216.800 192.887,217.052 192.278,217.389 192.149 C 217.713 192.024,218.099 191.265,218.247 190.461 C 218.395 189.658,218.850 188.571,219.258 188.046 C 219.666 187.521,220.000 186.778,220.000 186.395 C 220.000 186.012,220.258 185.483,220.574 185.221 C 220.890 184.959,221.262 184.230,221.400 183.600 C 221.538 182.970,221.910 182.241,222.226 181.979 C 222.542 181.717,222.800 181.263,222.800 180.972 C 222.800 180.680,223.250 179.956,223.800 179.362 C 224.350 178.769,224.800 178.129,224.800 177.942 C 224.800 177.754,225.070 177.600,225.400 177.600 C 225.730 177.600,226.000 177.324,226.000 176.987 C 226.000 176.651,226.301 176.259,226.669 176.118 C 227.038 175.977,227.668 175.532,228.069 175.131 C 228.471 174.729,229.385 174.394,230.100 174.387 C 230.815 174.380,231.749 174.110,232.176 173.787 C 232.846 173.281,237.978 173.200,269.444 173.200 C 289.514 173.200,306.219 173.091,306.567 172.957 C 307.512 172.595,307.505 162.911,306.560 162.220 C 306.123 161.901,305.853 160.871,305.709 158.976 C 305.583 157.314,305.251 155.917,304.882 155.494 C 304.542 155.105,304.184 153.755,304.085 152.494 C 303.986 151.232,303.673 149.930,303.390 149.600 C 303.107 149.270,302.747 147.740,302.591 146.200 C 302.434 144.660,302.074 143.130,301.791 142.800 C 301.508 142.470,301.146 140.780,300.986 139.045 C 300.826 137.310,300.450 135.420,300.150 134.845 C 299.335 133.283,299.366 118.512,300.187 117.340 C 300.510 116.879,300.895 115.747,301.043 114.824 C 301.190 113.901,301.547 112.910,301.836 112.621 C 302.124 112.333,302.484 111.580,302.634 110.948 C 302.784 110.317,303.139 109.530,303.423 109.200 C 303.706 108.870,304.065 108.090,304.220 107.468 C 304.376 106.845,304.750 106.241,305.051 106.125 C 305.353 106.009,305.600 105.662,305.600 105.353 C 305.600 105.045,305.960 104.484,306.400 104.107 C 306.840 103.730,307.200 103.207,307.200 102.944 C 307.200 102.681,307.920 101.716,308.800 100.800 C 309.680 99.884,310.400 98.976,310.400 98.781 C 310.400 98.587,310.760 98.235,311.200 98.000 C 311.640 97.765,312.000 97.383,312.000 97.151 C 312.000 96.735,316.986 91.600,317.391 91.600 C 317.506 91.600,317.941 91.285,318.358 90.900 C 320.306 89.102,321.325 88.400,321.991 88.400 C 322.389 88.400,322.818 88.130,322.945 87.800 C 323.322 86.816,326.993 86.993,328.046 88.046 C 329.097 89.097,328.973 92.992,327.862 93.804 C 327.431 94.120,327.200 94.865,327.200 95.944 C 327.200 97.018,326.942 97.858,326.465 98.335 C 324.648 100.152,324.643 118.018,326.459 120.354 C 326.866 120.879,327.200 121.644,327.200 122.054 C 327.200 122.464,327.560 123.160,328.000 123.600 C 328.440 124.040,328.800 124.720,328.800 125.111 C 328.800 125.502,329.160 126.130,329.600 126.507 C 330.040 126.884,330.400 127.436,330.400 127.734 C 330.400 128.032,330.760 128.602,331.200 129.000 C 331.640 129.398,332.000 129.966,332.000 130.262 C 332.000 130.558,332.184 130.800,332.410 130.800 C 332.635 130.800,332.992 131.253,333.202 131.806 C 333.660 133.009,335.213 135.280,335.869 135.702 C 336.127 135.869,336.453 136.529,336.593 137.169 C 336.734 137.809,337.108 138.433,337.424 138.554 C 337.741 138.676,338.000 138.977,338.000 139.224 C 338.000 139.472,338.360 140.131,338.800 140.691 C 339.240 141.250,339.600 142.000,339.600 142.358 C 339.600 142.715,339.960 143.232,340.400 143.507 C 340.840 143.782,341.200 144.338,341.200 144.742 C 341.200 145.147,341.560 145.893,342.000 146.400 C 342.440 146.907,342.800 147.739,342.800 148.247 C 342.800 148.762,343.154 149.361,343.600 149.600 C 344.068 149.850,344.400 150.438,344.400 151.014 C 344.400 151.556,344.760 152.360,345.200 152.800 C 345.640 153.240,346.000 154.081,346.000 154.669 C 346.000 155.256,346.278 156.044,346.617 156.419 C 346.957 156.794,347.346 157.798,347.483 158.650 C 347.621 159.503,347.982 160.384,348.286 160.609 C 348.592 160.835,348.943 162.084,349.072 163.409 C 349.202 164.735,349.594 166.131,349.953 166.542 C 350.890 167.618,350.836 186.324,349.890 188.423 C 349.548 189.180,349.187 191.110,349.087 192.710 C 348.975 194.499,348.673 195.886,348.304 196.310 C 347.973 196.690,347.610 197.862,347.498 198.916 C 347.386 199.970,347.003 201.154,346.647 201.548 C 346.291 201.941,346.000 202.654,346.000 203.131 C 346.000 203.609,345.640 204.360,345.200 204.800 C 344.760 205.240,344.400 205.960,344.400 206.400 C 344.400 206.840,344.066 207.534,343.658 207.942 C 343.250 208.350,342.804 209.128,342.668 209.670 C 342.532 210.212,341.786 211.309,341.010 212.108 C 340.235 212.907,339.600 213.677,339.600 213.820 C 339.600 214.123,336.172 217.433,334.651 218.600 C 334.077 219.040,333.218 219.715,332.743 220.100 C 332.267 220.485,331.619 220.800,331.302 220.800 C 330.985 220.800,330.269 221.160,329.709 221.600 C 329.150 222.040,328.216 222.400,327.635 222.400 C 327.054 222.400,326.133 222.715,325.589 223.100 C 324.679 223.744,322.516 223.816,298.400 224.000 C 274.431 224.183,272.091 224.260,270.920 224.900 C 270.216 225.285,269.226 225.601,268.720 225.602 C 267.949 225.603,266.518 226.660,263.400 229.533 C 262.407 230.449,261.600 231.662,261.600 232.242 C 261.600 232.590,261.240 232.969,260.800 233.084 C 260.360 233.199,260.000 233.626,260.000 234.033 C 260.000 234.439,259.640 234.965,259.200 235.200 C 258.742 235.445,258.400 236.038,258.400 236.587 C 258.400 237.195,258.107 237.639,257.600 237.800 C 257.160 237.940,256.800 238.362,256.800 238.738 C 256.800 239.114,256.440 239.730,256.000 240.107 C 255.560 240.484,255.200 241.132,255.200 241.547 C 255.200 241.962,254.935 242.522,254.611 242.791 C 254.286 243.060,253.909 243.880,253.771 244.612 C 253.634 245.345,253.286 246.035,252.998 246.145 C 252.711 246.256,252.357 246.886,252.212 247.545 C 252.067 248.205,251.702 248.950,251.400 249.200 C 251.098 249.450,250.738 250.170,250.600 250.800 C 250.462 251.430,250.090 252.159,249.774 252.421 C 249.458 252.683,249.200 253.212,249.200 253.595 C 249.200 253.978,248.840 254.750,248.400 255.309 C 247.960 255.869,247.600 256.589,247.600 256.909 C 247.600 257.230,247.240 257.950,246.800 258.509 C 246.360 259.069,246.000 259.875,246.000 260.301 C 246.000 260.727,245.640 261.402,245.200 261.800 C 244.760 262.198,244.400 262.918,244.400 263.400 C 244.400 263.882,244.040 264.602,243.600 265.000 C 243.160 265.398,242.800 266.043,242.800 266.433 C 242.800 266.824,242.539 267.404,242.220 267.723 C 241.901 268.042,241.515 268.820,241.363 269.452 C 241.212 270.083,240.753 270.922,240.344 271.316 C 239.935 271.709,239.600 272.434,239.600 272.927 C 239.600 273.419,239.240 274.130,238.800 274.507 C 238.360 274.884,238.000 275.532,238.000 275.947 C 238.000 276.362,237.748 276.911,237.439 277.167 C 237.131 277.423,236.757 278.120,236.608 278.716 C 236.459 279.312,236.103 280.070,235.816 280.400 C 235.529 280.730,235.159 281.450,234.992 282.000 C 234.826 282.550,234.355 283.429,233.945 283.954 C 233.535 284.479,233.200 285.184,233.200 285.522 C 233.200 285.860,232.885 286.485,232.500 286.910 C 231.854 287.624,231.785 289.605,231.600 312.742 C 231.411 336.454,231.359 337.875,230.635 339.200 C 229.637 341.026,227.673 342.797,226.628 342.813 C 226.173 342.820,225.451 343.090,225.024 343.413 C 223.840 344.308,175.288 344.296,174.945 343.400 C 174.818 343.070,174.290 342.800,173.771 342.800 C 172.686 342.800,170.611 340.928,169.899 339.306 C 169.544 338.497,169.354 331.597,169.192 313.600 C 168.967 288.633,168.877 287.220,167.428 285.771 C 167.082 285.425,166.800 284.796,166.800 284.371 C 166.800 283.947,166.440 283.240,166.000 282.800 C 165.560 282.360,165.200 281.713,165.200 281.363 C 165.200 281.013,164.840 280.269,164.400 279.709 C 163.960 279.150,163.600 278.430,163.600 278.109 C 163.600 277.789,163.240 277.069,162.800 276.509 C 162.360 275.950,162.000 275.156,162.000 274.746 C 162.000 274.336,161.640 273.640,161.200 273.200 C 160.760 272.760,160.400 272.113,160.400 271.763 C 160.400 271.413,160.040 270.669,159.600 270.109 C 159.160 269.550,158.800 268.778,158.800 268.395 C 158.800 268.012,158.542 267.483,158.226 267.221 C 157.910 266.959,157.539 266.232,157.401 265.606 C 157.264 264.979,156.909 264.374,156.613 264.260 C 156.317 264.147,155.950 263.484,155.797 262.786 C 155.644 262.089,155.177 261.177,154.759 260.759 C 154.342 260.342,154.000 259.662,154.000 259.249 C 154.000 258.836,153.730 258.274,153.400 258.000 C 153.070 257.726,152.800 257.188,152.800 256.805 C 152.800 256.422,152.440 255.650,152.000 255.091 C 151.560 254.531,151.200 253.811,151.200 253.491 C 151.200 253.170,150.840 252.450,150.400 251.891 C 149.960 251.331,149.600 250.537,149.600 250.126 C 149.600 249.714,149.240 249.070,148.800 248.693 C 148.360 248.316,148.000 247.640,148.000 247.191 C 148.000 246.742,147.732 246.272,147.404 246.146 C 147.077 246.021,146.625 245.237,146.401 244.405 C 146.178 243.574,145.726 242.670,145.397 242.398 C 145.069 242.125,144.800 241.514,144.800 241.040 C 144.800 240.566,144.440 239.870,144.000 239.493 C 143.560 239.116,143.200 238.396,143.200 237.893 C 143.200 237.390,142.840 236.670,142.400 236.293 C 141.960 235.916,141.600 235.286,141.600 234.893 C 141.600 234.500,141.285 233.879,140.900 233.514 C 140.515 233.149,139.840 232.376,139.400 231.796 C 138.042 230.007,135.251 227.200,134.831 227.200 C 134.611 227.200,134.109 226.865,133.716 226.456 C 133.316 226.041,132.149 225.601,131.073 225.460 C 130.014 225.322,128.759 224.936,128.284 224.604 C 127.538 224.081,124.045 224.000,102.211 223.997 C 77.727 223.995,76.965 223.972,75.800 223.200 C 75.140 222.763,74.039 222.404,73.354 222.403 C 72.669 222.401,71.650 222.040,71.091 221.600 C 70.531 221.160,69.794 220.800,69.451 220.800 C 69.108 220.800,68.635 220.440,68.400 220.000 C 68.165 219.560,67.703 219.200,67.373 219.200 C 67.044 219.200,66.674 218.937,66.550 218.615 C 66.427 218.294,66.012 217.931,65.628 217.809 C 64.419 217.425,58.800 211.509,58.800 210.620 C 58.800 210.458,58.440 209.869,58.000 209.309 C 57.560 208.750,57.200 207.976,57.200 207.589 C 57.200 207.202,56.933 206.783,56.607 206.658 C 56.281 206.533,55.898 205.704,55.756 204.815 C 55.614 203.927,55.370 203.200,55.213 203.200 C 54.782 203.200,54.000 201.285,54.000 200.230 C 54.000 199.717,53.755 199.094,53.455 198.846 C 53.155 198.597,52.788 197.208,52.640 195.760 C 52.492 194.311,52.127 192.738,51.829 192.263 C 49.927 189.230,49.996 165.815,51.913 163.504 C 52.162 163.205,52.487 162.159,52.636 161.180 C 52.785 160.201,53.128 159.130,53.399 158.800 C 53.670 158.470,54.002 157.481,54.137 156.601 C 54.271 155.722,54.618 154.822,54.907 154.601 C 55.195 154.381,55.657 153.435,55.932 152.500 C 56.207 151.565,56.585 150.800,56.772 150.800 C 56.958 150.800,57.226 150.187,57.366 149.439 C 57.507 148.690,57.887 147.976,58.211 147.851 C 58.535 147.727,58.800 147.261,58.800 146.816 C 58.800 146.371,59.160 145.782,59.600 145.507 C 60.040 145.232,60.400 144.601,60.400 144.104 C 60.400 143.607,60.760 142.840,61.200 142.400 C 61.640 141.960,62.000 141.448,62.000 141.261 C 62.000 141.075,62.360 140.507,62.800 140.000 C 63.240 139.493,63.600 138.751,63.600 138.353 C 63.600 137.954,63.960 137.435,64.400 137.200 C 64.840 136.965,65.200 136.446,65.200 136.048 C 65.200 135.650,65.560 134.998,66.000 134.600 C 66.440 134.202,66.800 133.628,66.800 133.325 C 66.800 133.023,67.070 132.671,67.400 132.545 C 67.730 132.418,68.000 132.077,68.000 131.788 C 68.000 131.498,68.450 130.727,69.000 130.073 C 69.550 129.419,70.000 128.705,70.000 128.485 C 70.000 128.265,70.270 127.982,70.600 127.855 C 70.930 127.729,71.200 127.384,71.200 127.090 C 71.200 126.796,71.650 125.945,72.200 125.200 C 72.750 124.455,73.200 123.542,73.200 123.171 C 73.200 122.801,73.454 122.287,73.765 122.029 C 74.076 121.771,74.455 120.656,74.607 119.551 C 74.763 118.415,75.125 117.450,75.441 117.329 C 76.271 117.010,76.264 102.187,75.435 101.869 C 75.069 101.728,74.766 100.692,74.578 98.928 C 74.413 97.393,74.047 96.029,73.738 95.802 C 73.437 95.581,73.035 94.140,72.844 92.600 C 72.065 86.309,74.344 85.488,80.887 89.700 " stroke="none" fill="#242424" fill-rule="evenodd"></path><path id="path2" d="M323.211 88.651 C 318.342 90.926,312.787 96.446,307.159 104.600 C 305.080 107.612,302.800 111.871,302.800 112.743 C 302.800 112.959,302.547 113.645,302.238 114.268 C 299.474 119.834,299.466 130.967,302.218 140.628 C 302.536 141.744,302.912 143.544,303.053 144.628 C 303.195 145.713,303.469 146.908,303.661 147.285 C 303.854 147.662,304.260 149.192,304.562 150.685 C 304.865 152.178,305.296 153.940,305.520 154.600 C 307.044 159.093,308.678 169.010,308.259 171.231 C 307.645 174.492,311.598 174.175,268.703 174.400 L 230.541 174.600 228.770 175.752 C 225.801 177.684,224.665 179.209,221.717 185.221 C 217.281 194.270,201.069 226.981,200.929 227.165 C 200.693 227.475,198.800 226.418,198.800 225.977 C 198.800 225.540,195.543 218.350,194.823 217.200 C 194.617 216.870,193.625 214.890,192.619 212.800 C 191.612 210.710,190.618 208.730,190.408 208.400 C 190.199 208.070,189.464 206.630,188.775 205.200 C 188.086 203.770,187.360 202.330,187.160 202.000 C 186.961 201.670,186.619 200.950,186.399 200.400 C 186.180 199.850,185.831 199.130,185.623 198.800 C 185.416 198.470,184.689 197.030,184.007 195.600 C 183.326 194.170,182.610 192.730,182.417 192.400 C 182.224 192.070,180.705 189.100,179.043 185.800 C 176.053 179.867,174.670 177.947,171.981 176.000 L 170.600 175.000 132.800 174.800 L 95.000 174.600 93.675 173.655 L 92.350 172.710 92.496 168.655 C 92.631 164.911,93.124 162.190,94.609 157.000 C 95.325 154.496,96.314 150.528,97.002 147.400 C 97.292 146.080,97.703 144.550,97.915 144.000 C 98.127 143.450,98.434 141.847,98.597 140.437 C 98.760 139.028,99.125 137.318,99.408 136.637 C 101.210 132.308,100.256 116.492,97.970 112.800 C 97.765 112.470,97.419 111.750,97.199 111.200 C 96.980 110.650,96.623 109.930,96.406 109.600 C 96.189 109.270,95.740 108.460,95.407 107.800 C 95.074 107.140,94.486 106.134,94.101 105.564 C 93.715 104.994,92.927 103.824,92.349 102.964 C 87.738 96.100,78.519 88.000,75.318 88.000 C 73.182 88.000,72.805 90.725,74.350 95.000 C 76.362 100.570,76.589 102.045,76.595 109.600 C 76.602 119.667,76.106 121.167,69.446 131.186 C 64.929 137.983,64.984 137.898,63.993 139.600 C 63.544 140.370,62.825 141.540,62.395 142.200 C 61.964 142.860,61.429 143.850,61.206 144.400 C 60.983 144.950,60.616 145.670,60.391 146.000 C 59.443 147.390,55.145 156.588,54.366 158.895 C 51.388 167.715,51.431 167.441,51.485 177.200 C 51.528 184.759,51.675 186.873,52.407 190.400 C 53.676 196.517,54.876 200.910,55.476 201.631 C 55.764 201.979,56.000 202.539,56.000 202.876 C 56.000 205.201,61.813 213.588,65.719 216.899 C 68.339 219.119,73.755 222.000,75.310 222.000 C 75.634 222.000,76.687 222.311,77.650 222.692 C 79.221 223.313,81.995 223.406,104.800 223.604 C 132.905 223.848,131.333 223.699,135.532 226.519 C 137.352 227.741,141.117 232.078,142.302 234.318 C 143.390 236.372,146.667 242.932,146.939 243.600 C 147.073 243.930,147.636 244.920,148.189 245.800 C 148.742 246.680,149.395 247.850,149.640 248.400 C 149.885 248.950,150.247 249.670,150.444 250.000 C 150.641 250.330,150.981 251.050,151.201 251.600 C 151.420 252.150,151.780 252.870,152.000 253.200 C 152.221 253.530,152.867 254.790,153.436 256.000 C 154.005 257.210,154.640 258.560,154.848 259.000 C 155.055 259.440,156.378 261.960,157.787 264.600 C 159.196 267.240,160.830 270.390,161.419 271.600 C 162.008 272.810,162.650 274.070,162.846 274.400 C 163.042 274.730,163.382 275.450,163.601 276.000 C 163.821 276.550,164.213 277.360,164.473 277.800 C 165.545 279.615,167.190 283.031,167.195 283.451 C 167.198 283.699,167.452 284.111,167.761 284.367 C 168.069 284.623,168.443 285.320,168.592 285.916 C 168.741 286.512,169.112 287.277,169.417 287.615 C 169.874 288.123,169.991 292.609,170.085 313.247 L 170.200 338.263 171.327 339.740 C 173.667 342.807,171.574 342.600,200.217 342.600 L 225.869 342.600 227.477 341.486 C 230.318 339.517,230.178 340.846,230.404 313.600 C 230.558 295.154,230.735 288.698,231.112 287.792 C 231.388 287.127,232.772 284.337,234.186 281.592 C 235.601 278.846,240.288 269.580,244.603 261.000 C 248.917 252.420,252.610 245.130,252.808 244.800 C 253.007 244.470,253.660 243.120,254.259 241.800 C 254.859 240.480,255.540 239.201,255.774 238.957 C 256.009 238.713,256.650 237.754,257.200 236.825 C 257.750 235.897,258.875 234.257,259.700 233.180 C 260.525 232.104,261.200 231.063,261.200 230.866 C 261.200 230.037,266.766 225.271,268.058 224.995 C 268.796 224.837,269.652 224.503,269.961 224.254 C 270.360 223.932,277.952 223.733,296.161 223.569 C 325.745 223.302,327.476 223.068,333.284 218.553 C 334.099 217.919,335.359 216.969,336.084 216.442 C 337.406 215.480,339.977 212.454,341.321 210.278 C 342.707 208.034,345.600 202.362,345.602 201.883 C 345.604 201.617,345.866 200.900,346.184 200.290 C 346.503 199.679,346.947 198.184,347.172 196.967 C 347.397 195.749,347.711 194.544,347.869 194.289 C 348.540 193.203,349.688 183.710,349.878 177.678 C 350.081 171.238,349.877 169.351,348.384 163.800 C 346.972 158.547,342.400 148.236,339.295 143.299 C 338.569 142.143,337.857 140.893,337.714 140.520 C 337.571 140.147,335.774 137.341,333.721 134.283 C 331.668 131.225,329.505 127.885,328.914 126.862 C 328.322 125.838,327.730 124.910,327.597 124.800 C 324.231 122.012,322.953 100.738,325.932 97.072 C 326.301 96.618,327.418 92.955,327.867 90.724 C 328.378 88.187,326.240 87.235,323.211 88.651 M326.527 92.800 C 326.184 94.450,325.655 96.155,325.352 96.589 C 325.048 97.023,324.800 97.945,324.800 98.639 C 324.800 99.332,324.497 100.687,324.126 101.650 C 323.135 104.223,323.118 114.628,324.100 117.314 C 324.485 118.367,324.800 119.740,324.800 120.365 C 324.800 120.990,325.052 121.711,325.361 121.967 C 325.669 122.223,326.031 122.871,326.166 123.406 C 326.372 124.227,327.436 126.085,328.694 127.822 C 329.183 128.496,329.969 129.711,330.711 130.939 C 331.090 131.565,331.985 132.859,332.700 133.815 C 333.415 134.770,334.000 135.709,334.000 135.901 C 334.000 136.092,334.315 136.607,334.700 137.044 C 335.445 137.889,336.106 138.988,337.805 142.200 C 338.387 143.300,339.095 144.470,339.379 144.800 C 340.764 146.412,345.490 156.940,346.627 160.946 C 346.930 162.017,347.348 163.097,347.555 163.346 C 347.762 163.596,348.115 165.060,348.340 166.600 C 348.565 168.140,348.962 170.840,349.222 172.600 C 349.615 175.256,349.585 176.653,349.048 180.817 C 348.691 183.576,348.400 186.611,348.400 187.561 C 348.400 189.968,345.168 202.610,344.401 203.200 C 344.259 203.310,343.537 204.660,342.797 206.200 C 340.825 210.307,336.600 215.801,334.554 216.916 C 334.066 217.182,332.835 217.983,331.819 218.696 C 330.803 219.409,329.483 220.109,328.886 220.251 C 328.289 220.394,327.440 220.708,327.000 220.950 C 326.560 221.191,325.210 221.605,324.000 221.869 C 322.790 222.133,320.990 222.533,320.000 222.757 C 318.893 223.008,308.954 223.177,294.200 223.196 C 271.335 223.226,270.124 223.264,268.600 224.000 C 267.720 224.425,266.805 224.779,266.567 224.786 C 266.074 224.802,260.800 229.971,260.800 230.438 C 260.800 230.606,260.569 230.981,260.287 231.271 C 259.759 231.815,258.110 234.079,257.400 235.235 C 257.180 235.593,256.465 236.676,255.812 237.643 C 255.158 238.609,254.205 240.300,253.694 241.400 C 253.183 242.500,252.603 243.670,252.406 244.000 C 252.208 244.330,251.489 245.770,250.807 247.200 C 250.126 248.630,249.395 250.070,249.183 250.400 C 248.971 250.730,248.619 251.450,248.399 252.000 C 248.180 252.550,247.834 253.270,247.630 253.600 C 247.426 253.930,244.750 259.150,241.683 265.200 C 238.616 271.250,234.643 279.070,232.853 282.577 L 229.600 288.953 229.600 313.251 C 229.600 339.734,229.668 338.966,227.143 340.795 L 225.456 342.017 200.028 341.909 L 174.600 341.800 173.300 340.825 C 172.585 340.288,172.000 339.608,172.000 339.312 C 172.000 339.017,171.730 338.671,171.400 338.545 C 170.876 338.343,170.800 335.179,170.800 313.421 L 170.800 288.528 169.583 286.164 C 168.914 284.864,168.214 283.530,168.028 283.200 C 167.842 282.870,167.182 281.520,166.562 280.200 C 165.942 278.880,165.318 277.710,165.175 277.600 C 165.033 277.490,164.696 276.725,164.427 275.900 C 164.158 275.075,163.800 274.400,163.632 274.400 C 163.464 274.400,163.111 273.680,162.847 272.800 C 162.584 271.920,162.224 271.200,162.047 271.200 C 161.871 271.200,161.511 270.480,161.247 269.600 C 160.984 268.720,160.609 268.000,160.416 268.000 C 160.222 268.000,159.948 267.472,159.806 266.828 C 159.664 266.183,159.290 265.441,158.974 265.179 C 158.658 264.917,158.400 264.478,158.400 264.205 C 158.400 263.932,158.040 263.250,157.600 262.691 C 157.160 262.131,156.800 261.411,156.800 261.091 C 156.800 260.770,156.440 260.050,156.000 259.491 C 155.560 258.931,155.200 258.211,155.200 257.891 C 155.200 257.570,154.840 256.850,154.400 256.291 C 153.960 255.731,153.600 255.011,153.600 254.691 C 153.600 254.370,153.240 253.650,152.800 253.091 C 152.360 252.531,152.000 251.811,152.000 251.491 C 152.000 251.170,151.640 250.450,151.200 249.891 C 150.760 249.331,150.400 248.674,150.400 248.431 C 150.400 248.187,149.852 247.046,149.182 245.894 C 147.397 242.826,147.372 242.777,146.423 240.600 C 145.943 239.500,145.378 238.330,145.167 238.000 C 144.956 237.670,144.497 236.770,144.147 236.000 C 143.797 235.230,143.380 234.510,143.220 234.400 C 143.061 234.290,142.442 233.358,141.844 232.329 C 140.404 229.849,135.834 225.270,134.478 224.948 C 133.885 224.808,133.066 224.402,132.659 224.046 C 131.999 223.472,129.141 223.374,106.859 223.165 C 85.058 222.961,81.592 222.846,80.200 222.283 C 79.320 221.927,77.967 221.627,77.194 221.618 C 76.421 221.608,75.116 221.240,74.296 220.800 C 73.475 220.360,72.557 220.000,72.255 220.000 C 71.954 220.000,71.250 219.640,70.691 219.200 C 70.131 218.760,69.432 218.397,69.137 218.394 C 68.683 218.390,67.810 217.711,64.600 214.867 C 63.617 213.995,61.519 211.386,60.346 209.577 C 59.642 208.489,58.916 207.600,58.733 207.600 C 58.550 207.600,58.400 207.174,58.400 206.654 C 58.400 206.134,58.040 205.250,57.600 204.691 C 57.160 204.131,56.800 203.231,56.800 202.691 C 56.800 202.150,56.467 201.279,56.061 200.754 C 55.654 200.229,55.204 198.918,55.060 197.840 C 54.917 196.763,54.605 195.647,54.367 195.360 C 54.130 195.074,53.799 193.344,53.632 191.514 C 53.466 189.685,53.079 187.741,52.774 187.194 C 51.737 185.338,51.729 170.302,52.764 167.685 C 53.224 166.522,53.600 164.989,53.600 164.279 C 53.600 163.569,53.960 162.316,54.400 161.496 C 54.840 160.675,55.201 159.597,55.203 159.101 C 55.204 158.606,55.563 157.660,56.000 157.000 C 56.437 156.340,56.796 155.435,56.797 154.989 C 56.799 154.543,57.160 153.870,57.600 153.493 C 58.059 153.100,58.400 152.313,58.400 151.647 C 58.400 151.008,58.653 150.388,58.962 150.270 C 59.272 150.151,59.649 149.490,59.800 148.800 C 59.951 148.110,60.317 147.453,60.613 147.340 C 60.909 147.226,61.273 146.578,61.422 145.900 C 61.571 145.222,61.854 144.472,62.052 144.233 C 62.782 143.353,64.400 140.755,64.400 140.464 C 64.400 140.298,64.670 139.811,65.000 139.381 C 66.115 137.929,67.600 135.566,67.600 135.244 C 67.600 135.068,67.960 134.598,68.400 134.200 C 68.840 133.802,69.200 133.262,69.200 133.000 C 69.200 132.738,69.560 132.198,70.000 131.800 C 70.440 131.402,70.800 130.862,70.800 130.600 C 70.800 130.338,71.160 129.798,71.600 129.400 C 72.040 129.002,72.400 128.344,72.400 127.938 C 72.400 127.532,72.548 127.200,72.729 127.200 C 73.320 127.200,75.161 124.013,75.445 122.499 C 75.598 121.685,75.952 120.791,76.233 120.510 C 76.513 120.230,76.859 118.965,77.001 117.700 C 77.143 116.435,77.480 114.590,77.749 113.600 C 78.075 112.399,78.137 110.868,77.934 109.000 C 77.042 100.777,76.701 98.527,76.234 97.800 C 75.952 97.360,75.590 96.280,75.431 95.400 C 75.271 94.520,74.873 93.385,74.547 92.878 C 72.722 90.046,75.998 87.955,78.531 90.335 C 79.037 90.811,79.582 91.200,79.742 91.200 C 81.083 91.200,88.312 98.424,90.979 102.429 C 91.628 103.403,92.363 104.380,92.612 104.600 C 93.084 105.016,93.928 106.471,94.991 108.700 C 95.332 109.415,95.788 110.000,96.005 110.000 C 96.222 110.000,96.400 110.384,96.400 110.853 C 96.400 111.322,96.738 112.267,97.151 112.953 C 97.565 113.639,98.028 114.901,98.180 115.758 C 98.333 116.616,98.723 117.722,99.047 118.216 C 99.890 119.503,99.632 131.997,98.692 135.400 C 98.327 136.720,98.022 138.574,98.014 139.520 C 98.006 140.466,97.747 141.728,97.439 142.325 C 97.130 142.922,96.756 144.308,96.608 145.405 C 96.460 146.502,96.106 148.030,95.822 148.800 C 95.537 149.570,95.174 151.098,95.014 152.195 C 94.854 153.292,94.489 154.642,94.203 155.195 C 93.916 155.748,93.548 157.281,93.384 158.600 C 93.219 159.920,92.812 161.417,92.479 161.926 C 91.322 163.696,91.559 172.921,92.790 174.073 L 93.781 175.000 131.790 175.200 L 169.800 175.400 171.329 176.482 C 173.563 178.063,175.943 180.632,176.229 181.774 C 176.366 182.320,176.719 182.967,177.014 183.211 C 177.308 183.455,177.662 184.170,177.800 184.800 C 177.938 185.430,178.310 186.159,178.626 186.421 C 178.942 186.683,179.200 187.117,179.200 187.385 C 179.200 187.805,180.908 191.369,181.987 193.200 C 182.181 193.530,183.923 197.040,185.858 201.000 C 187.792 204.960,189.489 208.290,189.630 208.400 C 189.770 208.510,190.104 209.275,190.373 210.100 C 190.642 210.925,191.000 211.600,191.168 211.600 C 191.336 211.600,191.689 212.320,191.953 213.200 C 192.216 214.080,192.591 214.800,192.784 214.800 C 192.978 214.800,193.252 215.328,193.394 215.972 C 193.536 216.617,193.898 217.350,194.200 217.600 C 194.502 217.850,194.862 218.570,195.000 219.200 C 195.138 219.830,195.505 220.555,195.815 220.813 C 196.125 221.070,196.492 221.886,196.631 222.626 C 196.770 223.366,197.123 224.170,197.416 224.413 C 197.709 224.656,198.066 225.389,198.209 226.041 C 198.736 228.440,201.331 229.065,201.842 226.917 C 201.988 226.303,202.322 225.530,202.584 225.200 C 202.846 224.870,203.562 223.520,204.175 222.200 C 204.788 220.880,205.453 219.530,205.653 219.200 C 205.853 218.870,206.293 218.060,206.632 217.400 C 206.971 216.740,207.505 215.750,207.818 215.200 C 208.132 214.650,208.391 213.907,208.394 213.549 C 208.397 213.191,208.658 212.683,208.974 212.421 C 209.290 212.159,209.664 211.417,209.806 210.772 C 209.948 210.128,210.190 209.600,210.345 209.600 C 210.501 209.600,211.133 208.475,211.751 207.100 C 212.369 205.725,213.030 204.330,213.219 204.000 C 213.408 203.670,214.488 201.510,215.619 199.200 C 216.750 196.890,217.840 194.730,218.041 194.400 C 218.242 194.070,218.604 193.350,218.846 192.800 C 219.088 192.250,219.447 191.530,219.644 191.200 C 219.841 190.870,220.190 190.150,220.420 189.600 C 222.792 183.920,226.869 177.200,227.943 177.200 C 228.111 177.200,228.684 176.795,229.215 176.300 L 230.181 175.400 268.449 175.200 C 304.289 175.013,306.766 174.955,307.496 174.294 C 308.649 173.251,309.317 170.814,309.068 168.564 C 308.584 164.187,307.953 160.503,307.396 158.800 C 306.615 156.412,305.684 152.819,304.983 149.485 C 304.669 147.992,304.252 146.462,304.056 146.085 C 303.860 145.708,303.570 144.323,303.410 143.007 C 303.250 141.691,302.885 139.981,302.599 139.207 C 300.440 133.365,300.566 119.267,302.819 114.574 C 303.249 113.679,303.600 112.717,303.600 112.435 C 303.600 111.574,308.091 104.153,310.172 101.574 C 310.627 101.010,311.360 100.036,311.800 99.409 C 314.264 95.899,321.467 89.835,324.139 89.021 C 326.849 88.195,327.327 88.952,326.527 92.800 " stroke="none" fill="#2c744c" fill-rule="evenodd"></path><path id="path3" d="M73.028 88.500 C 72.391 90.062,72.877 95.164,73.724 95.800 C 74.017 96.020,74.424 97.447,74.628 98.970 C 74.866 100.739,75.204 101.807,75.564 101.925 C 75.982 102.062,76.044 101.915,75.804 101.355 C 75.627 100.940,75.308 99.700,75.096 98.600 C 74.884 97.500,74.375 95.869,73.965 94.976 C 73.090 93.069,72.879 89.747,73.554 88.487 C 75.205 85.401,84.328 91.581,90.551 100.000 C 91.771 101.650,93.023 103.270,93.334 103.600 C 93.644 103.930,94.018 104.588,94.165 105.063 C 94.311 105.538,94.677 106.021,94.978 106.136 C 95.278 106.251,95.646 106.898,95.794 107.573 C 95.942 108.248,96.222 108.800,96.416 108.800 C 96.609 108.800,96.984 109.522,97.249 110.405 C 97.513 111.287,97.970 112.209,98.265 112.454 C 98.559 112.698,98.800 113.245,98.800 113.669 C 98.800 114.093,99.082 114.986,99.427 115.653 C 101.003 118.699,100.990 133.787,99.409 138.200 C 99.093 139.080,98.827 140.474,98.818 141.298 C 98.808 142.123,98.455 143.833,98.033 145.098 C 97.612 146.364,97.151 148.251,97.010 149.291 C 96.869 150.331,96.584 151.286,96.377 151.414 C 96.170 151.542,96.000 152.035,96.000 152.509 C 96.000 154.525,97.201 152.108,97.450 149.589 C 97.592 148.165,97.977 146.690,98.306 146.310 C 98.666 145.897,98.988 144.456,99.112 142.710 C 99.225 141.110,99.546 139.440,99.824 139.000 C 100.103 138.560,100.459 136.241,100.617 133.847 C 100.774 131.452,101.149 129.022,101.449 128.447 C 102.087 127.223,102.126 125.319,101.563 122.800 C 101.342 121.810,100.931 119.690,100.649 118.089 C 100.368 116.488,99.927 114.967,99.669 114.709 C 99.411 114.451,99.200 113.850,99.200 113.374 C 99.200 112.898,98.840 112.050,98.400 111.491 C 97.960 110.931,97.600 110.211,97.600 109.891 C 97.600 109.570,97.240 108.850,96.800 108.291 C 96.360 107.731,96.000 106.994,96.000 106.651 C 96.000 106.308,95.640 105.835,95.200 105.600 C 94.760 105.365,94.400 104.820,94.400 104.389 C 94.400 103.959,94.040 103.382,93.600 103.107 C 93.160 102.832,92.800 102.408,92.800 102.165 C 92.800 101.922,92.440 101.307,92.000 100.800 C 91.560 100.293,91.200 99.756,91.200 99.608 C 91.200 99.459,90.120 98.196,88.800 96.800 C 87.480 95.404,86.400 94.125,86.400 93.958 C 86.400 93.791,86.040 93.540,85.600 93.400 C 85.160 93.260,84.793 92.933,84.785 92.673 C 84.777 92.413,83.023 91.075,80.887 89.700 C 76.081 86.606,73.935 86.279,73.028 88.500 M322.945 87.800 C 322.818 88.130,322.389 88.400,321.991 88.400 C 321.325 88.400,320.306 89.102,318.358 90.900 C 317.941 91.285,317.506 91.600,317.391 91.600 C 316.986 91.600,312.000 96.735,312.000 97.151 C 312.000 97.383,311.640 97.765,311.200 98.000 C 310.760 98.235,310.400 98.587,310.400 98.781 C 310.400 98.976,309.680 99.884,308.800 100.800 C 307.920 101.716,307.200 102.681,307.200 102.944 C 307.200 103.207,306.840 103.730,306.400 104.107 C 305.960 104.484,305.600 105.045,305.600 105.353 C 305.600 105.662,305.353 106.009,305.051 106.125 C 304.750 106.241,304.376 106.845,304.220 107.468 C 304.065 108.090,303.663 108.905,303.328 109.277 C 302.992 109.649,302.788 110.163,302.873 110.419 C 302.958 110.675,303.382 110.199,303.814 109.360 C 305.366 106.348,308.017 102.449,310.712 99.214 C 314.357 94.838,320.941 88.800,322.067 88.800 C 322.372 88.800,322.977 88.552,323.411 88.248 C 323.845 87.945,324.560 87.605,325.000 87.494 C 325.529 87.361,325.355 87.277,324.487 87.246 C 323.657 87.217,323.090 87.420,322.945 87.800 M327.169 88.236 C 328.559 89.405,328.748 90.723,327.790 92.560 C 327.146 93.795,327.310 94.450,328.073 93.687 C 329.671 92.089,328.539 87.200,326.569 87.200 C 326.150 87.200,326.350 87.546,327.169 88.236 M326.800 95.511 C 326.800 96.122,326.512 97.034,326.159 97.537 C 325.378 98.653,325.835 99.314,326.633 98.223 C 327.157 97.507,327.455 94.400,327.000 94.400 C 326.890 94.400,326.800 94.900,326.800 95.511 M325.232 101.400 C 325.199 102.280,324.911 104.080,324.592 105.400 C 323.914 108.207,323.821 112.519,324.414 113.627 C 324.642 114.053,324.980 115.436,325.166 116.701 L 325.502 119.000 325.551 117.120 C 325.578 116.086,325.399 114.301,325.153 113.153 C 324.815 111.581,324.829 109.877,325.207 106.234 C 325.483 103.575,325.615 101.040,325.501 100.600 C 325.379 100.132,325.268 100.463,325.232 101.400 M76.165 109.800 C 76.166 113.760,76.226 115.326,76.298 113.280 C 76.371 111.234,76.371 107.994,76.298 106.080 C 76.224 104.166,76.165 105.840,76.165 109.800 M302.432 111.529 C 302.414 111.819,302.130 112.327,301.800 112.657 C 301.470 112.987,301.208 113.649,301.218 114.129 C 301.232 114.819,301.403 114.682,302.042 113.472 C 302.485 112.631,302.761 111.731,302.656 111.472 C 302.523 111.146,302.453 111.163,302.432 111.529 M300.842 115.800 C 300.805 116.240,300.510 116.949,300.187 117.376 C 299.804 117.884,299.618 118.994,299.652 120.576 L 299.705 123.000 299.990 120.790 C 300.147 119.575,300.495 118.170,300.763 117.669 C 301.031 117.169,301.173 116.363,301.080 115.879 C 300.926 115.087,300.902 115.079,300.842 115.800 M75.063 117.500 C 74.961 117.665,74.751 118.649,74.595 119.687 C 74.440 120.725,74.063 121.782,73.757 122.036 C 73.450 122.290,73.200 122.801,73.200 123.171 C 73.200 123.542,72.750 124.455,72.200 125.200 C 71.650 125.945,71.200 126.796,71.200 127.090 C 71.200 127.384,70.930 127.729,70.600 127.855 C 70.270 127.982,70.000 128.265,70.000 128.485 C 70.000 128.705,69.550 129.419,69.000 130.073 C 68.450 130.727,68.000 131.498,68.000 131.788 C 68.000 132.077,67.730 132.418,67.400 132.545 C 67.070 132.671,66.800 133.023,66.800 133.325 C 66.800 133.628,66.440 134.202,66.000 134.600 C 65.560 134.998,65.200 135.650,65.200 136.048 C 65.200 136.446,64.840 136.965,64.400 137.200 C 63.960 137.435,63.600 137.954,63.600 138.353 C 63.600 138.751,63.240 139.493,62.800 140.000 C 62.360 140.507,62.000 141.075,62.000 141.261 C 62.000 141.448,61.640 141.960,61.200 142.400 C 60.760 142.840,60.400 143.605,60.401 144.100 C 60.401 145.009,61.110 143.998,62.362 141.300 C 62.592 140.805,62.965 140.400,63.190 140.400 C 63.416 140.400,63.600 140.175,63.601 139.900 C 63.601 139.625,64.321 138.363,65.201 137.096 C 66.080 135.828,66.800 134.668,66.800 134.517 C 66.800 134.251,68.780 131.202,69.214 130.800 C 69.332 130.690,70.003 129.700,70.704 128.600 C 71.405 127.500,72.147 126.400,72.353 126.156 C 73.034 125.347,74.455 122.228,74.975 120.400 C 75.257 119.410,75.622 118.285,75.787 117.900 C 76.077 117.219,75.449 116.872,75.063 117.500 M325.613 120.076 C 325.606 120.448,325.793 120.872,326.028 121.017 C 326.263 121.163,326.612 121.668,326.803 122.141 L 327.149 123.000 327.175 122.144 C 327.189 121.674,326.846 120.864,326.413 120.344 C 325.776 119.579,325.624 119.528,325.613 120.076 M327.200 123.543 C 327.200 123.768,327.383 124.066,327.606 124.204 C 327.829 124.342,328.276 125.027,328.598 125.727 C 329.324 127.305,329.803 128.045,331.700 130.517 C 332.525 131.592,333.200 132.650,333.200 132.869 C 333.200 133.087,333.805 134.016,334.546 134.933 C 335.791 136.476,336.334 137.358,337.665 140.000 C 338.511 141.680,339.600 142.979,339.600 142.308 C 339.600 141.978,339.240 141.250,338.800 140.691 C 338.360 140.131,338.000 139.472,338.000 139.224 C 338.000 138.977,337.741 138.676,337.424 138.554 C 337.108 138.433,336.734 137.809,336.593 137.169 C 336.453 136.529,336.127 135.869,335.869 135.702 C 335.213 135.280,333.660 133.009,333.202 131.806 C 332.992 131.253,332.635 130.800,332.410 130.800 C 332.184 130.800,332.000 130.558,332.000 130.262 C 332.000 129.966,331.640 129.398,331.200 129.000 C 330.760 128.602,330.400 128.047,330.400 127.767 C 330.400 127.486,330.085 126.943,329.700 126.559 C 329.315 126.174,328.820 125.320,328.600 124.660 C 328.216 123.507,327.200 122.697,327.200 123.543 M299.666 129.740 C 299.620 132.467,299.779 134.067,300.183 134.940 C 300.503 135.633,300.833 136.920,300.915 137.800 C 301.065 139.394,301.066 139.393,301.133 137.526 C 301.170 136.495,300.989 135.145,300.732 134.526 C 300.475 133.907,300.144 131.690,299.998 129.600 L 299.732 125.800 299.666 129.740 M301.254 140.851 C 301.224 141.661,301.445 142.505,301.754 142.762 C 302.078 143.030,302.424 144.455,302.586 146.188 C 302.752 147.963,303.092 149.345,303.432 149.627 C 304.145 150.218,304.140 149.822,303.412 147.800 C 303.095 146.920,302.827 145.475,302.818 144.589 C 302.808 143.703,302.548 142.618,302.239 142.178 C 301.931 141.738,301.596 140.932,301.494 140.389 C 301.355 139.645,301.295 139.759,301.254 140.851 M340.281 144.163 C 340.677 144.693,341.062 144.957,341.138 144.750 C 341.304 144.296,340.451 143.200,339.932 143.200 C 339.729 143.200,339.886 143.633,340.281 144.163 M59.280 145.680 C 59.016 145.944,58.800 146.490,58.800 146.893 C 58.800 147.295,58.535 147.727,58.211 147.851 C 57.887 147.976,57.507 148.690,57.366 149.439 C 57.226 150.187,56.958 150.800,56.772 150.800 C 56.585 150.800,56.207 151.565,55.932 152.500 C 55.657 153.435,55.195 154.381,54.907 154.601 C 54.618 154.822,54.271 155.722,54.137 156.601 C 54.002 157.481,53.670 158.470,53.399 158.800 C 53.128 159.130,52.787 160.188,52.640 161.151 C 52.494 162.114,52.110 163.279,51.787 163.740 C 51.464 164.201,51.212 165.303,51.227 166.189 L 51.254 167.800 51.842 165.800 C 52.165 164.700,52.608 163.106,52.826 162.258 C 53.044 161.410,53.488 160.204,53.811 159.578 C 54.135 158.952,54.400 158.138,54.400 157.769 C 54.400 157.400,55.009 155.816,55.753 154.249 C 56.498 152.682,57.683 150.185,58.387 148.700 C 59.091 147.215,59.832 146.000,60.033 146.000 C 60.235 146.000,60.400 145.820,60.400 145.600 C 60.400 145.058,59.864 145.096,59.280 145.680 M341.200 145.654 C 341.200 145.751,341.560 146.537,342.000 147.400 C 342.566 148.510,342.800 148.728,342.800 148.146 C 342.800 147.693,342.440 146.907,342.000 146.400 C 341.560 145.893,341.200 145.557,341.200 145.654 M342.800 149.586 C 342.800 149.814,342.965 150.000,343.167 150.000 C 343.368 150.000,343.714 150.495,343.935 151.100 L 344.337 152.200 344.368 151.114 C 344.389 150.415,344.115 149.875,343.600 149.600 C 343.058 149.310,342.800 149.305,342.800 149.586 M304.153 152.520 C 304.259 154.632,305.600 157.455,305.600 155.566 C 305.600 155.233,305.409 154.769,305.175 154.535 C 304.941 154.301,304.589 153.230,304.393 152.155 L 304.036 150.200 304.153 152.520 M344.400 152.751 C 344.400 152.944,344.659 153.317,344.976 153.580 C 345.293 153.843,345.628 154.450,345.722 154.929 C 345.886 155.773,345.893 155.771,345.946 154.874 C 346.008 153.804,345.350 152.400,344.786 152.400 C 344.574 152.400,344.400 152.558,344.400 152.751 M95.600 154.820 C 95.600 155.491,95.331 156.560,95.002 157.197 C 94.673 157.833,94.239 159.516,94.038 160.936 C 93.836 162.356,93.476 163.885,93.236 164.333 C 92.996 164.781,92.800 165.648,92.800 166.259 C 92.800 168.882,93.994 166.190,94.251 162.988 C 94.402 161.109,94.746 159.525,95.089 159.130 C 95.668 158.462,96.342 153.600,95.856 153.600 C 95.715 153.600,95.600 154.149,95.600 154.820 M346.013 156.414 C 346.020 156.736,346.290 157.349,346.613 157.776 C 346.936 158.204,347.200 158.887,347.200 159.296 C 347.200 159.705,347.504 160.616,347.876 161.320 C 348.247 162.024,348.689 163.320,348.858 164.200 C 349.106 165.491,349.134 165.338,349.002 163.409 C 348.907 162.006,348.610 160.849,348.286 160.609 C 347.982 160.384,347.619 159.492,347.480 158.628 C 347.224 157.041,345.986 155.172,346.013 156.414 M305.775 158.937 C 305.852 160.442,306.110 161.870,306.350 162.110 C 307.033 162.793,307.317 162.166,306.780 161.163 C 306.513 160.664,306.147 159.344,305.966 158.228 C 305.655 156.308,305.644 156.346,305.775 158.937 M307.255 167.657 C 307.209 171.866,307.094 172.755,306.567 172.957 C 306.219 173.091,289.514 173.200,269.444 173.200 C 237.978 173.200,232.846 173.281,232.176 173.787 C 231.749 174.110,230.815 174.380,230.100 174.387 C 229.385 174.394,228.471 174.729,228.069 175.131 C 227.668 175.532,227.038 175.977,226.669 176.118 C 226.301 176.259,226.000 176.641,226.000 176.967 C 226.000 177.353,226.515 177.087,227.476 176.207 C 229.469 174.381,228.295 174.434,270.047 174.286 C 312.549 174.136,308.591 175.008,307.660 166.000 L 307.309 162.600 307.255 167.657 M349.200 166.471 C 349.200 166.784,349.368 167.211,349.573 167.420 C 349.779 167.629,350.018 168.520,350.106 169.400 C 350.252 170.868,350.271 170.831,350.333 168.949 C 350.379 167.548,350.210 166.740,349.800 166.400 C 349.314 165.997,349.200 166.011,349.200 166.471 M92.514 169.400 C 92.517 170.500,92.595 170.903,92.687 170.295 C 92.779 169.686,92.777 168.786,92.682 168.295 C 92.587 167.803,92.511 168.300,92.514 169.400 M50.600 169.700 C 50.177 172.225,50.204 178.046,50.661 182.800 C 51.034 186.682,51.062 186.280,51.032 177.500 C 50.997 167.093,51.007 167.267,50.600 169.700 M350.553 175.800 C 350.553 178.440,350.618 179.468,350.697 178.084 C 350.775 176.701,350.774 174.541,350.695 173.284 C 350.616 172.028,350.552 173.160,350.553 175.800 M92.813 172.030 C 92.862 174.255,91.625 174.182,132.800 174.400 C 155.767 174.522,170.835 174.750,171.200 174.982 C 172.825 176.017,174.638 177.686,176.003 179.403 C 176.661 180.232,177.196 180.660,177.191 180.355 C 177.181 179.718,173.896 176.000,173.344 176.000 C 173.143 176.000,172.670 175.640,172.293 175.200 C 171.874 174.711,171.101 174.395,170.304 174.387 C 169.587 174.380,168.651 174.110,168.224 173.787 C 167.554 173.281,162.433 173.200,131.049 173.200 L 94.652 173.200 93.726 172.330 C 93.071 171.715,92.804 171.627,92.813 172.030 M224.800 177.942 C 224.800 178.129,224.350 178.769,223.800 179.362 C 223.250 179.956,222.800 180.680,222.800 180.972 C 222.800 181.263,222.542 181.717,222.226 181.979 C 221.910 182.241,221.538 182.970,221.400 183.600 C 221.262 184.230,220.890 184.959,220.574 185.221 C 220.258 185.483,220.000 186.012,220.000 186.395 C 220.000 186.778,219.668 187.521,219.262 188.046 C 218.856 188.571,218.406 189.611,218.261 190.357 C 218.116 191.103,217.708 191.925,217.355 192.183 C 217.002 192.442,216.778 192.987,216.857 193.396 C 216.968 193.974,217.147 193.836,217.667 192.769 C 218.033 192.016,219.553 188.880,221.044 185.800 C 222.535 182.720,224.191 179.615,224.725 178.900 C 225.258 178.185,225.494 177.600,225.247 177.600 C 225.001 177.600,224.800 177.754,224.800 177.942 M350.081 182.840 C 350.037 184.072,349.806 185.637,349.569 186.317 C 349.332 186.997,349.210 187.968,349.298 188.476 C 349.669 190.628,350.431 187.087,350.297 183.834 C 350.195 181.375,350.143 181.137,350.081 182.840 M177.200 181.518 C 177.200 181.729,177.470 182.126,177.800 182.400 C 178.130 182.674,178.400 183.063,178.400 183.266 C 178.400 183.884,180.764 188.731,181.195 188.997 C 181.418 189.135,181.600 189.569,181.600 189.962 C 181.600 190.356,181.960 191.093,182.400 191.600 C 182.983 192.272,183.200 192.356,183.200 191.910 C 183.200 191.573,182.930 191.074,182.600 190.800 C 182.270 190.526,182.000 189.988,182.000 189.605 C 182.000 189.222,181.665 188.479,181.255 187.954 C 180.845 187.429,180.373 186.550,180.206 186.000 C 180.039 185.450,179.699 184.748,179.452 184.439 C 179.204 184.131,178.821 183.334,178.601 182.669 C 178.222 181.528,177.200 180.687,177.200 181.518 M51.234 189.211 C 51.214 190.520,51.431 191.751,51.766 192.229 C 52.077 192.674,52.414 193.479,52.516 194.018 C 52.618 194.558,52.635 194.280,52.555 193.400 C 52.475 192.520,52.152 190.720,51.838 189.400 L 51.267 187.000 51.234 189.211 M348.800 191.385 C 348.800 192.367,348.440 194.084,348.000 195.200 C 347.560 196.316,347.200 197.729,347.200 198.338 C 347.200 198.948,346.936 199.796,346.613 200.224 C 345.758 201.353,345.784 202.388,346.644 201.527 C 346.999 201.172,347.382 200.009,347.495 198.941 C 347.609 197.874,347.976 196.686,348.311 196.302 C 348.915 195.610,349.580 189.600,349.053 189.600 C 348.914 189.600,348.800 190.403,348.800 191.385 M183.195 193.046 C 183.191 193.353,186.052 199.118,187.494 201.712 C 187.980 202.586,187.988 202.587,187.994 201.761 C 187.997 201.300,187.640 200.507,187.200 200.000 C 186.760 199.493,186.400 198.773,186.400 198.400 C 186.400 198.027,186.040 197.307,185.600 196.800 C 185.160 196.293,184.800 195.619,184.800 195.302 C 184.800 194.985,184.440 194.269,184.000 193.709 C 183.560 193.150,183.198 192.851,183.195 193.046 M215.897 195.250 C 215.486 195.479,215.213 196.084,215.232 196.720 C 215.250 197.340,215.357 197.545,215.484 197.200 C 215.605 196.870,215.980 196.284,216.316 195.898 C 217.059 195.045,216.847 194.718,215.897 195.250 M52.822 196.851 C 52.809 197.677,53.059 198.517,53.400 198.800 C 53.730 199.074,54.000 199.717,54.000 200.230 C 54.000 201.285,54.782 203.200,55.213 203.200 C 55.370 203.200,55.614 203.927,55.756 204.815 C 55.898 205.704,56.281 206.533,56.607 206.658 C 56.933 206.783,57.200 207.202,57.200 207.589 C 57.200 207.976,57.560 208.750,58.000 209.309 C 58.440 209.869,58.800 210.458,58.800 210.620 C 58.800 211.509,64.419 217.425,65.628 217.809 C 66.012 217.931,66.427 218.294,66.550 218.615 C 66.674 218.937,66.962 219.200,67.191 219.200 C 67.451 219.200,67.420 218.900,67.107 218.400 C 66.832 217.960,66.419 217.600,66.189 217.600 C 64.320 217.600,56.000 206.457,56.000 203.953 C 56.000 203.736,55.657 202.893,55.237 202.079 C 54.817 201.266,54.107 199.430,53.659 198.000 C 52.920 195.644,52.842 195.536,52.822 196.851 M214.016 198.581 C 213.751 198.900,213.594 199.453,213.667 199.810 C 213.764 200.281,213.997 200.123,214.523 199.229 C 215.257 197.981,214.896 197.520,214.016 198.581 M212.641 201.663 C 212.288 202.166,212.000 202.936,212.000 203.374 C 212.000 203.912,212.257 203.665,212.794 202.612 C 213.694 200.846,213.604 200.288,212.641 201.663 M345.600 202.971 C 345.600 203.286,345.309 203.834,344.952 204.190 C 344.596 204.547,344.431 204.964,344.585 205.118 C 344.962 205.495,346.000 204.031,346.000 203.124 C 346.000 202.726,345.910 202.400,345.800 202.400 C 345.690 202.400,345.600 202.657,345.600 202.971 M188.000 203.164 C 188.000 203.350,188.258 203.717,188.574 203.979 C 188.890 204.241,189.262 204.970,189.400 205.600 C 189.538 206.230,189.910 206.959,190.226 207.221 C 190.542 207.483,190.800 207.863,190.800 208.066 C 190.800 208.435,192.750 212.527,193.818 214.400 C 194.380 215.386,194.388 215.387,194.394 214.500 C 194.397 214.005,194.040 213.240,193.600 212.800 C 193.160 212.360,192.800 211.664,192.800 211.254 C 192.800 210.844,192.440 210.050,192.000 209.491 C 191.560 208.931,191.200 208.211,191.200 207.891 C 191.200 207.570,190.867 206.879,190.461 206.354 C 190.055 205.829,189.606 204.925,189.464 204.344 C 189.228 203.374,188.000 202.384,188.000 203.164 M210.818 204.978 C 210.554 205.296,210.397 205.899,210.469 206.318 C 210.573 206.923,210.734 206.804,211.249 205.740 C 211.915 204.367,211.676 203.945,210.818 204.978 M344.000 206.171 C 344.000 206.486,343.768 206.981,343.484 207.271 C 343.201 207.562,342.569 208.575,342.080 209.521 C 340.215 213.132,337.360 216.057,332.022 219.827 C 331.247 220.374,330.914 220.800,331.261 220.800 C 331.600 220.800,332.267 220.485,332.743 220.100 C 333.218 219.715,334.077 219.040,334.651 218.600 C 336.172 217.433,339.600 214.123,339.600 213.820 C 339.600 213.677,340.235 212.907,341.010 212.108 C 341.786 211.309,342.532 210.212,342.668 209.670 C 342.804 209.128,343.250 208.350,343.658 207.942 C 344.321 207.279,344.710 205.600,344.200 205.600 C 344.090 205.600,344.000 205.857,344.000 206.171 M209.280 208.080 C 209.016 208.344,208.800 208.901,208.800 209.317 C 208.800 209.733,208.440 210.531,208.000 211.091 C 207.560 211.650,207.200 212.449,207.200 212.866 C 207.200 213.284,206.935 213.727,206.611 213.851 C 206.287 213.976,205.909 214.677,205.772 215.411 C 205.634 216.144,205.279 216.838,204.983 216.951 C 204.687 217.065,204.327 217.785,204.183 218.551 C 204.039 219.318,203.692 220.033,203.411 220.140 C 203.131 220.248,202.783 220.963,202.640 221.729 C 202.496 222.496,202.139 223.215,201.846 223.327 C 201.553 223.439,201.203 224.087,201.067 224.766 C 200.705 226.573,199.719 226.330,199.178 224.300 C 198.929 223.365,198.486 222.330,198.194 222.000 C 197.902 221.670,197.541 220.912,197.392 220.316 C 197.243 219.720,196.869 219.023,196.561 218.767 C 196.252 218.511,196.000 217.998,196.000 217.627 C 196.000 216.738,194.947 215.319,194.568 215.698 C 194.405 215.861,194.570 216.325,194.936 216.729 C 195.301 217.133,195.601 217.629,195.602 217.831 C 195.603 218.034,196.297 219.570,197.145 221.245 C 197.992 222.920,198.799 224.743,198.938 225.297 C 199.669 228.208,200.533 227.140,205.524 217.156 C 209.934 208.332,210.574 206.786,209.280 208.080 M68.400 220.000 C 68.635 220.440,69.108 220.800,69.451 220.800 C 69.794 220.800,70.531 221.160,71.091 221.600 C 71.650 222.040,72.669 222.393,73.354 222.384 C 74.461 222.369,74.332 222.253,72.200 221.343 C 70.880 220.780,69.516 220.068,69.169 219.760 C 68.263 218.957,67.902 219.070,68.400 220.000 M328.000 221.648 C 326.649 222.373,326.637 222.399,327.656 222.399 C 328.236 222.400,329.136 222.046,329.656 221.613 C 330.870 220.602,329.915 220.622,328.000 221.648 M75.800 223.200 C 76.737 223.820,77.615 223.983,79.800 223.943 L 82.600 223.891 80.200 223.614 C 78.880 223.462,77.407 223.127,76.926 222.869 C 75.364 222.030,74.443 222.301,75.800 223.200 M324.297 222.833 C 323.911 223.058,322.831 223.393,321.897 223.577 L 320.200 223.912 322.200 223.954 C 323.580 223.982,324.572 223.748,325.400 223.200 C 326.716 222.329,325.728 222.000,324.297 222.833 M128.273 224.562 C 128.754 224.917,130.014 225.322,131.073 225.460 C 132.149 225.601,133.316 226.041,133.716 226.456 C 134.109 226.865,134.611 227.200,134.831 227.200 C 135.251 227.200,138.042 230.007,139.400 231.796 C 139.840 232.376,140.515 233.149,140.900 233.514 C 141.285 233.879,141.600 234.500,141.600 234.893 C 141.600 235.286,141.960 235.916,142.400 236.293 C 142.840 236.670,143.200 237.390,143.200 237.893 C 143.200 238.396,143.560 239.116,144.000 239.493 C 144.440 239.870,144.800 240.566,144.800 241.040 C 144.800 241.514,145.069 242.125,145.397 242.398 C 145.726 242.670,146.178 243.574,146.401 244.405 C 146.625 245.237,147.077 246.021,147.404 246.146 C 147.732 246.272,148.000 246.742,148.000 247.191 C 148.000 247.640,148.360 248.316,148.800 248.693 C 149.240 249.070,149.600 249.714,149.600 250.126 C 149.600 250.537,149.960 251.331,150.400 251.891 C 150.840 252.450,151.200 253.170,151.200 253.491 C 151.200 253.811,151.560 254.531,152.000 255.091 C 152.440 255.650,152.800 256.422,152.800 256.805 C 152.800 257.188,153.070 257.726,153.400 258.000 C 153.730 258.274,154.000 258.836,154.000 259.249 C 154.000 259.662,154.342 260.342,154.759 260.759 C 155.177 261.177,155.644 262.089,155.797 262.786 C 155.950 263.484,156.317 264.147,156.613 264.260 C 156.909 264.374,157.264 264.979,157.401 265.606 C 157.539 266.232,157.910 266.959,158.226 267.221 C 158.542 267.483,158.800 268.012,158.800 268.395 C 158.800 268.778,159.160 269.550,159.600 270.109 C 160.040 270.669,160.400 271.378,160.400 271.687 C 160.400 272.488,161.478 273.855,161.832 273.502 C 161.995 273.339,161.844 272.889,161.495 272.502 C 161.147 272.116,160.741 271.312,160.592 270.716 C 160.443 270.120,160.069 269.423,159.761 269.167 C 159.452 268.911,159.199 268.499,159.198 268.251 C 159.195 267.768,158.981 267.336,156.603 263.000 C 154.654 259.446,152.991 256.057,152.628 254.900 C 152.473 254.405,152.193 254.000,152.005 254.000 C 151.817 254.000,151.548 253.472,151.406 252.828 C 151.264 252.183,150.890 251.441,150.574 251.179 C 150.258 250.917,150.000 250.388,150.000 250.005 C 150.000 249.622,149.678 248.879,149.284 248.354 C 148.890 247.829,148.352 246.950,148.087 246.400 C 147.822 245.850,147.424 245.130,147.203 244.800 C 146.981 244.470,146.620 243.750,146.401 243.200 C 146.181 242.650,145.841 241.930,145.644 241.600 C 145.447 241.270,145.088 240.550,144.846 240.000 C 144.604 239.450,144.244 238.730,144.046 238.400 C 143.848 238.070,143.479 237.350,143.227 236.800 C 142.307 234.794,141.006 232.706,140.000 231.621 C 139.670 231.265,138.906 230.318,138.303 229.517 C 136.338 226.909,132.983 225.082,128.400 224.125 L 127.400 223.916 128.273 224.562 M270.528 224.432 C 270.291 224.669,269.341 225.033,268.417 225.241 C 266.684 225.630,261.178 230.511,261.786 231.119 C 261.937 231.270,262.237 231.077,262.453 230.691 C 262.669 230.304,263.061 229.803,263.323 229.577 C 263.585 229.350,264.700 228.364,265.800 227.384 C 266.941 226.368,268.198 225.603,268.726 225.602 C 269.236 225.601,270.046 225.389,270.526 225.131 C 271.007 224.872,271.940 224.531,272.600 224.371 L 273.800 224.082 272.380 224.041 C 271.599 224.018,270.766 224.194,270.528 224.432 M260.683 232.412 C 260.103 233.088,260.094 233.200,260.616 233.200 C 260.951 233.200,261.332 232.922,261.462 232.583 C 261.829 231.627,261.429 231.540,260.683 232.412 M259.067 234.517 C 258.663 234.929,258.406 235.340,258.496 235.429 C 258.782 235.716,260.116 234.545,259.955 234.148 C 259.870 233.938,259.470 234.104,259.067 234.517 M257.481 237.037 C 256.755 238.011,256.951 238.272,257.939 237.646 C 258.236 237.458,258.416 237.027,258.339 236.689 C 258.231 236.211,258.039 236.289,257.481 237.037 M255.900 239.283 C 254.902 240.305,255.030 240.989,256.043 240.046 C 256.507 239.613,256.822 239.104,256.743 238.913 C 256.664 238.723,256.285 238.889,255.900 239.283 M254.300 242.212 C 253.915 242.728,253.600 243.407,253.600 243.721 C 253.600 244.035,253.240 244.750,252.800 245.309 C 252.360 245.869,252.000 246.589,252.000 246.909 C 252.000 247.230,251.640 247.950,251.200 248.509 C 250.760 249.069,250.400 249.698,250.400 249.907 C 250.400 250.117,249.410 252.237,248.200 254.618 C 246.990 256.999,246.006 259.050,246.013 259.174 C 246.043 259.679,247.600 257.467,247.600 256.919 C 247.600 256.593,247.960 255.869,248.400 255.309 C 248.840 254.750,249.200 253.978,249.200 253.595 C 249.200 253.212,249.458 252.683,249.774 252.421 C 250.090 252.159,250.462 251.430,250.600 250.800 C 250.738 250.170,251.098 249.450,251.400 249.200 C 251.702 248.950,252.067 248.205,252.212 247.545 C 252.357 246.886,252.708 246.257,252.993 246.147 C 253.277 246.038,253.623 245.387,253.760 244.701 C 253.897 244.014,254.296 243.136,254.646 242.749 C 254.996 242.363,255.219 241.873,255.141 241.660 C 255.063 241.448,254.685 241.696,254.300 242.212 M245.317 260.477 C 245.051 260.985,244.529 262.075,244.156 262.900 C 243.783 263.725,243.340 264.400,243.171 264.400 C 243.002 264.400,242.748 264.928,242.606 265.572 C 242.464 266.217,242.109 266.944,241.816 267.187 C 241.523 267.430,241.165 268.262,241.020 269.035 C 240.875 269.809,240.496 270.542,240.178 270.664 C 239.860 270.786,239.600 271.143,239.600 271.458 C 239.600 272.416,241.046 270.769,241.363 269.452 C 241.515 268.820,241.901 268.042,242.220 267.723 C 242.539 267.404,242.800 266.824,242.800 266.433 C 242.800 266.043,243.160 265.398,243.600 265.000 C 244.040 264.602,244.400 263.911,244.400 263.464 C 244.400 263.017,244.776 262.251,245.236 261.761 C 245.696 261.272,246.011 260.575,245.936 260.213 C 245.827 259.684,245.705 259.736,245.317 260.477 M238.758 273.337 C 238.405 273.811,237.978 274.650,237.809 275.200 C 237.640 275.750,237.344 276.399,237.150 276.642 C 236.623 277.304,233.213 284.145,233.206 284.554 C 233.196 285.164,234.675 283.050,234.992 282.000 C 235.159 281.450,235.529 280.730,235.816 280.400 C 236.103 280.070,236.459 279.312,236.608 278.716 C 236.757 278.120,237.131 277.423,237.439 277.167 C 237.748 276.911,238.000 276.371,238.000 275.967 C 238.000 275.562,238.376 274.881,238.836 274.452 C 239.296 274.023,239.611 273.403,239.536 273.073 C 239.430 272.605,239.259 272.662,238.758 273.337 M162.032 274.646 C 162.014 275.111,162.360 275.950,162.800 276.509 C 163.240 277.069,163.600 277.789,163.600 278.109 C 163.600 278.430,163.960 279.150,164.400 279.709 C 164.840 280.269,165.200 280.978,165.200 281.287 C 165.200 282.088,166.278 283.455,166.632 283.102 C 166.795 282.939,166.651 282.489,166.312 282.102 C 165.972 281.716,165.562 280.950,165.400 280.400 C 165.238 279.850,164.878 279.130,164.600 278.800 C 164.322 278.470,163.962 277.750,163.800 277.200 C 163.638 276.650,163.280 275.930,163.005 275.600 C 162.730 275.270,162.405 274.730,162.284 274.400 C 162.132 273.988,162.053 274.065,162.032 274.646 M166.800 284.482 C 166.800 284.846,167.082 285.425,167.428 285.771 C 168.877 287.220,168.967 288.633,169.192 313.600 C 169.354 331.597,169.544 338.497,169.899 339.306 C 170.605 340.913,172.687 342.804,173.714 342.772 C 174.371 342.751,174.442 342.674,173.987 342.472 C 170.002 340.706,170.225 342.312,169.999 313.858 C 169.805 289.469,169.770 288.552,168.992 287.200 C 167.535 284.667,166.800 283.756,166.800 284.482 M232.200 286.337 C 231.427 287.365,231.392 288.208,231.172 311.600 C 230.905 339.947,230.888 340.078,227.193 342.059 C 226.139 342.625,226.007 342.800,226.634 342.800 C 227.668 342.800,229.634 341.031,230.635 339.200 C 231.359 337.875,231.411 336.454,231.600 312.742 C 231.789 289.067,231.841 287.638,232.541 286.865 C 232.949 286.415,233.219 285.873,233.141 285.660 C 233.063 285.448,232.640 285.752,232.200 286.337 M174.894 343.282 C 175.144 344.034,223.908 344.249,224.924 343.503 C 225.478 343.097,220.721 342.977,200.166 342.882 C 179.483 342.787,174.754 342.861,174.894 343.282 " stroke="none" fill="#264432" fill-rule="evenodd"></path><path id="path4" d="M326.745 88.341 C 328.118 89.631,328.244 90.453,327.398 92.600 C 327.159 93.205,327.198 93.294,327.556 92.965 C 329.091 91.556,328.371 88.645,326.204 87.501 C 325.762 87.267,326.005 87.645,326.745 88.341 M73.614 88.374 C 72.983 89.553,73.120 89.892,73.823 88.889 C 75.966 85.829,85.572 93.324,92.939 103.803 C 93.346 104.381,93.782 104.752,93.908 104.626 C 94.034 104.500,93.829 104.082,93.453 103.698 C 93.076 103.314,91.771 101.650,90.551 100.000 C 86.742 94.847,84.193 92.508,78.275 88.731 C 76.232 87.428,74.204 87.272,73.614 88.374 M323.424 88.213 C 322.425 88.968,322.795 88.963,324.254 88.202 C 324.884 87.874,325.130 87.610,324.800 87.615 C 324.470 87.621,323.851 87.890,323.424 88.213 M319.600 90.454 C 317.844 92.045,317.839 92.056,319.400 90.905 C 320.280 90.256,321.360 89.522,321.800 89.274 C 322.353 88.963,322.415 88.824,322.000 88.824 C 321.670 88.824,320.590 89.558,319.600 90.454 M73.241 92.340 C 73.198 93.317,74.370 96.164,74.685 95.849 C 74.784 95.750,74.639 95.248,74.363 94.734 C 74.087 94.220,73.731 93.260,73.571 92.600 C 73.327 91.589,73.275 91.548,73.241 92.340 M314.800 94.697 C 314.030 95.515,313.760 95.920,314.200 95.597 C 315.317 94.775,316.819 93.199,316.481 93.204 C 316.326 93.207,315.570 93.878,314.800 94.697 M326.104 96.684 C 325.831 97.266,325.682 97.815,325.772 97.905 C 326.012 98.146,326.873 96.418,326.726 95.991 C 326.657 95.790,326.377 96.102,326.104 96.684 M74.853 97.800 C 74.853 98.240,75.189 99.590,75.600 100.800 C 76.011 102.010,76.347 102.640,76.347 102.200 C 76.347 101.760,76.011 100.410,75.600 99.200 C 75.189 97.990,74.853 97.360,74.853 97.800 M310.668 99.300 C 309.300 100.910,308.007 102.617,306.907 104.263 C 304.792 107.429,304.376 108.110,304.490 108.223 C 304.561 108.294,305.749 106.698,307.130 104.676 C 308.512 102.654,310.286 100.235,311.073 99.300 C 311.860 98.365,312.416 97.600,312.308 97.600 C 312.201 97.600,311.463 98.365,310.668 99.300 M324.688 102.400 C 324.028 106.415,324.001 107.437,324.621 105.000 C 324.956 103.680,325.175 102.150,325.107 101.600 C 325.020 100.894,324.897 101.130,324.688 102.400 M76.559 110.000 C 76.559 113.190,76.621 114.495,76.697 112.900 C 76.773 111.305,76.773 108.695,76.697 107.100 C 76.621 105.505,76.559 106.810,76.559 110.000 M94.000 105.421 C 94.000 105.560,94.360 106.131,94.800 106.691 C 95.240 107.250,95.600 107.932,95.600 108.205 C 95.600 108.478,95.858 108.917,96.174 109.179 C 96.490 109.441,96.862 110.170,97.000 110.800 C 97.138 111.430,97.510 112.159,97.826 112.421 C 98.142 112.683,98.421 113.281,98.446 113.749 C 98.486 114.468,98.522 114.487,98.681 113.870 C 98.785 113.469,98.607 112.839,98.286 112.470 C 97.964 112.102,97.484 111.125,97.220 110.300 C 96.955 109.475,96.591 108.800,96.412 108.800 C 96.233 108.800,95.963 108.305,95.811 107.700 C 95.569 106.734,94.000 104.760,94.000 105.421 M303.479 109.974 C 303.106 110.606,302.800 111.363,302.800 111.656 C 302.800 111.949,303.171 111.497,303.624 110.651 C 304.590 108.849,304.471 108.294,303.479 109.974 M301.845 113.901 C 301.447 114.782,301.209 115.839,301.315 116.251 C 301.459 116.813,301.519 116.748,301.554 115.989 C 301.579 115.433,301.883 114.573,302.230 114.079 C 302.576 113.584,302.794 112.982,302.713 112.740 C 302.633 112.498,302.242 113.020,301.845 113.901 M324.231 114.200 C 325.210 118.371,325.185 118.304,324.991 116.271 C 324.890 115.210,324.614 114.040,324.378 113.671 C 324.044 113.148,324.012 113.264,324.231 114.200 M98.828 115.200 C 98.828 115.530,99.086 116.250,99.400 116.800 C 99.730 117.378,99.972 117.547,99.972 117.200 C 99.972 116.870,99.714 116.150,99.400 115.600 C 99.070 115.022,98.828 114.853,98.828 115.200 M75.429 118.829 C 75.031 119.934,74.783 120.916,74.877 121.010 C 74.971 121.105,75.374 120.277,75.771 119.171 C 76.169 118.066,76.417 117.084,76.323 116.990 C 76.229 116.895,75.826 117.723,75.429 118.829 M300.470 118.370 C 300.212 119.112,300.013 120.008,300.028 120.360 C 300.044 120.712,300.317 120.289,300.635 119.420 C 300.953 118.551,301.152 117.656,301.077 117.431 C 301.002 117.206,300.729 117.629,300.470 118.370 M100.101 119.400 C 100.105 120.280,100.187 120.593,100.283 120.095 C 100.379 119.598,100.375 118.878,100.275 118.495 C 100.175 118.113,100.096 118.520,100.101 119.400 M325.656 121.000 C 325.758 121.220,326.161 122.101,326.551 122.958 C 327.275 124.550,328.400 125.961,328.400 125.278 C 328.400 125.069,328.142 124.683,327.826 124.421 C 327.510 124.159,327.138 123.430,327.000 122.800 C 326.862 122.170,326.461 121.418,326.109 121.128 C 325.758 120.837,325.554 120.780,325.656 121.000 M73.657 123.769 C 73.163 124.818,72.584 125.885,72.369 126.138 C 72.155 126.392,71.405 127.500,70.704 128.600 C 70.003 129.700,69.332 130.690,69.214 130.800 C 68.629 131.341,66.703 134.437,66.856 134.590 C 67.261 134.994,74.917 122.951,74.689 122.268 C 74.615 122.044,74.150 122.719,73.657 123.769 M100.540 125.200 C 100.540 127.070,100.609 127.835,100.693 126.900 C 100.777 125.965,100.777 124.435,100.693 123.500 C 100.609 122.565,100.540 123.330,100.540 125.200 M299.709 124.400 C 299.709 125.390,299.787 125.795,299.882 125.300 C 299.978 124.805,299.978 123.995,299.882 123.500 C 299.787 123.005,299.709 123.410,299.709 124.400 M331.441 130.879 C 332.293 132.125,333.063 133.070,333.154 132.979 C 333.361 132.772,331.312 129.791,330.498 129.116 C 330.165 128.839,330.590 129.633,331.441 130.879 M100.128 131.600 C 100.128 133.030,100.201 133.615,100.289 132.900 C 100.378 132.185,100.378 131.015,100.289 130.300 C 100.201 129.585,100.128 130.170,100.128 131.600 M300.069 130.800 C 300.064 131.790,300.303 133.230,300.600 134.000 C 301.274 135.751,301.276 135.333,300.607 131.800 C 300.123 129.243,300.076 129.156,300.069 130.800 M334.641 135.679 C 335.493 136.925,336.263 137.870,336.354 137.779 C 336.561 137.572,334.512 134.591,333.698 133.916 C 333.365 133.639,333.790 134.433,334.641 135.679 M99.291 136.900 C 99.021 137.646,98.809 138.604,98.819 139.028 C 98.830 139.453,99.111 139.023,99.443 138.073 C 99.776 137.123,99.988 136.165,99.915 135.944 C 99.841 135.724,99.560 136.154,99.291 136.900 M301.413 138.728 C 301.512 140.118,301.865 141.643,302.197 142.117 C 302.912 143.138,302.966 142.873,302.357 141.326 C 302.114 140.707,301.761 139.300,301.574 138.200 C 301.244 136.266,301.239 136.284,301.413 138.728 M64.491 138.149 C 64.001 138.864,63.600 139.598,63.600 139.781 C 63.600 139.963,64.059 139.435,64.620 138.609 C 65.181 137.782,65.582 137.048,65.511 136.977 C 65.440 136.907,64.981 137.434,64.491 138.149 M98.460 141.429 C 98.427 142.105,98.110 143.509,97.755 144.550 C 97.400 145.592,97.194 146.528,97.297 146.631 C 97.661 146.994,98.856 142.437,98.689 141.326 L 98.520 140.200 98.460 141.429 M339.288 143.309 C 340.009 144.469,340.944 146.090,341.364 146.911 C 341.785 147.733,342.207 148.326,342.303 148.230 C 342.590 147.944,338.621 141.200,338.166 141.200 C 338.061 141.200,338.566 142.149,339.288 143.309 M61.459 142.865 C 61.126 143.379,60.732 144.295,60.584 144.900 C 60.435 145.505,60.168 146.000,59.990 146.000 C 59.812 146.000,59.091 147.215,58.387 148.700 C 57.683 150.185,56.498 152.682,55.753 154.249 C 55.009 155.816,54.415 157.436,54.434 157.849 C 54.460 158.407,54.549 158.343,54.783 157.600 C 55.270 156.048,59.598 147.073,60.183 146.400 C 60.470 146.070,60.838 145.350,61.000 144.800 C 61.162 144.250,61.572 143.484,61.912 143.098 C 62.251 142.711,62.424 142.291,62.296 142.163 C 62.168 142.035,61.792 142.351,61.459 142.865 M302.893 145.200 C 302.893 145.970,302.975 146.285,303.076 145.900 C 303.176 145.515,303.176 144.885,303.076 144.500 C 302.975 144.115,302.893 144.430,302.893 145.200 M303.239 147.000 C 303.224 147.220,303.471 148.120,303.788 149.000 C 304.105 149.880,304.365 150.240,304.364 149.800 C 304.364 148.972,303.285 146.290,303.239 147.000 M96.694 148.688 C 96.576 149.519,96.341 150.545,96.171 150.966 C 95.963 151.486,96.007 151.643,96.309 151.456 C 96.771 151.171,97.443 147.710,97.103 147.369 C 96.996 147.263,96.812 147.856,96.694 148.688 M304.449 152.000 C 304.425 152.550,304.674 153.516,305.002 154.146 C 305.331 154.776,305.614 155.586,305.632 155.946 C 305.654 156.412,305.724 156.446,305.877 156.065 C 305.994 155.771,305.808 154.871,305.464 154.065 C 305.119 153.259,304.760 152.240,304.665 151.800 C 304.528 151.161,304.484 151.202,304.449 152.000 M95.200 154.751 C 95.200 155.164,94.930 156.149,94.600 156.938 C 94.270 157.728,94.008 158.695,94.018 159.087 C 94.041 160.027,95.228 156.966,95.486 155.300 C 95.597 154.585,95.578 154.000,95.444 154.000 C 95.310 154.000,95.200 154.338,95.200 154.751 M346.324 157.800 C 346.526 158.240,346.792 158.870,346.914 159.200 C 347.107 159.718,347.141 159.715,347.168 159.176 C 347.186 158.834,346.920 158.204,346.578 157.776 C 345.966 157.012,345.962 157.013,346.324 157.800 M306.044 158.400 C 306.045 159.346,307.537 163.448,307.572 162.600 C 307.581 162.380,307.241 161.120,306.816 159.800 C 306.366 158.404,306.043 157.818,306.044 158.400 M53.450 160.391 C 53.093 161.285,52.806 162.328,52.813 162.708 C 52.820 163.089,53.167 162.412,53.584 161.204 C 54.477 158.616,54.385 158.055,53.450 160.391 M93.247 162.441 C 92.943 163.628,92.644 165.320,92.582 166.200 C 92.518 167.100,92.551 167.275,92.656 166.600 C 92.759 165.940,93.119 164.658,93.456 163.752 C 93.793 162.845,94.009 161.694,93.935 161.193 C 93.843 160.570,93.625 160.965,93.247 162.441 M347.429 161.000 C 348.372 163.707,348.765 164.530,348.766 163.800 C 348.766 163.360,348.403 162.370,347.959 161.600 C 347.514 160.830,347.276 160.560,347.429 161.000 M52.070 164.770 C 51.812 165.512,51.613 166.408,51.628 166.760 C 51.644 167.112,51.917 166.689,52.235 165.820 C 52.553 164.951,52.752 164.056,52.677 163.831 C 52.602 163.606,52.329 164.029,52.070 164.770 M307.772 168.283 C 307.810 173.742,307.821 173.731,301.687 174.025 L 297.000 174.250 301.700 174.325 C 308.117 174.427,308.971 173.462,308.123 167.064 L 307.743 164.200 307.772 168.283 M349.463 168.480 C 349.800 170.249,350.000 170.401,350.000 168.890 C 350.000 168.207,349.823 167.538,349.606 167.404 C 349.360 167.252,349.306 167.655,349.463 168.480 M51.314 169.400 C 51.317 170.500,51.395 170.903,51.487 170.295 C 51.579 169.686,51.577 168.786,51.482 168.295 C 51.387 167.803,51.311 168.300,51.314 169.400 M350.155 175.800 C 350.156 178.660,350.220 179.778,350.297 178.283 C 350.374 176.789,350.374 174.449,350.296 173.083 C 350.218 171.718,350.155 172.940,350.155 175.800 M92.454 171.873 C 92.419 172.438,92.858 173.072,93.700 173.673 L 95.000 174.600 132.000 174.608 L 169.000 174.616 132.000 174.408 C 91.215 174.179,93.208 174.311,92.678 171.800 C 92.522 171.064,92.505 171.070,92.454 171.873 M50.940 175.200 C 50.940 177.070,51.009 177.835,51.093 176.900 C 51.177 175.965,51.177 174.435,51.093 173.500 C 51.009 172.565,50.940 173.330,50.940 175.200 M289.905 174.283 C 290.402 174.379,291.122 174.375,291.505 174.275 C 291.887 174.175,291.480 174.096,290.600 174.101 C 289.720 174.105,289.407 174.187,289.905 174.283 M170.400 175.128 C 173.359 176.469,175.607 178.989,177.873 183.501 C 178.895 185.537,179.800 187.133,179.884 187.049 C 180.027 186.906,178.786 184.145,177.974 182.800 C 177.775 182.470,177.362 181.660,177.057 181.000 C 176.088 178.901,171.647 174.772,170.419 174.828 C 169.878 174.853,169.875 174.890,170.400 175.128 M227.600 176.083 C 226.294 177.249,226.280 177.284,227.400 176.605 C 229.729 175.193,230.211 174.799,229.589 174.816 C 229.265 174.825,228.370 175.395,227.600 176.083 M51.350 183.000 C 51.351 185.420,51.416 186.358,51.496 185.085 C 51.576 183.812,51.575 181.832,51.494 180.685 C 51.414 179.538,51.349 180.580,51.350 183.000 M223.755 180.212 C 223.390 180.769,223.170 181.304,223.267 181.400 C 223.363 181.497,223.758 181.041,224.144 180.388 C 224.998 178.942,224.681 178.799,223.755 180.212 M222.279 183.174 C 221.906 183.806,221.601 184.476,221.601 184.662 C 221.602 184.848,221.972 184.395,222.423 183.655 C 222.874 182.915,223.179 182.246,223.101 182.167 C 223.022 182.089,222.652 182.542,222.279 183.174 M349.664 183.450 C 349.629 183.918,349.505 184.908,349.389 185.650 C 349.196 186.886,349.215 186.917,349.608 186.014 C 349.845 185.472,349.968 184.482,349.883 183.814 C 349.791 183.097,349.702 182.948,349.664 183.450 M220.042 187.642 C 219.336 188.989,218.832 190.165,218.922 190.256 C 219.013 190.346,219.649 189.303,220.337 187.937 C 221.025 186.571,221.528 185.395,221.457 185.323 C 221.385 185.251,220.748 186.295,220.042 187.642 M51.667 188.400 C 51.661 189.512,52.696 192.950,52.750 192.000 C 52.769 191.670,52.534 190.500,52.228 189.400 C 51.895 188.203,51.670 187.802,51.667 188.400 M180.000 187.736 C 180.000 187.871,180.359 188.570,180.799 189.290 C 181.238 190.011,181.598 190.358,181.599 190.063 C 181.599 189.768,181.240 189.069,180.800 188.509 C 180.360 187.950,180.000 187.602,180.000 187.736 M181.600 191.115 C 181.600 191.356,181.793 191.672,182.028 191.817 C 182.263 191.963,182.612 192.468,182.803 192.941 C 183.040 193.528,183.157 193.598,183.175 193.161 C 183.189 192.810,182.840 192.107,182.400 191.600 C 181.960 191.093,181.600 190.875,181.600 191.115 M217.800 192.534 C 216.612 194.983,216.611 195.200,217.797 193.289 C 218.381 192.347,218.801 191.421,218.730 191.231 C 218.658 191.041,218.240 191.627,217.800 192.534 M348.464 191.851 C 348.429 192.539,348.130 193.749,347.800 194.538 C 347.470 195.328,347.210 196.205,347.222 196.487 C 347.234 196.769,347.603 196.114,348.042 195.031 C 348.481 193.949,348.770 192.509,348.684 191.831 L 348.528 190.600 348.464 191.851 M52.860 193.854 C 52.799 195.130,53.977 199.356,54.303 199.030 C 54.401 198.932,54.202 197.985,53.860 196.926 C 53.519 195.867,53.167 194.460,53.079 193.800 L 52.920 192.600 52.860 193.854 M183.203 194.090 C 183.201 194.250,183.559 194.970,183.999 195.690 C 184.438 196.411,184.796 196.820,184.796 196.600 C 184.795 196.380,184.437 195.660,184.000 195.000 C 183.563 194.340,183.204 193.931,183.203 194.090 M213.855 200.455 C 213.029 202.012,212.425 203.358,212.513 203.446 C 212.601 203.535,213.336 202.319,214.145 200.745 C 214.955 199.172,215.559 197.825,215.487 197.754 C 215.415 197.682,214.681 198.897,213.855 200.455 M346.846 198.620 C 346.821 199.071,346.587 199.653,346.327 199.913 C 346.066 200.174,345.962 200.495,346.094 200.628 C 346.470 201.003,347.272 199.239,347.072 198.479 C 346.931 197.946,346.883 197.976,346.846 198.620 M54.457 200.200 C 54.429 200.640,54.763 201.540,55.200 202.200 C 55.712 202.972,55.996 203.168,55.997 202.749 C 55.999 202.391,55.741 201.883,55.424 201.620 C 55.107 201.357,54.772 200.750,54.678 200.271 C 54.526 199.485,54.504 199.478,54.457 200.200 M186.400 200.702 C 186.400 200.922,186.670 201.326,187.000 201.600 C 187.335 201.878,187.600 201.921,187.600 201.698 C 187.600 201.478,187.330 201.074,187.000 200.800 C 186.665 200.522,186.400 200.479,186.400 200.702 M187.625 202.636 C 187.592 203.218,189.955 207.925,190.428 208.217 C 191.027 208.587,190.855 207.744,190.226 207.221 C 189.910 206.959,189.536 206.219,189.395 205.577 C 189.254 204.935,188.960 204.299,188.741 204.164 C 188.523 204.029,188.188 203.532,187.997 203.059 C 187.807 202.587,187.639 202.396,187.625 202.636 M56.191 204.598 C 56.342 205.257,56.655 206.026,56.889 206.307 C 57.667 207.245,57.598 206.565,56.753 204.973 C 56.006 203.564,55.947 203.525,56.191 204.598 M211.479 205.174 C 210.504 206.825,210.653 207.251,211.657 205.683 C 212.120 204.959,212.423 204.290,212.329 204.196 C 212.235 204.102,211.852 204.542,211.479 205.174 M57.625 207.400 C 57.625 208.931,64.893 217.600,66.176 217.600 C 66.400 217.600,65.926 217.059,65.124 216.398 C 63.570 215.117,59.982 210.791,58.512 208.428 C 58.024 207.642,57.625 207.180,57.625 207.400 M209.879 208.374 C 208.904 210.025,209.053 210.451,210.057 208.883 C 210.520 208.159,210.823 207.490,210.729 207.396 C 210.635 207.302,210.252 207.742,209.879 208.374 M341.421 210.112 C 341.016 210.821,340.306 211.845,339.842 212.388 C 339.154 213.195,339.138 213.269,339.754 212.794 C 340.582 212.156,342.548 209.215,342.308 208.975 C 342.225 208.892,341.826 209.404,341.421 210.112 M206.659 214.859 C 205.415 217.318,204.458 219.391,204.532 219.465 C 204.605 219.539,205.695 217.598,206.953 215.153 C 208.211 212.708,209.168 210.635,209.080 210.547 C 208.992 210.459,207.903 212.399,206.659 214.859 M192.466 212.600 C 192.783 213.325,194.455 216.574,195.245 218.000 C 195.822 219.040,195.955 219.143,195.763 218.400 C 195.621 217.850,195.278 217.130,195.000 216.800 C 194.722 216.470,194.359 215.750,194.192 215.200 C 194.026 214.650,193.530 213.750,193.091 213.200 C 192.651 212.650,192.370 212.380,192.466 212.600 M335.905 216.513 C 335.303 217.001,334.313 217.799,333.705 218.286 C 333.097 218.773,332.713 219.178,332.852 219.186 C 332.990 219.194,334.147 218.390,335.422 217.400 C 336.697 216.410,337.573 215.606,337.370 215.613 C 337.166 215.620,336.507 216.025,335.905 216.513 M69.544 219.977 C 70.064 220.430,70.694 220.797,70.944 220.794 C 71.422 220.787,70.757 220.258,69.400 219.564 C 68.771 219.242,68.802 219.331,69.544 219.977 M331.000 220.027 C 330.340 220.450,330.005 220.797,330.256 220.798 C 330.506 220.799,331.136 220.446,331.656 220.013 C 332.845 219.023,332.559 219.029,331.000 220.027 M202.420 223.359 C 200.748 226.734,200.071 227.239,199.106 225.829 C 198.910 225.542,198.810 225.569,198.806 225.909 C 198.798 226.573,200.883 227.551,201.076 226.973 C 201.152 226.743,201.928 225.136,202.799 223.402 C 203.670 221.668,204.319 220.186,204.242 220.108 C 204.164 220.031,203.344 221.494,202.420 223.359 M73.000 221.622 C 73.880 222.038,74.893 222.384,75.251 222.390 C 75.609 222.395,76.549 222.670,77.338 223.000 C 78.128 223.330,79.275 223.588,79.887 223.573 C 81.056 223.545,79.142 222.904,75.104 221.973 C 74.061 221.732,73.105 221.370,72.980 221.168 C 72.855 220.965,72.448 220.815,72.076 220.832 C 71.704 220.850,72.120 221.205,73.000 221.622 M197.203 222.101 C 197.201 222.267,197.560 223.075,198.000 223.896 C 198.440 224.716,198.799 225.121,198.797 224.794 C 198.796 224.467,198.437 223.660,198.000 223.000 C 197.563 222.340,197.204 221.936,197.203 222.101 M322.400 223.000 C 321.492 223.350,321.281 223.543,321.800 223.552 C 322.240 223.558,323.140 223.317,323.800 223.014 C 325.348 222.306,324.233 222.294,322.400 223.000 M93.900 223.900 C 100.335 223.962,110.865 223.962,117.300 223.900 C 123.735 223.838,118.470 223.787,105.600 223.787 C 92.730 223.787,87.465 223.838,93.900 223.900 M283.700 223.900 C 290.465 223.961,301.535 223.961,308.300 223.900 C 315.065 223.838,309.530 223.788,296.000 223.788 C 282.470 223.788,276.935 223.838,283.700 223.900 M129.600 224.366 C 129.930 224.554,130.830 224.824,131.600 224.966 L 133.000 225.225 131.654 224.612 C 130.176 223.940,128.499 223.739,129.600 224.366 M269.780 224.361 C 269.571 224.560,269.040 224.809,268.600 224.915 C 267.820 225.103,267.820 225.108,268.624 225.154 C 269.076 225.179,269.796 224.936,270.224 224.613 C 270.651 224.290,270.811 224.020,270.580 224.013 C 270.349 224.006,269.989 224.163,269.780 224.361 M134.383 226.100 C 135.954 227.132,138.146 229.236,139.600 231.109 C 141.509 233.569,142.000 234.121,142.000 233.805 C 142.000 232.507,134.737 225.243,133.406 225.210 C 133.189 225.204,133.628 225.605,134.383 226.100 M263.697 228.137 C 262.321 229.492,261.196 230.750,261.197 230.933 C 261.199 231.116,260.548 232.061,259.752 233.033 C 258.955 234.005,258.499 234.800,258.738 234.800 C 258.977 234.800,259.383 234.406,259.640 233.925 C 259.898 233.444,260.444 232.690,260.854 232.250 C 261.264 231.809,261.600 231.288,261.600 231.090 C 261.600 230.893,262.696 229.652,264.035 228.334 C 265.374 227.015,266.409 225.877,266.335 225.805 C 266.261 225.733,265.074 226.783,263.697 228.137 M142.000 234.583 C 142.000 234.743,142.360 235.331,142.800 235.891 C 143.240 236.450,143.600 236.777,143.600 236.617 C 143.600 236.457,143.240 235.869,142.800 235.309 C 142.360 234.750,142.000 234.423,142.000 234.583 M257.200 236.896 C 256.650 237.785,255.962 238.758,255.671 239.057 C 255.381 239.356,255.305 239.600,255.504 239.600 C 255.895 239.600,258.580 235.643,258.344 235.416 C 258.265 235.340,257.750 236.006,257.200 236.896 M143.601 237.537 C 143.601 237.832,143.960 238.531,144.400 239.091 C 145.427 240.396,145.428 239.993,144.401 238.310 C 143.962 237.589,143.602 237.242,143.601 237.537 M254.316 241.513 L 253.632 243.000 254.416 242.056 C 254.847 241.536,255.200 240.861,255.200 240.556 C 255.200 239.733,255.070 239.873,254.316 241.513 M145.201 240.851 C 145.201 241.209,145.470 241.726,145.800 242.000 C 146.130 242.274,146.414 242.791,146.432 243.149 C 146.449 243.507,146.548 243.594,146.651 243.342 C 146.754 243.090,146.471 242.280,146.021 241.542 C 145.547 240.764,145.202 240.473,145.201 240.851 M146.809 244.137 C 146.804 244.322,147.160 244.931,147.600 245.491 C 148.040 246.050,148.396 246.349,148.391 246.154 C 148.379 245.687,146.820 243.700,146.809 244.137 M251.116 247.913 L 250.432 249.400 251.216 248.456 C 251.647 247.936,252.000 247.261,252.000 246.956 C 252.000 246.133,251.870 246.273,251.116 247.913 M148.413 246.937 C 148.406 247.122,148.760 247.731,149.200 248.291 C 149.640 248.850,150.000 249.124,150.000 248.898 C 150.000 248.400,148.432 246.461,148.413 246.937 M249.625 250.883 C 249.315 251.607,248.989 252.380,248.901 252.600 C 248.812 252.820,249.129 252.418,249.605 251.706 C 250.081 250.995,250.407 250.222,250.330 249.989 C 250.252 249.756,249.935 250.158,249.625 250.883 M150.000 250.302 C 150.000 250.522,150.270 250.926,150.600 251.200 C 150.935 251.478,151.200 251.521,151.200 251.298 C 151.200 251.078,150.930 250.674,150.600 250.400 C 150.265 250.122,150.000 250.079,150.000 250.302 M151.600 253.514 C 151.600 253.781,151.740 254.000,151.911 254.000 C 152.082 254.000,152.745 255.215,153.384 256.700 C 154.711 259.783,155.614 261.320,155.918 261.015 C 156.034 260.899,155.862 260.489,155.535 260.102 C 155.209 259.716,154.439 258.230,153.824 256.800 C 152.699 254.185,151.600 252.561,151.600 253.514 M247.879 254.374 C 246.904 256.025,247.053 256.451,248.057 254.883 C 248.520 254.159,248.823 253.490,248.729 253.396 C 248.635 253.302,248.252 253.742,247.879 254.374 M245.463 259.238 C 243.798 262.475,243.662 262.938,244.800 261.491 C 245.240 260.931,245.600 260.320,245.600 260.131 C 245.600 259.942,245.971 259.097,246.424 258.251 C 246.877 257.406,247.175 256.642,247.087 256.554 C 246.999 256.465,246.268 257.673,245.463 259.238 M156.001 261.706 C 156.000 262.103,158.423 266.400,158.648 266.400 C 158.743 266.400,158.530 265.838,158.175 265.152 C 157.187 263.240,156.003 261.364,156.001 261.706 M159.037 267.600 C 159.179 268.150,159.529 268.870,159.816 269.200 C 160.103 269.530,160.459 270.288,160.608 270.884 C 160.757 271.480,161.131 272.177,161.439 272.433 C 161.748 272.689,162.000 273.176,162.000 273.516 C 162.000 273.855,162.120 274.014,162.266 273.868 C 162.503 273.631,161.689 271.878,159.489 267.889 C 158.913 266.844,158.828 266.790,159.037 267.600 M240.351 269.453 C 239.993 270.194,239.863 270.800,240.060 270.800 C 240.450 270.800,241.298 268.860,241.113 268.392 C 241.051 268.235,240.708 268.712,240.351 269.453 M238.716 272.713 L 238.032 274.200 238.816 273.256 C 239.247 272.736,239.600 272.061,239.600 271.756 C 239.600 270.933,239.470 271.073,238.716 272.713 M162.400 274.702 C 162.400 274.922,162.670 275.326,163.000 275.600 C 163.335 275.878,163.600 275.921,163.600 275.698 C 163.600 275.478,163.330 275.074,163.000 274.800 C 162.665 274.522,162.400 274.479,162.400 274.702 M164.000 277.871 C 164.000 278.108,164.258 278.517,164.574 278.779 C 164.890 279.041,165.262 279.770,165.400 280.400 C 165.538 281.030,165.910 281.759,166.226 282.021 C 167.021 282.681,166.954 282.412,165.767 280.160 C 164.630 278.004,164.000 277.188,164.000 277.871 M235.480 278.880 C 235.092 279.556,234.857 280.191,234.958 280.291 C 235.059 280.392,235.438 279.901,235.800 279.200 C 236.657 277.543,236.397 277.283,235.480 278.880 M233.880 282.080 C 233.492 282.756,233.257 283.391,233.358 283.491 C 233.459 283.592,233.838 283.101,234.200 282.400 C 235.057 280.743,234.797 280.483,233.880 282.080 M166.825 283.256 C 166.811 283.616,167.154 284.336,167.587 284.856 C 168.019 285.375,168.379 285.586,168.387 285.324 C 168.394 285.062,168.207 284.728,167.972 284.583 C 167.737 284.437,167.388 283.932,167.197 283.459 C 166.949 282.843,166.844 282.785,166.825 283.256 M232.288 285.263 C 231.896 285.948,231.656 286.590,231.756 286.689 C 232.029 286.962,233.295 284.885,233.138 284.422 C 233.062 284.200,232.679 284.578,232.288 285.263 M169.057 287.600 C 169.308 287.930,169.602 288.560,169.711 289.000 C 169.897 289.760,169.910 289.757,169.954 288.949 C 169.979 288.481,169.685 287.851,169.300 287.549 C 168.691 287.072,168.660 287.078,169.057 287.600 M230.863 288.746 C 230.278 290.699,230.216 336.956,230.800 335.957 C 231.075 335.486,231.633 287.199,231.363 287.200 C 231.343 287.200,231.118 287.896,230.863 288.746 M170.060 337.646 C 170.000 338.686,171.060 340.373,172.597 341.687 C 174.100 342.972,173.868 342.405,172.160 340.623 C 171.224 339.646,170.382 338.341,170.289 337.723 C 170.120 336.601,170.120 336.601,170.060 337.646 M230.040 337.600 C 229.941 339.042,229.176 340.237,227.614 341.390 C 226.861 341.945,226.387 342.400,226.561 342.400 C 228.045 342.400,230.583 339.036,230.279 337.473 C 230.124 336.679,230.103 336.691,230.040 337.600 M196.700 343.082 C 197.195 343.178,198.005 343.178,198.500 343.082 C 198.995 342.987,198.590 342.909,197.600 342.909 C 196.610 342.909,196.205 342.987,196.700 343.082 M207.276 343.099 C 210.068 343.167,214.748 343.168,217.676 343.099 C 220.604 343.031,218.320 342.975,212.600 342.974 C 206.880 342.974,204.484 343.030,207.276 343.099 " stroke="none" fill="#2b593e" fill-rule="evenodd"></path></g></svg>