<svg width="65" height="18" viewBox="0 0 65 18" fill="none" xmlns="http://www.w3.org/2000/svg">
    <g clip-path="url(#q1blb8ydea)">
        <path fill-rule="evenodd" clip-rule="evenodd" d="M20.437 7.648c-.49 0-.893.172-1.209.506-.305.334-.458.755-.458 1.261 0 1.002.676 1.767 1.667 1.767.969 0 1.666-.7 1.666-1.767s-.697-1.767-1.666-1.767zm3.158-1.131v5.797h-1.492v-.819c-.392.636-1.09.97-1.906.97-1.634 0-2.853-1.336-2.853-3.05-.022-1.692 1.23-3.081 2.853-3.05.817 0 1.514.324 1.906.96v-.808h1.492zM29.181 12.11c-.337.216-.903.356-1.437.356-1.448 0-2.21-.819-2.21-2.414V7.8H24.28V6.518h1.253V4.976h1.48v1.54h1.95V7.8h-1.95v2.241c0 .733.316 1.12.926 1.12.327 0 .632-.074.915-.225l.326 1.175zM32.709 7.659c-1.002 0-1.688.765-1.688 1.756 0 .506.152.916.468 1.25.316.334.719.496 1.22.496.5 0 .904-.162 1.22-.496.315-.334.478-.744.478-1.25 0-.991-.685-1.756-1.698-1.756zm0-1.294c1.796 0 3.114 1.315 3.114 3.05 0 1.735-1.318 3.05-3.114 3.05-1.754.021-3.147-1.336-3.115-3.05-.032-1.713 1.361-3.071 3.115-3.05zM46.221 12.313H44.74V9.146c0-.981-.414-1.498-1.165-1.498-.773 0-1.34.679-1.34 1.638v3.027h-1.491V9.146c0-.981-.414-1.498-1.166-1.498-.38 0-.708.15-.958.463-.25.313-.381.7-.381 1.175v3.027h-1.481V6.516h1.48v.83c.317-.593.938-.98 1.689-.98.914 0 1.59.398 1.97 1.13.382-.69 1.068-1.13 1.994-1.13 1.448 0 2.33 1.001 2.33 2.672v3.275z" fill="#78798D"/>
        <mask id="kbtk53p09b" style="mask-type:alpha" maskUnits="userSpaceOnUse" x="0" y="1" width="63" height="17">
            <path fill-rule="evenodd" clip-rule="evenodd" d="M.39 17.549h61.835V1.283H.391V17.55z" fill="#fff"/>
        </mask>
        <g mask="url(#kbtk53p09b)" fill-rule="evenodd" clip-rule="evenodd">
            <path d="M47.415 12.313h1.481V6.516h-1.48v5.797zm.741-8.319c.523 0 .926.388.926.873 0 .506-.392.873-.926.873-.533 0-.925-.367-.925-.873 0-.485.392-.873.925-.873zM52.947 6.365c1.121 0 2.08.507 2.613 1.337l-1.208.678a1.676 1.676 0 0 0-1.405-.721c-1.002 0-1.688.765-1.688 1.756 0 .506.153.916.468 1.25.316.334.719.496 1.22.496.61 0 1.11-.259 1.405-.722l1.208.69c-.533.819-1.492 1.336-2.613 1.336-1.753.021-3.147-1.336-3.114-3.05-.033-1.713 1.36-3.071 3.114-3.05zM59.065 7.648c-.49 0-.893.172-1.208.506-.305.334-.458.755-.458 1.261 0 1.002.675 1.767 1.666 1.767.97 0 1.667-.7 1.667-1.767s-.697-1.767-1.667-1.767zm3.159-1.131v5.797h-1.492v-.819c-.392.636-1.09.97-1.906.97-1.634 0-2.853-1.336-2.853-3.05-.022-1.692 1.23-3.081 2.853-3.05.817 0 1.514.324 1.906.96v-.808h1.492zM8.356 9.416c0 .702-.575 1.27-1.284 1.27a1.276 1.276 0 0 1-1.283-1.27c0-.7.575-1.27 1.283-1.27.709 0 1.284.57 1.284 1.27z" fill="#78798D"/>
            <path d="M7.112 1.283c2.062 0 4.108.814 5.59 2.24.608.585.965 1.34 1.042 2.176.156 1.697-1.108 2.954-2.823 2.785-.958-.095-1.863-.715-2.421-1.474-.928-1.26-1.706-2.624-3.204-3.306-1.268-.576-2.694-.449-3.991-.04a8.23 8.23 0 0 1 5.807-2.38z" fill="#A2A3BC"/>
            <path d="M7.036 1.283a8.155 8.155 0 0 0-5.369 2.035C1.094 3.828.66 4.482.482 5.225c-.461 1.93.873 3.444 2.745 3.259.957-.095 1.862-.715 2.42-1.474.928-1.26 1.706-2.624 3.205-3.306 1.267-.576 2.693-.449 3.99-.04a8.23 8.23 0 0 0-5.806-2.38z" fill="#B9BAD2"/>
            <path d="M7.036 17.55c-2.063 0-4.11-.814-5.59-2.24a3.413 3.413 0 0 1-1.042-2.176c-.156-1.697 1.108-2.954 2.823-2.785.957.095 1.862.715 2.42 1.474.928 1.26 1.706 2.624 3.205 3.306 1.267.576 2.693.449 3.99.04a8.23 8.23 0 0 1-5.806 2.38z" fill="#A2A3BC"/>
            <path d="M7.112 17.55c2.062 0 4.108-.814 5.59-2.24a3.411 3.411 0 0 0 1.042-2.176c.156-1.697-1.108-2.954-2.823-2.785-.958.095-1.863.715-2.421 1.474-.928 1.26-1.706 2.624-3.204 3.306-1.268.576-2.694.449-3.991.04a8.23 8.23 0 0 0 5.807 2.38z" fill="#B9BAD2"/>
        </g>
    </g>
    <defs>
        <clipPath id="q1blb8ydea">
            <path fill="#fff" transform="translate(.098 .729)" d="M0 0h64v17H0z"/>
        </clipPath>
    </defs>
</svg>
