<svg width="65" height="18" viewBox="0 0 65 18" fill="none" xmlns="http://www.w3.org/2000/svg">
    <path fill-rule="evenodd" clip-rule="evenodd" d="M20.433 7.647c-.49 0-.893.172-1.209.507-.305.333-.457.754-.457 1.26 0 1.003.675 1.768 1.666 1.768.969 0 1.666-.701 1.666-1.768 0-1.066-.697-1.767-1.666-1.767zm3.158-1.131v5.797h-1.492v-.818c-.392.635-1.09.97-1.906.97-1.634 0-2.853-1.337-2.853-3.05-.022-1.692 1.23-3.082 2.853-3.05.817 0 1.514.324 1.906.96v-.81h1.492zM29.176 12.11c-.338.215-.904.355-1.438.355-1.448 0-2.21-.819-2.21-2.413V7.799h-1.253V6.517h1.253V4.976h1.48v1.54h1.95V7.8h-1.95v2.241c0 .733.316 1.121.926 1.121.327 0 .632-.075.915-.226l.327 1.175zM32.703 7.658c-1.002 0-1.688.765-1.688 1.756 0 .507.152.916.468 1.25.316.335.719.496 1.22.496.5 0 .904-.162 1.22-.495.316-.335.479-.744.479-1.25 0-.992-.686-1.757-1.7-1.757zm0-1.293c1.797 0 3.114 1.314 3.114 3.05 0 1.734-1.317 3.05-3.114 3.05-1.753.02-3.147-1.337-3.115-3.05-.032-1.714 1.362-3.072 3.115-3.05zM46.217 12.313h-1.481V9.145c0-.98-.414-1.498-1.165-1.498-.773 0-1.34.679-1.34 1.638v3.028H40.74V9.145c0-.98-.414-1.498-1.166-1.498-.38 0-.707.15-.958.463-.25.313-.381.7-.381 1.175v3.028h-1.481V6.515h1.481v.83c.316-.593.937-.98 1.688-.98.914 0 1.59.398 1.97 1.131.382-.69 1.068-1.132 1.994-1.132 1.448 0 2.33 1.003 2.33 2.673v3.276z" fill="#566392"/>
    <mask id="cftxkc31wa" style="mask-type:alpha" maskUnits="userSpaceOnUse" x="0" y="1" width="63" height="17">
        <path fill-rule="evenodd" clip-rule="evenodd" d="M.387 17.548H62.22V1.282H.387v16.266z" fill="#fff"/>
    </mask>
    <g mask="url(#cftxkc31wa)" fill-rule="evenodd" clip-rule="evenodd">
        <path d="M47.411 12.312h1.481V6.515h-1.48v5.797zm.741-8.319c.523 0 .926.389.926.873 0 .507-.392.873-.926.873-.533 0-.925-.366-.925-.873 0-.484.392-.873.925-.873zM52.943 6.365c1.122 0 2.08.506 2.613 1.336l-1.208.679a1.676 1.676 0 0 0-1.405-.722c-1.002 0-1.688.765-1.688 1.756 0 .507.153.916.468 1.25.316.334.719.496 1.22.496.61 0 1.11-.259 1.405-.722l1.208.69c-.533.819-1.491 1.336-2.613 1.336-1.753.021-3.147-1.336-3.114-3.05-.033-1.713 1.36-3.071 3.114-3.05zM59.062 7.647c-.49 0-.894.172-1.21.507-.304.333-.457.754-.457 1.26 0 1.003.675 1.768 1.666 1.768.97 0 1.667-.701 1.667-1.768 0-1.066-.697-1.767-1.666-1.767zm3.158-1.131v5.797h-1.492v-.818c-.392.635-1.09.97-1.906.97-1.634 0-2.853-1.337-2.853-3.05-.022-1.692 1.23-3.082 2.853-3.05.817 0 1.514.324 1.906.96v-.81h1.492z" fill="#566392"/>
        <path d="M8.354 9.416c0 .701-.575 1.27-1.284 1.27a1.277 1.277 0 0 1-1.283-1.27c0-.702.575-1.27 1.283-1.27.71 0 1.284.568 1.284 1.27z" fill="#3E486D"/>
        <path d="M7.108 1.282c2.062 0 4.109.815 5.59 2.24.608.585.965 1.34 1.042 2.176.156 1.698-1.108 2.955-2.823 2.785-.957-.095-1.863-.715-2.421-1.474-.928-1.26-1.706-2.624-3.204-3.306-1.267-.576-2.694-.448-3.991-.04a8.23 8.23 0 0 1 5.807-2.38z" fill="#46527C"/>
        <path d="M7.032 1.282a8.155 8.155 0 0 0-5.369 2.035C1.09 3.827.656 4.482.478 5.224c-.46 1.93.873 3.444 2.745 3.259.957-.095 1.862-.715 2.42-1.474.928-1.26 1.706-2.624 3.205-3.306 1.267-.576 2.693-.448 3.99-.04a8.23 8.23 0 0 0-5.806-2.38z" fill="#566392"/>
        <path d="M7.032 17.549c-2.063 0-4.109-.814-5.59-2.24A3.412 3.412 0 0 1 .4 13.134c-.156-1.697 1.108-2.954 2.823-2.784.957.094 1.862.714 2.42 1.473.928 1.26 1.706 2.624 3.205 3.306 1.267.577 2.693.449 3.99.04a8.23 8.23 0 0 1-5.806 2.381z" fill="#46527C"/>
        <path d="M7.108 17.549c2.062 0 4.109-.814 5.59-2.24a3.41 3.41 0 0 0 1.042-2.176c.156-1.697-1.108-2.954-2.823-2.784-.957.094-1.863.714-2.421 1.473-.928 1.26-1.706 2.624-3.204 3.306-1.267.577-2.694.449-3.991.04a8.23 8.23 0 0 0 5.807 2.381z" fill="#566392"/>
    </g>
</svg>
