<svg width="81" height="14" viewBox="0 0 81 14" fill="none" xmlns="http://www.w3.org/2000/svg">
    <mask id="pitj7gjvra" style="mask-type:luminance" maskUnits="userSpaceOnUse" x="0" y="0" width="81" height="14">
        <path d="M80.417.736H.238v12.986h80.18V.736z" fill="#fff"/>
    </mask>
    <g mask="url(#pitj7gjvra)">
        <path d="M18.9 7.144c0 1.583 1.184 2.638 2.612 2.638a4.27 4.27 0 0 0 2.201-.617v1.531c-.296.18-1.184.515-2.188.515-2.33 0-4.17-1.763-4.17-4.067 0-2.304 1.84-4.067 4.17-4.067 1.004 0 1.892.335 2.188.515v1.531a4.27 4.27 0 0 0-2.2-.617c-1.43 0-2.613 1.055-2.613 2.638zm11.66.09v3.861H29.13v-3.41c0-.67-.296-1.184-1.068-1.184-.746 0-1.184.463-1.184 1.312v3.27h-1.416V2.716h1.429v3.59c.103-.257.502-1.068 1.712-1.068 1.222.013 1.956.747 1.956 1.995zm7.773 2.651v1.197h-1.84c-.129.013-.232-.09-.232-.219v-1.03c-.193.683-.72 1.365-1.814 1.365-1.493 0-2.562-1.107-2.562-2.973 0-1.892 1.184-2.986 2.652-2.986 1.351 0 1.621 1.107 1.621 1.107v-.978h1.429v4.53h.746v-.013zm-2.149-1.647c0-1.081-.515-1.75-1.377-1.75-.824 0-1.454.605-1.454 1.737 0 1.133.514 1.738 1.39 1.738.888.012 1.441-.567 1.441-1.725zM41.615 5.6v5.495h-1.428v-4.53h-1.043V5.368h2.24c.128-.013.231.103.231.232zm-.051-1.429h-1.545V2.73h1.545V4.17zm1.711 1.197h1.416v1.017c.051-.155.386-1.133 1.724-1.133 1.236 0 1.97.734 1.97 1.982v3.861h-1.429v-3.41c0-.67-.296-1.184-1.068-1.184-.747 0-1.184.463-1.184 1.312v3.27h-1.429V5.367zm12.883 4.517v1.197h-1.84c-.13.013-.232-.09-.232-.219v-1.03c-.193.683-.72 1.365-1.815 1.365-1.493 0-2.56-1.107-2.56-2.973 0-1.892 1.183-2.986 2.65-2.986 1.352 0 1.622 1.107 1.622 1.107v-.978h1.428v4.53h.747v-.013zm-2.15-1.647c0-1.081-.514-1.75-1.376-1.75-.824 0-1.455.605-1.455 1.737 0 1.133.528 1.738 1.39 1.738.888.012 1.442-.567 1.442-1.725zm5.071-5.16v8.017h-1.441V3.94h-.888V2.743h1.982a.328.328 0 0 1 .347.334zm2.574 10.655h-1.428v-1.197h1.055c.373 0 .554-.115.682-.463l.425-1.08-2.2-5.625h1.595l1.339 4.041 1.39-4.041h1.595l-2.818 7.246c-.309.772-.798 1.12-1.635 1.12zm5.238-3.011v-1.39c.194.129.978.643 1.866.643.67 0 .979-.193.979-.566 0-1.132-2.922-.296-2.922-2.445 0-.978.824-1.725 2.343-1.725.836 0 1.428.22 1.66.36v1.378c-.283-.18-.863-.554-1.635-.554-.682 0-.926.206-.926.528 0 .927 2.908.283 2.908 2.394 0 1.145-.952 1.866-2.342 1.866-.914 0-1.66-.309-1.93-.49zM74.575 5.6v5.495h-1.429v-4.53h-1.042V5.368h2.252c.129-.013.232.103.219.232zm-.039-1.429h-1.544V2.73h1.544V4.17zm1.57 6.55v-1.39c.193.13.978.644 1.866.644.682 0 .978-.193.978-.566 0-1.132-2.921-.296-2.921-2.445 0-.978.824-1.725 2.342-1.725.837 0 1.429.22 1.66.36v1.378a3.002 3.002 0 0 0-1.634-.554c-.682 0-.927.206-.927.528 0 .927 2.909.283 2.909 2.394 0 1.145-.952 1.866-2.342 1.866-.914 0-1.66-.309-1.93-.49z" fill="#999AB7"/>
    </g>
    <mask id="9ir13mfzhb" style="mask-type:luminance" maskUnits="userSpaceOnUse" x="0" y="0" width="81" height="14">
        <path d="M80.417.736H.238v12.986h80.18V.736z" fill="#fff"/>
    </mask>
    <g mask="url(#9ir13mfzhb)">
        <path d="M6.721.736c.142 0 .309.013.309.013a3.606 3.606 0 0 0-.837 2.072 4.37 4.37 0 0 0-3.616 3.72C1.74 6.63.788 7.017.235 7.57.105 3.798 3.002.735 6.72.735zm.94 11.326a3.471 3.471 0 0 1-.515.038c-.296 0-.605-.025-.901-.077a6.772 6.772 0 0 1-.914 1.557A6.48 6.48 0 0 1 .453 8.896c.592-.695 1.944-1.094 2.78-1.094 1.79 0 2.742.952 3.076 2.432-1.08-.296-1.724-.9-2.136-1.789a2.211 2.211 0 0 0-.772-.128c-.232 0-.477.038-.695.115.476 1.815 2.226 3.166 4.375 3.166 1.97 0 2.819-1.003 2.819-1.003V9.05s-.965 1.004-2.175 1.21a4.395 4.395 0 0 0-3.732-3.72c.308-1.53 1.48-2.393 3.075-2.393 1.596 0 2.87 1.158 2.87 1.158V3.786s-.823-.772-2.29-.926c.038-.67.476-1.519.952-1.828 1.995.618 3.912 2.304 4.466 4.762 0 0-.875.875-2.523.875-1.351 0-2.213-.682-2.69-1.866a2.336 2.336 0 0 0-.785-.128 2.05 2.05 0 0 0-.733.128c.528 1.905 2.214 3.179 4.08 3.179 1.827 0 2.818-.837 2.818-.837 0 3.81-2.909 6.526-6.358 6.603.387-.412.695-1.261.785-1.686z" fill="#999AB7"/>
    </g>
</svg>
