<svg width="81" height="14" viewBox="0 0 81 14" fill="none" xmlns="http://www.w3.org/2000/svg">
    <mask id="2zwc2yc7ra" style="mask-type:luminance" maskUnits="userSpaceOnUse" x="0" y="0" width="81" height="14">
        <path d="M80.415.735H.236v12.986h80.18V.735z" fill="#fff"/>
    </mask>
    <g mask="url(#2zwc2yc7ra)">
        <path d="M18.896 7.143c0 1.583 1.184 2.638 2.613 2.638a4.27 4.27 0 0 0 2.2-.617v1.531c-.296.18-1.184.515-2.188.515-2.33 0-4.17-1.763-4.17-4.067 0-2.304 1.84-4.067 4.17-4.067 1.004 0 1.892.335 2.188.515v1.532a4.27 4.27 0 0 0-2.2-.618c-1.429 0-2.613 1.055-2.613 2.638zm11.66.09v3.861h-1.428v-3.41c0-.67-.297-1.184-1.069-1.184-.746 0-1.184.463-1.184 1.312v3.27H25.46V2.715h1.428v3.59c.103-.257.502-1.068 1.712-1.068 1.222.013 1.956.747 1.956 1.995zm7.773 2.651v1.197h-1.84a.213.213 0 0 1-.232-.218v-1.03c-.193.682-.72 1.364-1.814 1.364-1.493 0-2.561-1.107-2.561-2.973 0-1.892 1.184-2.986 2.65-2.986 1.352 0 1.622 1.107 1.622 1.107v-.978h1.429v4.53h.746v-.013zM36.18 8.237c0-1.081-.515-1.75-1.377-1.75-.824 0-1.454.605-1.454 1.737 0 1.133.515 1.738 1.39 1.738.888.012 1.441-.567 1.441-1.725zm5.431-2.638v5.495h-1.428v-4.53H39.14V5.367h2.24c.128-.013.231.103.231.232zM41.56 4.17h-1.545V2.73h1.545V4.17zm1.711 1.197h1.416v1.017c.052-.155.386-1.133 1.725-1.133 1.235 0 1.969.734 1.969 1.982v3.861h-1.429v-3.41c0-.67-.296-1.184-1.068-1.184-.746 0-1.184.463-1.184 1.312v3.27H43.27V5.366zm12.883 4.517v1.197h-1.84a.213.213 0 0 1-.232-.218v-1.03c-.193.682-.72 1.364-1.815 1.364-1.492 0-2.56-1.107-2.56-2.973 0-1.892 1.183-2.986 2.65-2.986 1.352 0 1.622 1.107 1.622 1.107v-.978h1.429v4.53h.746v-.013zm-2.15-1.647c0-1.081-.514-1.75-1.376-1.75-.824 0-1.455.605-1.455 1.737 0 1.133.528 1.738 1.39 1.738.888.012 1.442-.567 1.442-1.725zm5.072-5.16v8.017h-1.442V3.94h-.888V2.742h1.982a.328.328 0 0 1 .347.334zm2.574 10.655h-1.43v-1.196h1.056c.373 0 .554-.116.682-.464l.425-1.08-2.2-5.625h1.595l1.339 4.041 1.39-4.04h1.596l-2.819 7.245c-.309.772-.798 1.12-1.634 1.12zm5.238-3.011V9.33c.193.129.978.643 1.866.643.669 0 .978-.193.978-.566 0-1.132-2.922-.296-2.922-2.445 0-.978.824-1.725 2.343-1.725.836 0 1.428.22 1.66.36v1.378c-.283-.18-.862-.554-1.635-.554-.682 0-.926.206-.926.528 0 .927 2.908.283 2.908 2.394 0 1.145-.952 1.866-2.342 1.866-.914 0-1.66-.309-1.93-.49zm7.683-5.122v5.495h-1.429v-4.53H72.1V5.367h2.252c.129-.013.232.103.219.232zm-.039-1.429h-1.544V2.73h1.544V4.17zm1.57 6.55V9.332c.193.129.978.643 1.866.643.682 0 .978-.193.978-.566 0-1.132-2.92-.296-2.92-2.445 0-.978.823-1.725 2.341-1.725.837 0 1.429.22 1.66.36v1.378a3.002 3.002 0 0 0-1.634-.554c-.682 0-.927.206-.927.528 0 .927 2.91.283 2.91 2.394 0 1.145-.953 1.866-2.343 1.866-.914 0-1.66-.309-1.93-.49z" fill="#8393CC"/>
    </g>
    <mask id="xihtzj2djb" style="mask-type:luminance" maskUnits="userSpaceOnUse" x="0" y="0" width="81" height="14">
        <path d="M80.415.735H.236v12.986h80.18V.735z" fill="#fff"/>
    </mask>
    <g mask="url(#xihtzj2djb)">
        <path d="M6.718.735c.142 0 .309.012.309.012A3.606 3.606 0 0 0 6.19 2.82a4.37 4.37 0 0 0-3.616 3.719c-.837.09-1.789.476-2.342 1.03C.103 3.798 2.999.735 6.718.735zm.94 11.325a3.471 3.471 0 0 1-.515.039c-.296 0-.605-.026-.901-.078a6.772 6.772 0 0 1-.914 1.558A6.48 6.48 0 0 1 .45 8.894C1.042 8.2 2.394 7.8 3.23 7.8c1.79 0 2.742.953 3.076 2.433-1.08-.296-1.724-.901-2.136-1.79a2.211 2.211 0 0 0-.772-.128c-.232 0-.477.039-.695.116.476 1.814 2.226 3.166 4.375 3.166 1.97 0 2.819-1.004 2.819-1.004V9.049s-.965 1.003-2.175 1.21a4.395 4.395 0 0 0-3.732-3.72c.309-1.532 1.48-2.394 3.076-2.394 1.595 0 2.87 1.158 2.87 1.158V3.785s-.824-.772-2.291-.927c.038-.67.476-1.519.952-1.827 1.995.617 3.912 2.303 4.466 4.761 0 0-.875.876-2.523.876-1.35 0-2.213-.682-2.69-1.867a2.336 2.336 0 0 0-.784-.128 2.05 2.05 0 0 0-.734.128c.528 1.905 2.214 3.18 4.08 3.18 1.827 0 2.818-.837 2.818-.837 0 3.81-2.908 6.525-6.358 6.602.387-.412.695-1.261.786-1.686z" fill="#8393CC"/>
    </g>
</svg>
