<svg width="78" height="17" viewBox="0 0 78 17" fill="none" xmlns="http://www.w3.org/2000/svg">
    <mask id="4zwnx8sw1a" style="mask-type:luminance" maskUnits="userSpaceOnUse" x="0" y="0" width="17" height="17">
        <path d="M16.515.431H.415v15.594h16.1V.431z" fill="#fff"/>
    </mask>
    <g mask="url(#4zwnx8sw1a)" fill="#8393CC">
        <path d="M5.76 1.06.644 2.801A.317.317 0 0 0 .43 3.1L.415 4.706a.316.316 0 0 0 .419.302L5.055 3.57a.317.317 0 0 1 .419.3v1.758a.316.316 0 0 1-.213.299l-1.983.687a.316.316 0 0 0-.213.306l.034 1.595a.317.317 0 0 0 .418.293l1.538-.527a.317.317 0 0 1 .42.3v6.072c0 .097.045.19.122.25.633.49 1.222.838 1.61 1.046.211.113.466-.04.466-.28V.785a.317.317 0 0 0-.43-.295l-1.481.57H5.76zM15.964 4.924l.538-1.58a.24.24 0 0 0-.15-.305L9.338.649 8.814.449a.24.24 0 0 0-.327.224v15.113c0 .18.19.296.35.213l.143-.074c1.373-.708 2.712-1.754 3.614-3.009 0 0 1.205-1.62 1.693-2.827a.239.239 0 0 0-.065-.27 28.167 28.167 0 0 0-1.252-.983.239.239 0 0 0-.356.08c-.216.412-.715 1.632-1.515 2.55a.24.24 0 0 1-.421-.156c-.017-2.106 0-6.27.005-7.596a.24.24 0 0 1 .318-.226l4.657 1.586a.24.24 0 0 0 .305-.15z"/>
    </g>
    <path d="M22.076 7.62h3.228v1.249h-3.228v2.518h-1.4V5.043h5.095v1.25h-3.695v1.326zM32.86 10.324l-1.064 1.063h-3.013l-1.25-1.25V6.296l1.25-1.25h2.949l1.063 1.063-.952.952-.765-.765h-1.633l-.512.512v2.819l.512.512h1.698l.765-.765.951.951zM43.085 8.637v1.69l-1.063 1.062h-3.48l-.999-.998.952-.952.718.718h2.117l.354-.354V9.15l-.261-.262-2.744-.167-.97-.97V6.107l1.063-1.063h3.255l.96.96-.951.952-.681-.681H39.46l-.354.354v.606l.262.261 2.743.168.97.97.004.002zM50.526 5.045v6.344h-1.4V8.796h-2.612v2.593h-1.4V5.045h1.4v2.501h2.612v-2.5h1.4zM55.159 6.295v3.843h1.138v1.25H52.62v-1.25h1.138V6.295h-1.138v-1.25h3.676v1.25h-1.138zM59.796 7.583h3.228v1.25h-3.228v1.305h3.695v1.25h-5.094V5.042h5.094v1.25h-3.695v1.29zM70.327 10.138v1.25h-4.74V5.042h1.4v5.095h3.34zM77.653 10.138l-1.25 1.25h-4.151V5.042h4.151l1.25 1.25v3.845zm-1.4-3.331-.512-.512h-2.09v3.843h2.09l.513-.513V6.807z" fill="#8393CC"/>
</svg>
