<svg width="78" height="17" viewBox="0 0 78 17" fill="none" xmlns="http://www.w3.org/2000/svg">
    <mask id="94b1bj9xga" style="mask-type:luminance" maskUnits="userSpaceOnUse" x="0" y="0" width="17" height="17">
        <path d="M16.514.432H.414v15.594h16.1V.432z" fill="#fff"/>
    </mask>
    <g mask="url(#94b1bj9xga)" fill="#78798D">
        <path d="M5.76 1.06.642 2.805a.317.317 0 0 0-.214.296L.414 4.708a.316.316 0 0 0 .419.301l4.221-1.437a.317.317 0 0 1 .419.299V5.63a.316.316 0 0 1-.213.298l-1.983.687a.316.316 0 0 0-.213.306l.034 1.595a.317.317 0 0 0 .419.293l1.537-.527a.317.317 0 0 1 .42.3v6.072c0 .098.045.19.122.25.633.49 1.222.838 1.61 1.046.211.113.466-.04.466-.279V.785a.317.317 0 0 0-.43-.295l-1.481.57H5.76zM15.96 4.924l.539-1.58a.24.24 0 0 0-.15-.305L9.335.65 8.81.448a.24.24 0 0 0-.327.224v15.113c0 .18.19.296.35.213l.143-.073c1.373-.708 2.712-1.755 3.614-3.01 0 0 1.205-1.62 1.693-2.827a.239.239 0 0 0-.065-.27 28.17 28.17 0 0 0-1.252-.983.239.239 0 0 0-.356.08c-.216.412-.715 1.633-1.514 2.55a.24.24 0 0 1-.422-.155c-.017-2.107 0-6.27.005-7.597a.24.24 0 0 1 .318-.226l4.657 1.587a.24.24 0 0 0 .305-.15z"/>
    </g>
    <path d="M22.075 7.619h3.228v1.25h-3.228v2.518h-1.4V5.043h5.095v1.25h-3.695v1.326zM32.857 10.324l-1.063 1.063h-3.013l-1.25-1.25V6.295l1.25-1.25h2.949l1.063 1.063-.952.952-.765-.765h-1.633l-.512.512v2.818l.512.512h1.698l.765-.765.951.952zM43.085 8.637v1.689l-1.063 1.063h-3.48l-.999-.999.952-.951.718.718h2.117l.354-.354v-.654l-.261-.261-2.744-.167-.97-.971V6.108l1.063-1.063h3.255l.96.96-.951.952-.681-.682H39.46l-.354.354v.607l.262.261 2.743.167.97.971.004.002zM50.525 5.045v6.344h-1.4V8.796h-2.612v2.593h-1.4V5.045h1.4v2.5h2.612v-2.5h1.4zM55.159 6.295v3.842h1.138v1.25H52.62v-1.25h1.138V6.295h-1.138v-1.25h3.676v1.25h-1.138zM59.794 7.582h3.228v1.25h-3.228v1.305h3.695v1.25h-5.094V5.043h5.094v1.25h-3.695v1.29zM70.325 10.137v1.25h-4.74V5.043h1.4v5.094h3.34zM77.651 10.137l-1.25 1.25H72.25V5.043h4.151l1.25 1.25v3.844zm-1.4-3.33-.512-.513h-2.09v3.843h2.09l.513-.512V6.807z" fill="#78798D"/>
</svg>
