<svg width="76" height="16" viewBox="0 0 76 16" fill="none" xmlns="http://www.w3.org/2000/svg">
    <path fill-rule="evenodd" clip-rule="evenodd" d="M10.907 3.366c-.447.33-.529.395-.775.617-.4.358-.795.769-1.098 1.137-.082.1-.17.205-.197.233a8.13 8.13 0 0 0-.274.356c-.275.372-.261.363-.452.294-.252-.09-.26-.094-.95-.432-.898-.44-1.155-.496-1.615-.353-.391.122-.644.354-.875.8-.126.244-.172.293-.35.373-.598.268-1.352.644-1.576.788-.198.126-.25.13-.35.022-.249-.266-.997.049-.997.42 0 .516.45.52.926.008.213-.228.233-.24.618-.387 1.679-.638 2.096-.687 2.476-.292.11.116.134.17.271.633.02.064.046.146.06.183l.115.316c.332.907.846 1.453 1.56 1.656.878.25 1.166.378 1.314.582.193.267.11.586-.272 1.05-.05.06-.016.085.059.044.034-.018.278-.141.543-.273 1.1-.547 1.55-.881 1.518-1.126-.036-.268-.33-.925-.576-1.286-.138-.203-.125-.266.064-.294.304-.046 1.164-.29 1.339-.38a99.8 99.8 0 0 1 .31-.157c.318-.16.561-.315.819-.52.112-.088.228-.161.257-.161.03 0 .054-.023.054-.05 0-.028.014-.05.033-.05.022 0 .033-.672.033-1.95v-1.95l-.084.02c-.074.02-.545.319-1.088.692-.241.167-.252.161-.366-.177-.144-.43-.196-.562-.218-.56-.011 0-.126.079-.256.174z" fill="#1C1F39"/>
    <path fill-rule="evenodd" clip-rule="evenodd" d="M6.195.695c-.011.018-.093.033-.183.033-.089 0-.171.015-.182.033-.012.018-.087.033-.168.033-.11 0-.148.014-.148.05 0 .038-.04.05-.166.05-.09 0-.166.015-.166.034 0 .018-.045.033-.1.033-.06 0-.109.02-.12.05-.012.03-.062.05-.132.05-.062 0-.113.015-.113.033 0 .018-.052.033-.116.033s-.116.015-.116.034c0 .018-.053.033-.117.033-.074 0-.124.018-.136.05-.012.03-.063.05-.132.05-.062 0-.113.013-.113.03 0 .015-.052.039-.116.05-.064.013-.116.037-.116.054 0 .018-.038.032-.083.032-.046 0-.083.015-.083.033 0 .019-.053.034-.117.034-.063 0-.116.013-.116.03 0 .015-.052.038-.116.05-.064.013-.116.037-.116.054 0 .018-.037.032-.083.032-.046 0-.083.015-.083.033 0 .019-.036.034-.079.034a.175.175 0 0 0-.12.05.172.172 0 0 1-.118.05c-.042 0-.08.013-.087.03-.006.017-.056.036-.11.042a.295.295 0 0 0-.146.054c-.025.024-.066.036-.091.026-.026-.01-.046.004-.046.031 0 .03-.032.05-.08.05a.455.455 0 0 0-.171.047c-.051.027-.105.04-.12.031-.016-.01-.025.003-.02.027.007.032-.047.047-.198.054-.114.005-.208.024-.208.041 0 .018-.056.033-.124.033a.376.376 0 0 0-.188.049c-.034.026-.075.04-.091.03-.016-.01-.028-.001-.028.019s-.026.046-.058.058c-.071.027-.142.094-.142.135 0 .016-.037.05-.082.074-.053.028-.084.074-.084.122 0 .043-.014.078-.033.078-.045 0-.045 3.848 0 3.876.02.013.033.255.033.615 0 .338.014.6.032.605.016.007.034.182.039.39.006.274.02.382.052.394.03.012.043.092.043.273 0 .14.015.27.032.287.017.018.035.11.039.205.005.107.024.18.052.19.024.01.044.068.044.135 0 .064.014.117.033.117.018 0 .033.03.033.064 0 .072.103.269.14.269.015 0 .026.021.026.047 0 .06.108.252.141.252.014 0 .025.017.025.036 0 .02.018.057.041.082.1.112.126.149.104.149-.013 0 .035.056.107.125.071.069.152.17.18.225.051.102.115.182.145.182.026 0 .236.222.307.324.034.049.101.13.15.18.047.05.079.1.069.11-.01.01.005.019.035.019.029 0 .087.048.129.108.074.106.414.457.442.457.03 0 .199.184.191.208-.004.014.015.025.042.025.027 0 .05.024.05.052 0 .028.013.044.029.034.016-.01.063.027.104.081.042.055.096.1.121.1.024 0 .045.014.045.033 0 .018.016.033.035.033.046 0 .13.084.13.13 0 .02.018.036.038.036.04 0 .195.166.195.208 0 .014.014.025.031.025.018 0 .1.068.183.15.084.082.167.15.187.15.019 0 .026.014.016.03-.01.018.014.042.054.055.086.027.16.094.16.145 0 .02.017.036.038.036.02 0 .086.052.147.116.06.064.122.117.137.117.015 0 .055.037.09.083.034.046.082.083.107.083.025 0 .045.015.045.033 0 .019.023.034.05.034.027 0 .05.015.05.034 0 .053.156.199.212.199.027 0 .059.03.07.066.012.037.057.076.102.087.044.011.08.041.08.066 0 .026.024.047.053.047.028 0 .042.015.03.033-.01.018.004.033.032.033s.052.015.052.034c0 .018.022.033.05.033.028 0 .068.037.089.083.02.046.061.083.09.083.03 0 .098.052.153.116.055.064.118.116.14.116.024 0 .042.025.042.053 0 .029.013.044.029.035.015-.01.056.003.09.03.094.07.129.061.26-.067a.502.502 0 0 1 .155-.116c.019 0 .026-.014.016-.03-.018-.03.074-.086.123-.075.013.002.023-.006.02-.02-.01-.067.008-.11.037-.092.019.012.034.006.034-.012 0-.017-.019-.04-.042-.049-.023-.01-.026-.018-.008-.02.022 0 .03-.941.024-2.768l-.009-2.766.092.023.225.056c.073.019.185.04.249.048.117.015.064-.004-.349-.125-.72-.21-1.228-.75-1.56-1.657a26.64 26.64 0 0 0-.117-.316 4.34 4.34 0 0 1-.082-.267c-.103-.364-.132-.428-.25-.55-.376-.394-.796-.345-2.473.292-.385.147-.405.16-.618.388-.475.512-.925.508-.925-.009 0-.37.747-.685.996-.42.1.108.152.105.35-.022.224-.143.978-.52 1.576-.787.178-.08.224-.13.35-.372.23-.447.484-.679.875-.8.46-.144.726-.086 1.597.348.353.176.655.316.672.31.017-.005-.012-.03-.064-.055a2.434 2.434 0 0 1-.144-.073 3.978 3.978 0 0 0-.186-.094c-.228-.11-.214.067-.205-2.54.007-1.825 0-2.387-.031-2.416-.051-.048-.96-.052-.989-.004zm4.615 2.714-.1.086.108-.071a.448.448 0 0 0 .108-.086c0-.025-.014-.016-.116.071zm1.593.05c-.054.035-.082.064-.061.064.02 0 .073-.03.116-.065.098-.083.075-.082-.055 0zm-1.859.152c-.1.09-.107.102-.03.05.092-.061.207-.173.175-.17-.006 0-.072.055-.145.12zm1.112.345c-.096.075-.153.083-.177.025-.013-.033-.017-.033-.02 0-.004.082.094.08.22-.006.069-.047.111-.086.093-.085-.018 0-.07.03-.116.066zm-1.678.141-.131.141.141-.131c.131-.122.157-.151.131-.151a1.5 1.5 0 0 0-.14.141zm-.581.582-.114.125.124-.115c.069-.063.125-.119.125-.124 0-.026-.028-.002-.135.114zm-.805.943c-.052.072-.087.13-.08.13.024 0 .198-.235.185-.248-.007-.007-.054.046-.105.118zm-.19.264c-.038.054-.063.1-.053.1a.385.385 0 0 0 .087-.1c.039-.055.064-.1.054-.1a.38.38 0 0 0-.087.1zm3.787 1.748c-.064.045-.101.082-.084.082a.403.403 0 0 0 .132-.083c.128-.105.1-.104-.048.001zm-.408.234c-.124.067-.117.095.008.03.055-.028.1-.058.1-.067 0-.021-.004-.02-.108.037zm-.405.198c-.083.063-.052.063.07 0 .052-.028.072-.05.044-.05a.25.25 0 0 0-.114.05zm-1.031.315c-.042.018-.048.029-.017.029.028 0 .08-.013.117-.029.041-.018.047-.028.016-.028a.37.37 0 0 0-.116.028zm-.429.122c-.019.049.12.31.164.31.01 0-.024-.06-.073-.136-.088-.133-.089-.138-.028-.183.052-.038.054-.046.01-.046-.028 0-.061.025-.073.055zm.23.444c.028.055.059.1.068.1.009 0-.007-.045-.035-.1-.028-.055-.059-.1-.068-.1-.01 0 .006.045.035.1zm.296 1.373-.097.108.108-.098a.824.824 0 0 0 .108-.108c0-.026-.028-.003-.118.098zm-1.777.732a1.951 1.951 0 0 1-.17.232c-.14.17-.112.256.046.145.042-.03.06-.053.042-.053-.019 0-.052.018-.074.04-.05.051-.09.01-.044-.046.176-.214.293-.393.255-.393-.009 0-.034.033-.055.075z" fill="#566392"/>
    <path fill-rule="evenodd" clip-rule="evenodd" d="M7.738.846c0 .032.016.043.042.028.033-.018.033-.014 0 .022-.053.057-.062 4.856-.008 4.856.018 0 .033.023.033.05 0 .031.031.05.083.05.046 0 .11.013.141.029.114.057.274.098.274.07 0-.015.02-.047.043-.072.024-.024.092-.116.152-.203.06-.088.149-.201.198-.252.048-.05.132-.15.187-.223a2.54 2.54 0 0 1 .199-.232 2.47 2.47 0 0 0 .187-.216c.106-.14.745-.775.86-.854.046-.032.122-.096.169-.142.047-.047.14-.122.207-.168.067-.046.121-.094.122-.108 0-.014.022-.025.05-.025.027 0 .05-.011.05-.025 0-.014.097-.092.217-.173l.217-.148.08.098a.36.36 0 0 1 .082.171c0 .04.016.082.034.094.019.011.033.064.033.116 0 .053.014.105.031.115.017.01.04.063.052.116.032.146.091.18.176.101a.345.345 0 0 1 .086-.065c.008 0 .207-.13.441-.288.498-.335.626-.411.693-.411.055 0 .068-.15.015-.183-.018-.012-.033-.05-.033-.087 0-.036-.022-.074-.05-.084-.027-.01-.05-.041-.05-.068 0-.055-.078-.144-.126-.144-.018 0-.04-.022-.051-.05a.082.082 0 0 0-.07-.05c-.028 0-.051-.012-.051-.027 0-.04-.243-.14-.343-.14-.049 0-.089-.014-.089-.033 0-.018-.087-.033-.195-.033-.144 0-.201-.013-.215-.05-.011-.029-.061-.05-.12-.05-.055 0-.1-.014-.1-.033 0-.018-.036-.033-.08-.033-.044 0-.088-.023-.098-.05-.012-.03-.061-.05-.12-.05-.056 0-.101-.015-.101-.033 0-.019-.029-.033-.064-.033-.036 0-.074-.015-.085-.034-.012-.018-.072-.033-.135-.033-.08 0-.114-.015-.114-.05 0-.031-.032-.05-.083-.05-.046 0-.083-.015-.083-.033 0-.018-.053-.033-.117-.033-.08 0-.116-.015-.116-.05 0-.031-.03-.05-.08-.05-.045 0-.091-.015-.102-.033-.012-.019-.065-.034-.119-.034-.053 0-.097-.015-.097-.033 0-.018-.052-.033-.116-.033-.081 0-.116-.015-.116-.05s-.036-.05-.117-.05c-.064 0-.116-.015-.116-.033 0-.019-.035-.034-.079-.034-.043 0-.096-.02-.117-.046-.036-.044-.105-.065-.36-.109-.06-.01-.108-.032-.108-.048s-.05-.03-.113-.03c-.07 0-.12-.019-.131-.05C8.41.979 8.359.96 8.27.96c-.074 0-.134-.014-.134-.033 0-.018-.05-.033-.113-.033-.07 0-.12-.019-.132-.05-.025-.066-.154-.065-.154.002zm5.008 6.429a1.079 1.079 0 0 1-.16.14 2.131 2.131 0 0 0-.166.137c-.01.012-.1.072-.2.134l-.25.153c-.185.114-.762.376-.827.376a.3.3 0 0 0-.11.028c-.118.06-.294.114-.415.13-.068.008-.124.028-.124.045 0 .016-.056.03-.124.03-.069 0-.18.02-.249.044-.132.046-.195.089-.13.089.02 0 .038.017.038.039 0 .021.021.062.047.091.068.077.234.381.32.585.075.182.14.332.17.39a.387.387 0 0 1 .028.142c0 .046.014.084.033.084.182 0-.14.543-.365.615-.036.012-.067.035-.067.052 0 .017-.02.031-.047.031-.026 0-.052.011-.058.025a1.453 1.453 0 0 1-.31.208.904.904 0 0 0-.15.083.56.56 0 0 1-.178.084c-.027 0-.053.01-.059.025-.015.033-.698.376-.747.375-.021 0-.044.01-.05.024-.02.043-.231.143-.263.123-.064-.04-.021-.139.137-.314.09-.101.165-.202.165-.225 0-.023.011-.042.025-.042.027 0 .102-.193.13-.336.028-.144-.241-.495-.38-.495-.018 0-.051-.023-.074-.05-.023-.028-.083-.05-.135-.05-.051 0-.103-.015-.114-.034-.011-.018-.072-.033-.135-.033-.063 0-.114-.015-.114-.033 0-.018-.023-.033-.051-.033-.045 0-.05.27-.041 2.495.005 1.373-.002 2.496-.016 2.496s-.025.023-.025.052c0 .047.006.047.05.003.027-.028.05-.066.05-.086 0-.02.019-.036.042-.036.024 0 .064-.03.09-.066.027-.037.064-.067.083-.067.019 0 .075-.037.124-.083.05-.046.105-.083.124-.083.02 0 .035-.017.035-.038 0-.04.165-.195.207-.195.014 0 .025-.016.025-.036 0-.044.084-.13.127-.13a.573.573 0 0 0 .158-.117.629.629 0 0 1 .153-.116c.015 0 .027-.023.027-.05 0-.028.016-.05.036-.05.046 0 .13-.085.13-.131 0-.02.016-.035.035-.035.045 0 .197-.154.197-.199 0-.019.023-.034.05-.034.028 0 .05-.016.05-.034 0-.018.023-.033.051-.033.028 0 .06-.023.07-.05.01-.027.032-.05.047-.05.04 0 .38-.344.371-.374-.004-.014.008-.025.028-.025s.154-.12.298-.267c.145-.146.278-.266.297-.266.018 0 .033-.013.033-.029s.157-.19.349-.387c.192-.197.348-.386.348-.42 0-.034.016-.062.035-.062.037 0 .364-.315.364-.35 0-.012.018-.042.041-.067.086-.096.125-.146.125-.162 0-.01.037-.057.083-.106.046-.05.083-.103.083-.12 0-.016.03-.063.068-.103.077-.083.164-.247.164-.308 0-.023.023-.05.05-.06.027-.011.05-.05.05-.087 0-.037.015-.068.033-.068.018 0 .033-.052.033-.116s.015-.117.034-.117c.018 0 .033-.068.033-.152 0-.09.02-.172.05-.202.034-.034.05-.118.05-.264 0-.12.014-.214.033-.214.02 0 .033-.134.033-.335 0-.253.012-.347.05-.385.07-.071.073-.943.002-.943-.026 0-.052.01-.058.025zm-5.155 7.747c-.057.057-.065.08-.026.08.013 0 .043-.03.066-.066.05-.08.032-.086-.04-.014zm-.495.44c-.06.068-.074.122-.022.09.035-.022.112-.15.09-.15a.268.268 0 0 0-.068.06z" fill="#3B497B"/>
    <path fill-rule="evenodd" clip-rule="evenodd" d="M7.23.75C7.22.761 7.21 1.836 7.21 3.14c0 2.643-.023 2.4.232 2.524.064.03.139.068.166.083.188.103.2.106.2.055 0-.028-.016-.05-.034-.05-.053 0-.045-4.799.008-4.857.034-.035.034-.04 0-.021-.025.014-.04.004-.04-.026 0-.035-.03-.048-.092-.043-.05.004-.111-.011-.135-.035C7.468.725 7.269.71 7.23.75zm3.711 2.51c-.108.076-.201.15-.207.167-.007.016-.033.029-.059.029-.025 0-.047.011-.047.025 0 .013-.055.062-.121.108a1.79 1.79 0 0 0-.208.167 1.51 1.51 0 0 1-.168.142c-.116.08-.754.714-.86.855a2.47 2.47 0 0 1-.188.216c-.055.055-.145.16-.199.232a2.82 2.82 0 0 1-.187.223c-.048.05-.137.163-.197.251s-.129.18-.152.204c-.024.024-.044.056-.044.072 0 .027-.16-.014-.273-.07a.342.342 0 0 0-.133-.028c-.055.002-.039.016.058.053.073.027.159.064.19.081.117.062.176.028.32-.184.08-.118.17-.241.2-.274.03-.033.135-.158.232-.276.645-.79 1.491-1.586 2.1-1.974l.186-.12.052.124c.028.067.074.183.102.256.045.118.05.123.052.044.001-.05-.013-.1-.031-.11-.018-.012-.033-.05-.033-.087 0-.065-.126-.263-.167-.263-.012 0-.11.062-.218.137zm1.798-.06a52.21 52.21 0 0 0-.525.347c-.253.17-.468.308-.476.308a.332.332 0 0 0-.087.066c-.085.08-.144.045-.176-.101-.023-.105-.083-.167-.083-.085 0 .027.013.058.029.067.016.01.038.064.049.119.023.116.071.125.188.034a.363.363 0 0 1 .107-.066c.014 0 .13-.076.258-.167.128-.091.246-.166.263-.166a.049.049 0 0 0 .041-.026c.015-.034.424-.296.526-.337.07-.027.072-.032.017-.033a.294.294 0 0 0-.13.04zm-.052 4.086a30.02 30.02 0 0 0-.15.124 4.045 4.045 0 0 1-.839.527c-.096.047-.168.094-.159.103.016.015.281-.108.433-.202l.25-.152c.1-.062.19-.123.2-.134a2.13 2.13 0 0 1 .165-.136c.082-.064.157-.125.166-.136a.192.192 0 0 1 .067-.04c.044-.017.044-.02 0-.02-.028-.001-.087.029-.133.066zm-1.28.789a1.723 1.723 0 0 1-.276.107c-.135.043-.227.085-.204.093.022.007.072-.002.111-.02.04-.018.136-.053.215-.076.142-.043.287-.128.22-.13-.019 0-.049.011-.066.026zm-.712.24c-.046.016-.165.05-.266.078-.176.047-.178.049-.058.051.069.002.125-.012.125-.03 0-.019.048-.034.108-.035.059 0 .145-.022.19-.048.09-.052.034-.06-.1-.015zm-.715.178c-.06.045-.06.051.035.191.054.08.168.28.255.445.086.165.158.28.158.258a.323.323 0 0 0-.037-.117 3.286 3.286 0 0 1-.061-.124 3.28 3.28 0 0 0-.253-.435c-.025-.03-.046-.07-.046-.09 0-.019-.019-.042-.042-.05-.026-.01-.016-.025.025-.04.183-.064.205-.08.115-.082a.28.28 0 0 0-.149.044zm.466 1.002.078.233c.043.13.057.15.066.088.006-.043-.005-.095-.025-.115a.145.145 0 0 1-.036-.09.235.235 0 0 0-.053-.118c-.052-.063-.052-.063-.03.002zm-3.23 3.008c.006 1.827-.002 2.766-.024 2.766-.018.001-.006.017.026.036.05.029.091.003.245-.15.101-.102.198-.177.214-.167.016.01.03-.005.03-.034 0-.028.011-.052.025-.052.013 0 .02-1.123.015-2.495-.008-2.225-.004-2.496.042-2.496.028 0 .05.015.05.033 0 .019.05.034.11.034s.126.016.146.036c.02.02.071.03.114.023.064-.01.05-.021-.07-.056a2.917 2.917 0 0 1-.216-.071.958.958 0 0 0-.166-.044 3.68 3.68 0 0 1-.233-.051 23.711 23.711 0 0 0-.225-.056l-.092-.022.01 2.766zm3.398-2.512c.064.254-.355.57-1.58 1.19-.645.327-.74.345-.538.103.154-.187.307-.454.305-.534-.001-.076-.095.086-.097.168 0 .032-.016.058-.034.058-.019 0-.034.019-.034.042 0 .022-.074.124-.164.224-.159.176-.202.274-.137.314.031.02.243-.08.263-.122.006-.014.028-.025.05-.025.049.001.732-.341.747-.375.006-.014.032-.025.058-.025a.56.56 0 0 0 .18-.083.908.908 0 0 1 .149-.083c.029 0 .297-.18.31-.208.006-.014.032-.025.058-.025.026 0 .047-.014.047-.031s.03-.04.067-.053c.226-.071.547-.615.364-.615-.02 0-.025.035-.014.08zm-2.276.103c.022.028.061.05.085.05.05 0 .274.212.336.316.03.052.04.055.042.014.002-.075-.191-.281-.34-.362-.15-.08-.179-.085-.123-.018z" fill="#4A598B"/>
    <path fill-rule="evenodd" clip-rule="evenodd" d="M14.679 5.665c0 1.815-.007 2.079-.05 2.096-.043.016-.05.257-.05 1.883v1.865H16.737v-.196c0-.144.014-.202.05-.216.043-.016.05-.194.05-1.317v-1.3h.349c.21 0 .348.014.348.034 0 .022.62.033 1.793.033h1.793v-.102c0-.056.022-.125.05-.152.043-.043.05-.347.05-2.327V3.689h-2.587c-2.268 0-2.588-.006-2.605-.05-.016-.042-.124-.05-.684-.05h-.665v2.076zm20.55-.281c0 1.05-.01 1.636-.032 1.65-.022.012-.034.81-.034 2.28v2.261h.71c.601 0 .714.008.73.05.015.04.083.05.319.05h.3v-.283c0-.166.014-.283.033-.283.021 0 .033-.371.033-1.048 0-.91.007-1.048.05-1.048a.05.05 0 0 1 .05.05c0 .027.015.05.033.05.018 0 .033.03.033.066 0 .037.022.067.05.067a.05.05 0 0 1 .05.05c0 .027.015.05.033.05.018 0 .034.026.034.058.002.072.076.175.127.175.021 0 .038.022.038.05 0 .027.015.05.033.05.019 0 .034.03.034.066 0 .037.022.067.05.067a.05.05 0 0 1 .05.05c0 .027.014.05.032.05.019 0 .034.024.034.054s.052.104.116.164c.064.06.116.14.116.179 0 .039.022.068.05.068a.05.05 0 0 1 .05.05c0 .028.015.05.033.05.018 0 .033.025.033.054 0 .03.052.104.116.164.064.061.117.141.117.18 0 .037.016.068.035.068.055 0 .13.088.13.152 0 .031.053.106.117.166.063.06.116.128.116.149 0 .021.05.09.113.152l.113.114 1.124-.009 1.123-.009.01-.108c.008-.075-.005-.115-.04-.128-.03-.011-.053-.049-.053-.083 0-.035-.015-.063-.033-.063-.018 0-.033-.023-.033-.05a.05.05 0 0 0-.05-.05c-.027 0-.05-.027-.05-.06 0-.034-.03-.093-.066-.132-.037-.04-.066-.086-.066-.105 0-.018-.038-.07-.084-.116-.045-.046-.083-.104-.083-.13 0-.026-.037-.075-.082-.11-.046-.034-.084-.08-.084-.104 0-.023-.014-.042-.033-.042-.018 0-.033-.027-.033-.062 0-.034-.037-.09-.083-.124-.046-.034-.083-.096-.083-.138 0-.041-.016-.075-.035-.075-.054 0-.13-.088-.13-.15 0-.061-.078-.15-.131-.15-.02 0-.036-.031-.036-.07 0-.04-.052-.12-.116-.181-.064-.06-.116-.135-.116-.165 0-.061-.077-.15-.13-.15-.02 0-.036-.03-.036-.068 0-.074-.072-.164-.13-.164-.02 0-.036-.037-.036-.083 0-.046-.015-.083-.034-.083-.018 0-.033-.023-.033-.05 0-.028-.015-.05-.033-.05-.018 0-.033-.023-.033-.051a.082.082 0 0 0-.05-.07c-.057-.022-.068-.112-.014-.112.038 0 .13-.082.13-.117 0-.027.089-.116.116-.116.035 0 .117-.092.117-.13 0-.02.016-.037.035-.037.039 0 .13-.081.13-.116 0-.028.09-.116.117-.116.034 0 .116-.092.116-.131 0-.02.016-.036.036-.036.038 0 .13-.082.13-.116 0-.028.089-.117.116-.117.035 0 .117-.092.117-.13 0-.02.015-.036.035-.036.039 0 .13-.082.13-.117 0-.027.089-.116.117-.116.034 0 .116-.092.116-.13 0-.02.016-.036.035-.036.04 0 .13-.082.13-.117 0-.028.09-.116.117-.116.034 0 .116-.092.116-.131 0-.02.016-.036.036-.036.046 0 .13-.084.13-.13 0-.02.015-.036.034-.036.018 0 .033-.03.033-.067 0-.065-.023-.066-1.33-.066h-1.329l-.145.15c-.08.082-.161.15-.181.15-.02 0-.036.014-.036.031 0 .041-.326.368-.367.368-.018 0-.032.016-.032.035 0 .039-.082.131-.116.131-.028 0-.116.089-.116.116 0 .035-.092.117-.13.117a.036.036 0 0 0-.036.036c0 .038-.082.13-.117.13-.027 0-.116.089-.116.117 0 .034-.092.116-.13.116a.036.036 0 0 0-.036.036c0 .046-.084.13-.13.13-.025 0-.036-.473-.036-1.563 0-1.368.007-1.564.05-1.564.042 0 .05-.07.05-.433v-.432H35.23v1.628zm7.106.6v2.23h4.78v2.33H45.19c-1.262 0-1.926-.012-1.926-.034 0-.02-.194-.033-.515-.033h-.515l.008.59.01.591 3.228.009c2.114.005 3.23.02 3.23.042 0 .02.127.033.315.033h.315V9.629c0-1.387.011-2.113.033-2.113.019 0 .034-.089.034-.2v-.2h-4.848V4.954h2.34c1.54 0 2.341-.012 2.341-.034 0-.018.023-.033.05-.033.031 0 .05-.031.05-.083 0-.046.015-.083.033-.083.019 0 .034-.051.034-.113 0-.07.018-.12.05-.132.027-.011.05-.05.05-.087 0-.037.014-.068.032-.068.018 0 .033-.052.033-.116s.015-.117.034-.117c.018 0 .033-.052.033-.116v-.117H47.38c-1.977 0-2.261-.006-2.278-.05-.016-.043-.202-.05-1.393-.05h-1.374v2.23zm7.968.447c0 2.267-.006 2.577-.05 2.594-.044.017-.05.185-.042 1.326l.009 1.307.473.01c.278.005.473.022.473.041 0 .02.233.033.598.033h.597v-4.46h1.66l.008 2.222.009 2.22 1.07.01 1.071.008V6.152h-3.751V3.855h-2.125v2.576zm6.607-1.66v.914h2.059V4.89c0-.69.006-.797.051-.815.034-.013.049-.051.042-.111l-.01-.092-1.072-.009-1.07-.009v.916zm9.561.3c0 .99-.006 1.152-.05 1.168-.043.017-.05.358-.05 2.794v2.775h2.159v-1.51c0-1.312.007-1.513.05-1.53.043-.017.05-.318.05-2.432V3.922H66.47V5.07zm6.674-.384c0 .488-.012.766-.033.766-.02 0-.034.15-.034.382v.383H69.26v1.847c0 1.627-.006 1.846-.05 1.846-.044 0-.05.119-.042.94l.01.94 2.979.009 2.98.009V10.66c0-.998.006-1.148.05-1.148.044 0 .05-.333.05-2.795V3.922H73.144v.765zM18.962 6.118V7.35h-2.125V4.887h2.125v1.231zm2.888 1.5c0 1.466-.007 1.706-.05 1.75-.042.041-.05.21-.05 1.095v1.046h1.445c.94 0 1.444.011 1.444.033 0 .022.498.033 1.428.033h1.427v-.083c0-.052.019-.083.05-.083.028 0 .05-.03.05-.067 0-.036.015-.066.033-.066.018 0 .033-.038.033-.083 0-.046.015-.084.033-.084.018 0 .034-.037.034-.083 0-.052.018-.083.05-.083.03 0 .05-.031.05-.083 0-.046.014-.083.032-.083.019 0 .034-.068.034-.15v-.15h-3.984v-.965h3.818V5.985h-1.659c-1.069 0-1.665-.012-1.678-.033-.013-.022-.476-.034-1.28-.034h-1.26v1.7zm6.773.56c0 1.933-.006 2.194-.05 2.212-.044.016-.05.104-.042.594l.009.575 2.78.008 2.78.009v-.117c0-.082.016-.117.05-.117.032 0 .05-.031.05-.083 0-.046.015-.083.034-.083.018 0 .033-.036.033-.08 0-.043.022-.088.05-.098.027-.011.05-.05.05-.087 0-.037.015-.068.033-.068.018 0 .033-.052.033-.116s.015-.117.033-.117c.018 0 .033-.03.033-.066 0-.066-.022-.067-1.909-.067h-1.909V8.842c0-1.518.005-1.638.058-1.68.047-.035.398-.044 1.76-.045 1.49 0 1.701-.007 1.701-.05 0-.028.015-.05.034-.05.018 0 .033-.053.033-.117 0-.081.015-.116.05-.116.03 0 .05-.032.05-.084 0-.045.015-.083.033-.083.018 0 .033-.052.033-.116s.015-.117.033-.117c.019 0 .033-.088.033-.2v-.2h-5.876v2.194zM56.91 6.314c0 .114-.015.169-.05.182-.044.017-.05.34-.05 2.632v2.614h2.092v-.6c0-.376.012-.598.033-.598.022 0 .033-.755.033-2.196V6.15H56.91v.163zm2.711-.14c-.012.012-.022 1.27-.022 2.795v2.773h5.744v-.084c0-.045.014-.083.032-.083.018 0 .042-.037.053-.083.012-.046.035-.083.05-.083.017 0 .03-.053.03-.117s.016-.116.034-.116c.018 0 .033-.037.033-.083 0-.052.019-.083.05-.083.027 0 .05-.03.05-.065 0-.036.014-.074.033-.085.018-.012.033-.05.033-.085 0-.063-.038-.065-1.594-.065-1.394 0-1.593-.006-1.593-.05 0-.042-.07-.05-.432-.05h-.431v-.932h1.344c.874 0 1.345.012 1.345.034 0 .02.21.033.564.033h.565V7.981c0-1.545-.007-1.763-.05-1.763-.028 0-.05-.015-.05-.033 0-.038-5.75-.049-5.788-.011zm-34.02 1.541v.6H23.91V7.115h1.693v.6zm37.85-.083c0 .23-.01.283-.05.283-.041 0-.05.057-.05.316v.316h-1.594V7.35h1.693v.283zm9.627 1.398v1.68h-1.76V9.116c0-1.386.007-1.596.05-1.612.028-.01.05-.05.05-.087 0-.066.018-.068.83-.068h.83v1.68z" fill="#566392"/>
</svg>
