<svg width="76" height="16" viewBox="0 0 76 16" fill="none" xmlns="http://www.w3.org/2000/svg">
    <path fill-rule="evenodd" clip-rule="evenodd" d="M10.907 3.366c-.447.33-.529.395-.775.617-.4.358-.795.768-1.098 1.137a8 8 0 0 1-.197.232 8.14 8.14 0 0 0-.274.357c-.275.372-.261.363-.452.294-.252-.09-.26-.095-.95-.433-.898-.439-1.155-.495-1.615-.352-.391.122-.644.354-.875.8-.126.244-.172.293-.35.373-.598.268-1.352.644-1.576.787-.198.127-.25.13-.35.022-.249-.265-.997.05-.997.42 0 .517.45.521.926.01.213-.23.233-.242.618-.389 1.679-.637 2.096-.686 2.476-.29.11.115.134.169.271.632.02.064.046.146.06.183l.115.316c.332.907.846 1.453 1.56 1.656.878.25 1.166.378 1.314.582.193.267.11.586-.272 1.05-.05.06-.016.084.059.044.034-.019.278-.141.543-.273 1.1-.548 1.55-.881 1.518-1.126-.036-.268-.33-.925-.576-1.287-.138-.202-.125-.265.064-.293.304-.046 1.164-.29 1.339-.38l.31-.157c.318-.16.561-.315.819-.52.112-.089.228-.161.257-.161.03 0 .054-.023.054-.05 0-.028.014-.05.033-.05.022 0 .033-.672.033-1.95v-1.95l-.084.02c-.074.02-.545.319-1.088.692-.241.166-.252.16-.366-.177-.144-.43-.196-.562-.218-.56-.011 0-.126.079-.256.174z" fill="#FAFAFA"/>
    <path fill-rule="evenodd" clip-rule="evenodd" d="M6.195.694c-.011.018-.093.033-.183.033-.089 0-.171.015-.182.034-.012.018-.087.033-.168.033-.11 0-.148.013-.148.05 0 .037-.04.05-.166.05-.09 0-.166.015-.166.033 0 .018-.045.033-.1.033-.06 0-.109.021-.12.05-.012.03-.062.05-.132.05-.062 0-.113.015-.113.033 0 .019-.052.034-.116.034s-.116.015-.116.033c0 .018-.053.033-.117.033-.074 0-.124.019-.136.05-.012.03-.063.05-.132.05-.062 0-.113.013-.113.03 0 .016-.052.039-.116.05-.064.013-.116.037-.116.055 0 .017-.038.031-.083.031-.046 0-.083.015-.083.033 0 .019-.053.034-.117.034-.063 0-.116.013-.116.03 0 .016-.052.039-.116.05-.064.013-.116.037-.116.054 0 .018-.037.032-.083.032-.046 0-.083.015-.083.033 0 .019-.036.034-.079.034a.175.175 0 0 0-.12.05.172.172 0 0 1-.118.05c-.042 0-.08.013-.087.03-.006.018-.056.036-.11.042a.295.295 0 0 0-.146.054c-.025.024-.066.036-.091.026-.026-.01-.046.004-.046.032 0 .029-.032.048-.08.048a.455.455 0 0 0-.171.049c-.051.026-.105.04-.12.03-.016-.01-.025.003-.02.027.007.032-.047.047-.198.054-.114.006-.208.024-.208.042 0 .017-.056.032-.124.032a.376.376 0 0 0-.188.05c-.034.026-.075.04-.091.03-.016-.01-.028-.002-.028.018 0 .02-.026.047-.058.059-.071.027-.142.093-.142.134 0 .017-.037.05-.082.074-.053.028-.084.074-.084.123 0 .042-.014.077-.033.077-.045 0-.045 3.848 0 3.877.02.012.033.254.033.614 0 .339.014.6.032.606.016.006.034.18.039.389.006.274.02.382.052.394.03.012.043.092.043.273 0 .14.015.27.032.288.017.017.035.11.039.204.005.108.024.18.052.19.024.01.044.068.044.135 0 .065.014.118.033.118.018 0 .033.028.033.064 0 .072.103.268.14.268.015 0 .026.022.026.048 0 .06.108.252.141.252.014 0 .025.016.025.036 0 .02.018.056.041.082.1.111.126.148.104.148-.013 0 .035.056.107.125.071.07.152.17.18.225.051.103.115.183.145.183.026 0 .236.221.307.324.034.048.101.13.15.18.047.05.079.1.069.11-.01.01.005.018.035.018.029 0 .087.048.129.108.074.106.414.458.442.458.03 0 .199.184.191.208-.004.013.015.024.042.024.027 0 .05.024.05.052 0 .029.013.044.029.034.016-.01.063.027.104.082.042.054.096.099.121.099.024 0 .045.015.045.033 0 .018.016.033.035.033.046 0 .13.085.13.13 0 .02.018.037.038.037.04 0 .195.165.195.207 0 .014.014.025.031.025.018 0 .1.068.183.15.084.083.167.15.187.15.019 0 .026.014.016.03-.01.018.014.042.054.055.086.027.16.095.16.146 0 .02.017.035.038.035.02 0 .086.053.147.117.06.064.122.116.137.116.015 0 .055.038.09.083.034.046.082.084.107.084.025 0 .045.014.045.033 0 .018.023.033.05.033.027 0 .05.016.05.035 0 .052.156.198.212.198.027 0 .059.03.07.066.012.037.057.076.102.087.044.011.08.041.08.067 0 .025.024.046.053.046.028 0 .042.015.03.034-.01.018.004.033.032.033s.052.015.052.033c0 .018.022.033.05.033.028 0 .068.038.089.083.02.046.061.084.09.084.03 0 .098.052.153.115.055.064.118.116.14.117.023 0 .042.024.042.053 0 .028.013.043.029.034.015-.01.056.004.09.03.094.07.129.062.26-.066a.502.502 0 0 1 .155-.117c.019 0 .026-.013.016-.03-.018-.029.074-.085.123-.075.013.003.023-.006.02-.02-.01-.066.008-.11.037-.091.019.011.034.006.034-.012 0-.018-.019-.04-.042-.05-.023-.009-.026-.017-.008-.019.022-.002.03-.942.024-2.768l-.009-2.766.092.022.225.056c.073.02.185.04.249.049.117.014.064-.005-.349-.126-.72-.21-1.228-.75-1.56-1.657a26.64 26.64 0 0 0-.117-.316 4.34 4.34 0 0 1-.082-.266c-.103-.365-.132-.429-.25-.551-.376-.394-.796-.344-2.473.293-.385.146-.405.159-.618.387-.475.512-.925.508-.925-.009 0-.37.747-.685.996-.42.1.108.152.105.35-.021.224-.143.978-.52 1.576-.788.178-.08.224-.129.35-.372.23-.447.484-.678.875-.8.46-.144.726-.086 1.597.348.353.176.655.316.672.31.017-.005-.012-.03-.064-.054a2.44 2.44 0 0 1-.144-.074 3.986 3.986 0 0 0-.186-.094c-.228-.11-.214.067-.205-2.539.007-1.826 0-2.388-.031-2.417-.051-.048-.96-.052-.989-.004zm4.615 2.715-.1.086.108-.072a.448.448 0 0 0 .108-.086c0-.025-.014-.016-.116.072zm1.593.05c-.054.034-.082.063-.061.063.02 0 .073-.03.116-.065.098-.083.075-.082-.055.001zm-1.859.152c-.1.089-.107.101-.03.05.092-.062.207-.174.175-.17-.006 0-.072.054-.145.12zm1.112.344c-.096.075-.153.083-.177.025-.013-.033-.017-.032-.02.001-.004.082.094.079.22-.007.069-.047.111-.085.093-.085-.018 0-.07.03-.116.066zm-1.678.141-.131.142.141-.132c.131-.122.157-.151.131-.151a1.5 1.5 0 0 0-.14.141zm-.581.583-.114.125.124-.115c.069-.063.125-.12.125-.125 0-.025-.028-.001-.135.115zm-.805.942c-.052.072-.087.13-.08.13.024 0 .198-.235.185-.248-.007-.006-.054.047-.105.118zm-.19.264c-.038.055-.063.1-.053.1a.385.385 0 0 0 .087-.1c.039-.055.064-.1.054-.1a.38.38 0 0 0-.087.1zm3.787 1.749c-.064.044-.101.081-.084.08a.403.403 0 0 0 .132-.081c.128-.105.1-.105-.048 0zm-.408.233c-.124.068-.117.096.008.031.055-.028.1-.059.1-.067 0-.022-.004-.02-.108.036zm-.405.198c-.083.063-.052.063.07 0 .052-.028.072-.05.044-.05a.251.251 0 0 0-.114.05zm-1.031.315c-.042.019-.048.03-.017.03.028 0 .08-.014.117-.03.041-.017.047-.028.016-.028a.37.37 0 0 0-.116.028zm-.429.122c-.019.05.12.311.164.311.01 0-.024-.061-.073-.137-.088-.132-.089-.138-.028-.183.052-.037.054-.046.01-.046-.028 0-.061.025-.073.055zm.23.444c.028.055.059.1.068.1.009 0-.007-.045-.035-.1-.028-.055-.059-.1-.068-.1-.01 0 .006.045.035.1zm.296 1.373-.097.108.108-.098a.82.82 0 0 0 .108-.108c0-.026-.028-.003-.118.098zm-1.777.732a1.943 1.943 0 0 1-.17.233c-.14.169-.112.256.046.144.042-.029.06-.053.042-.053-.019 0-.052.018-.074.04-.05.051-.09.011-.044-.046.176-.214.293-.393.255-.393-.009 0-.034.034-.055.075z" fill="#C5C6E0"/>
    <path fill-rule="evenodd" clip-rule="evenodd" d="M7.74.846c0 .032.015.043.04.028.034-.018.034-.014 0 .022-.052.057-.06 4.856-.007 4.856.018 0 .033.023.033.05 0 .031.031.05.083.05.046 0 .11.013.141.029.114.056.274.098.274.07 0-.015.02-.047.043-.072.024-.024.092-.116.152-.203.06-.088.149-.201.198-.252.048-.05.132-.15.187-.223a2.54 2.54 0 0 1 .199-.232 2.47 2.47 0 0 0 .187-.216c.106-.14.745-.776.86-.854a1.51 1.51 0 0 0 .168-.142c.048-.047.141-.123.208-.168.067-.046.121-.094.122-.108 0-.014.022-.025.05-.025.027 0 .05-.011.05-.025 0-.014.097-.092.217-.173l.217-.148.08.098a.36.36 0 0 1 .082.171c0 .04.016.082.034.094.018.011.033.063.033.116 0 .053.014.105.031.115.017.01.04.063.052.116.032.146.091.18.176.101a.347.347 0 0 1 .086-.066c.008 0 .207-.129.441-.287.498-.335.626-.411.693-.411.055 0 .068-.15.015-.183-.018-.012-.033-.05-.033-.087 0-.036-.022-.074-.05-.084-.027-.01-.05-.041-.05-.068 0-.055-.078-.144-.126-.144-.018 0-.04-.022-.051-.05a.082.082 0 0 0-.07-.05c-.028 0-.051-.012-.051-.027 0-.04-.243-.14-.343-.14-.049 0-.089-.014-.089-.033 0-.018-.087-.033-.195-.033-.144 0-.201-.013-.215-.05-.011-.029-.061-.05-.12-.05-.055 0-.1-.015-.1-.033 0-.018-.036-.033-.08-.033-.044 0-.088-.023-.098-.05-.012-.03-.062-.05-.12-.05-.056 0-.101-.015-.101-.033 0-.019-.029-.034-.064-.034-.036 0-.074-.015-.085-.033-.012-.018-.072-.033-.135-.033-.08 0-.114-.015-.114-.05 0-.031-.032-.05-.083-.05-.046 0-.083-.015-.083-.033 0-.019-.053-.034-.117-.034-.08 0-.116-.015-.116-.05 0-.03-.03-.05-.08-.05-.045 0-.091-.014-.102-.032-.012-.019-.065-.034-.119-.034-.053 0-.097-.015-.097-.033 0-.018-.052-.033-.116-.033-.081 0-.117-.016-.117-.05 0-.035-.035-.05-.116-.05-.064 0-.116-.015-.116-.034 0-.018-.035-.033-.079-.033-.043 0-.096-.02-.117-.046-.036-.044-.105-.065-.36-.109-.06-.01-.108-.032-.108-.048s-.05-.03-.113-.03c-.07 0-.12-.019-.131-.05C8.412.978 8.36.96 8.272.96c-.074 0-.134-.014-.134-.033 0-.018-.05-.033-.113-.033-.07 0-.12-.02-.132-.05C7.868.777 7.74.779 7.74.846zm5.007 6.429a1.07 1.07 0 0 1-.16.14 2.163 2.163 0 0 0-.166.137c-.01.012-.1.072-.2.134l-.25.153c-.185.114-.762.375-.827.375a.3.3 0 0 0-.11.03c-.118.059-.294.113-.415.128-.068.009-.124.03-.124.046s-.056.03-.124.03c-.069 0-.18.02-.249.044-.132.046-.195.088-.13.088.02 0 .038.018.038.04 0 .02.021.062.047.091.068.077.234.381.32.585.075.182.14.332.17.39a.387.387 0 0 1 .028.142c0 .046.014.084.033.084.182 0-.14.543-.364.615-.037.012-.068.035-.068.052 0 .017-.021.031-.047.031s-.052.011-.058.025a1.457 1.457 0 0 1-.31.208.9.9 0 0 0-.15.083.56.56 0 0 1-.178.084c-.027 0-.053.01-.059.025-.015.033-.698.376-.747.375-.021 0-.044.01-.05.024-.02.043-.231.142-.263.123-.064-.04-.022-.139.137-.314.09-.101.165-.202.165-.225 0-.023.011-.042.025-.042.027 0 .101-.193.13-.336.028-.144-.241-.495-.38-.495-.018 0-.051-.023-.074-.05-.023-.028-.083-.05-.135-.05-.051 0-.103-.015-.114-.034-.011-.018-.072-.033-.135-.033-.063 0-.114-.015-.114-.033 0-.018-.023-.033-.051-.033-.045 0-.05.27-.041 2.495.005 1.373-.002 2.496-.016 2.496s-.025.023-.025.052c0 .047.006.047.05.002.027-.027.05-.066.05-.085 0-.02.019-.036.042-.036.024 0 .064-.03.09-.066.027-.037.064-.067.083-.067.019 0 .075-.037.124-.083.05-.046.105-.083.124-.083.02 0 .035-.017.035-.038 0-.04.165-.195.207-.195.014 0 .025-.016.025-.036 0-.044.084-.13.126-.13a.576.576 0 0 0 .159-.117.63.63 0 0 1 .153-.116c.015 0 .027-.023.027-.05 0-.028.016-.05.036-.05.046 0 .13-.085.13-.131 0-.02.016-.036.035-.036.045 0 .197-.153.197-.198 0-.019.023-.035.05-.035.028 0 .05-.014.05-.033 0-.018.023-.033.05-.033.029 0 .06-.023.07-.05.011-.027.033-.05.048-.05.04 0 .38-.344.371-.374-.004-.014.008-.025.028-.025s.153-.12.298-.267c.145-.146.278-.266.297-.266.018 0 .033-.013.033-.029s.157-.19.349-.387c.192-.198.348-.386.348-.42 0-.034.016-.062.035-.062.037 0 .364-.315.364-.35 0-.012.019-.042.041-.067.086-.096.125-.147.125-.162 0-.01.037-.057.083-.106.046-.05.083-.104.083-.12s.03-.063.068-.103c.077-.083.164-.247.164-.308 0-.023.023-.05.05-.06.027-.011.05-.05.05-.087 0-.037.015-.068.033-.068.018 0 .033-.052.033-.116s.015-.117.034-.117c.018 0 .033-.068.033-.152 0-.09.02-.172.05-.202.033-.034.05-.118.05-.264 0-.12.014-.214.032-.214.02 0 .034-.134.034-.335 0-.253.012-.347.05-.385.07-.071.073-.943.002-.943-.026 0-.052.01-.058.025zm-5.155 7.747c-.057.057-.065.08-.027.08.014 0 .044-.03.067-.066.05-.08.032-.086-.04-.014zm-.495.44c-.06.068-.074.122-.022.09.035-.022.112-.15.09-.15a.268.268 0 0 0-.068.06z" fill="#999AB7"/>
    <path fill-rule="evenodd" clip-rule="evenodd" d="M7.23.749C7.22.76 7.21 1.837 7.21 3.139c0 2.643-.023 2.4.232 2.524.064.031.139.069.166.084.188.102.2.105.2.054 0-.027-.016-.05-.034-.05-.053 0-.045-4.799.008-4.856.034-.036.034-.04 0-.022-.025.015-.04.004-.04-.026 0-.034-.03-.048-.092-.042-.05.004-.111-.012-.135-.035C7.468.725 7.269.71 7.23.749zm3.711 2.51c-.108.076-.201.151-.207.167-.007.016-.033.03-.059.03-.025 0-.047.01-.047.024s-.055.063-.121.108c-.067.046-.16.121-.208.168-.047.046-.123.11-.168.142-.116.079-.754.713-.86.854a2.47 2.47 0 0 1-.188.216 2.54 2.54 0 0 0-.199.232 2.82 2.82 0 0 1-.187.223c-.048.05-.137.164-.197.252-.06.087-.129.18-.152.203-.024.025-.044.057-.044.072 0 .028-.16-.013-.273-.07a.342.342 0 0 0-.133-.027c-.055.001-.039.015.058.052.073.028.159.065.19.082.117.062.176.028.32-.185.08-.118.17-.24.2-.274.03-.033.135-.157.232-.276.645-.79 1.491-1.585 2.1-1.974l.186-.119.052.123c.028.068.074.183.102.256.045.119.05.124.052.044.001-.05-.013-.099-.031-.11-.018-.012-.033-.05-.033-.087 0-.065-.126-.263-.167-.263-.012 0-.11.062-.218.138zm1.798-.06a52.21 52.21 0 0 0-.525.348c-.253.169-.468.308-.476.308a.332.332 0 0 0-.087.065c-.085.08-.144.045-.176-.1-.023-.106-.083-.167-.083-.086 0 .028.013.058.029.068.016.01.038.063.049.118.023.117.071.125.188.034a.363.363 0 0 1 .107-.066c.014 0 .13-.075.258-.167.128-.091.246-.166.263-.166a.049.049 0 0 0 .041-.025c.015-.035.424-.297.526-.337.07-.028.072-.033.017-.033a.294.294 0 0 0-.13.04zm-.052 4.087a35.01 35.01 0 0 0-.15.123 4.045 4.045 0 0 1-.839.527c-.096.048-.168.094-.159.103.016.016.281-.108.433-.201l.25-.153c.1-.062.19-.122.2-.134.008-.012.083-.073.165-.136.082-.063.157-.124.166-.136a.192.192 0 0 1 .067-.04c.044-.016.044-.019 0-.02-.028 0-.087.029-.133.067zm-1.28.788a1.723 1.723 0 0 1-.276.107c-.135.044-.227.086-.204.093.022.008.072-.001.111-.02.04-.018.136-.052.215-.076.142-.043.287-.128.22-.13-.019 0-.049.011-.066.026zm-.712.241c-.046.016-.165.05-.266.077-.176.047-.178.05-.058.052.069.001.125-.012.125-.03 0-.02.048-.035.108-.035.059 0 .145-.023.19-.049.09-.052.034-.06-.1-.015zm-.715.178c-.06.044-.06.05.035.19.054.08.168.28.255.446.086.164.158.28.158.257a.323.323 0 0 0-.037-.116 3.286 3.286 0 0 1-.061-.125 3.28 3.28 0 0 0-.253-.435c-.025-.029-.046-.069-.046-.089 0-.02-.019-.043-.042-.051-.026-.01-.016-.025.025-.04.183-.063.205-.079.115-.081a.28.28 0 0 0-.149.044zm.466 1.002.078.233c.043.13.057.149.066.087.006-.043-.005-.095-.025-.115a.145.145 0 0 1-.036-.09.235.235 0 0 0-.053-.117c-.052-.064-.052-.064-.03.002zm-3.23 3.007c.006 1.827-.002 2.766-.024 2.767-.018 0-.006.017.026.036.05.028.091.003.245-.15.101-.103.198-.178.214-.168.016.01.03-.005.03-.033 0-.029.011-.052.025-.052.013 0 .02-1.123.015-2.496-.008-2.225-.004-2.495.042-2.495.028 0 .05.015.05.033 0 .018.05.033.11.033s.126.016.146.036c.02.02.071.03.114.023.064-.01.05-.021-.07-.056a2.912 2.912 0 0 1-.216-.07.958.958 0 0 0-.166-.045 3.68 3.68 0 0 1-.233-.05 23.711 23.711 0 0 0-.225-.057l-.092-.022.01 2.766zm3.398-2.512c.064.255-.355.57-1.58 1.19-.645.328-.74.346-.538.103.154-.186.307-.453.305-.534-.001-.076-.095.086-.097.168 0 .032-.016.058-.034.058-.019 0-.034.02-.034.042 0 .023-.074.124-.164.225-.159.175-.202.274-.137.314.031.02.243-.08.263-.123.006-.014.028-.025.05-.024.049 0 .732-.342.747-.375.006-.014.032-.025.058-.025a.56.56 0 0 0 .18-.084.904.904 0 0 1 .149-.083c.029 0 .297-.18.31-.208.006-.013.032-.025.058-.025.026 0 .047-.014.047-.03 0-.018.03-.041.067-.053.226-.072.547-.615.364-.615-.02 0-.025.034-.014.08zm-2.276.104c.022.027.061.05.085.05.05 0 .274.211.336.316.03.052.04.054.042.013.002-.074-.191-.28-.34-.361-.15-.081-.179-.086-.123-.018z" fill="#B4B5CF"/>
    <path fill-rule="evenodd" clip-rule="evenodd" d="M14.678 5.664c0 1.815-.006 2.079-.05 2.095-.043.017-.05.257-.05 1.884v1.864H16.736v-.196c0-.143.014-.2.05-.215.043-.016.05-.194.05-1.318V8.48h.349c.21 0 .348.014.348.034 0 .021.62.033 1.793.033h1.793v-.102c0-.056.022-.125.05-.152.043-.044.05-.348.05-2.327V3.688h-2.587c-2.268 0-2.588-.006-2.605-.05-.016-.042-.124-.05-.684-.05h-.665v2.076zm20.55-.281c0 1.05-.01 1.636-.032 1.649-.022.013-.033.81-.033 2.281v2.261h.71c.6 0 .713.008.73.05.014.04.082.05.318.05h.3v-.283c0-.166.014-.283.033-.283.022 0 .033-.371.033-1.048 0-.91.007-1.048.05-1.048a.05.05 0 0 1 .05.05c0 .027.015.05.033.05.018 0 .033.03.033.066 0 .037.022.067.05.067a.05.05 0 0 1 .05.05c0 .027.015.05.033.05.018 0 .034.026.034.058.002.072.076.174.127.174.021 0 .038.023.038.05 0 .028.015.05.034.05.018 0 .033.03.033.067 0 .037.022.066.05.066a.05.05 0 0 1 .05.05c0 .028.014.05.032.05.019 0 .034.025.034.055s.052.103.116.164c.064.06.116.14.116.178 0 .04.022.069.05.069a.05.05 0 0 1 .05.05c0 .027.015.05.033.05.018 0 .033.024.033.054s.052.104.116.164c.064.06.117.141.117.179 0 .038.015.069.035.069.055 0 .13.088.13.152 0 .03.053.106.117.166.064.06.116.127.116.149 0 .021.051.09.113.152l.114.114 1.123-.009 1.123-.009.01-.108c.008-.075-.005-.115-.04-.129-.03-.01-.053-.048-.053-.082 0-.035-.014-.063-.033-.063-.018 0-.033-.023-.033-.05a.05.05 0 0 0-.05-.05c-.027 0-.05-.027-.05-.06 0-.034-.03-.093-.066-.132-.036-.04-.066-.087-.066-.105 0-.018-.038-.07-.084-.116-.045-.046-.083-.104-.083-.13 0-.026-.037-.075-.082-.11-.046-.034-.084-.08-.084-.104 0-.023-.014-.042-.033-.042-.018 0-.033-.028-.033-.062s-.037-.09-.083-.124c-.045-.035-.083-.096-.083-.138 0-.041-.016-.075-.035-.075-.054 0-.13-.088-.13-.15s-.078-.15-.131-.15c-.02 0-.036-.032-.036-.07 0-.04-.052-.121-.116-.181s-.116-.135-.116-.165c0-.061-.077-.15-.13-.15-.02 0-.036-.03-.036-.068 0-.074-.072-.164-.13-.164-.02 0-.036-.038-.036-.083 0-.046-.015-.084-.033-.084-.019 0-.034-.022-.034-.05 0-.027-.015-.05-.033-.05-.018 0-.033-.022-.033-.05a.082.082 0 0 0-.05-.07c-.057-.022-.068-.112-.014-.112.038 0 .13-.082.13-.117 0-.028.089-.116.116-.116.035 0 .117-.092.117-.131 0-.02.016-.036.035-.036.039 0 .13-.082.13-.116 0-.028.09-.117.117-.117.034 0 .116-.092.116-.13 0-.02.016-.036.036-.036.038 0 .13-.082.13-.116 0-.028.089-.117.116-.117.035 0 .117-.092.117-.13 0-.02.016-.036.035-.036.039 0 .13-.082.13-.117 0-.028.089-.116.117-.116.034 0 .116-.092.116-.13 0-.02.016-.037.035-.037.04 0 .13-.082.13-.116 0-.028.09-.116.117-.116.035 0 .116-.093.116-.131 0-.02.016-.036.036-.036.046 0 .13-.085.13-.13 0-.02.015-.036.034-.036.018 0 .033-.03.033-.067 0-.065-.023-.066-1.33-.066h-1.329l-.145.15c-.08.082-.161.149-.181.149-.02 0-.036.014-.036.032 0 .041-.326.367-.367.367-.018 0-.032.016-.032.036 0 .039-.082.13-.116.13-.028 0-.116.09-.116.117 0 .035-.092.117-.13.117a.036.036 0 0 0-.036.035c0 .04-.082.131-.117.131-.027 0-.116.089-.116.117 0 .034-.092.116-.13.116a.036.036 0 0 0-.036.036c0 .046-.084.13-.13.13-.025 0-.036-.474-.036-1.564 0-1.368.007-1.564.05-1.564.042 0 .05-.07.05-.432v-.433H35.229v1.629zm7.106.6v2.23h4.78v2.33H45.19c-1.262 0-1.926-.012-1.926-.034 0-.02-.194-.033-.515-.033h-.515l.009.59.009.591 3.228.009c2.114.005 3.23.02 3.23.041 0 .02.128.034.315.034h.315V9.627c0-1.386.011-2.113.033-2.113.019 0 .034-.088.034-.2v-.199h-4.848V4.952h2.34c1.54 0 2.341-.011 2.341-.033 0-.018.023-.033.05-.033.031 0 .05-.032.05-.083 0-.046.015-.084.033-.084.019 0 .034-.05.034-.113 0-.07.018-.12.05-.132.027-.01.05-.05.05-.086 0-.038.014-.068.032-.068.019 0 .033-.052.033-.116s.015-.117.034-.117c.018 0 .033-.052.033-.116v-.117h-2.259c-1.977 0-2.26-.006-2.278-.05-.016-.043-.202-.05-1.393-.05h-1.374v2.23zm7.968.447c0 2.267-.006 2.577-.05 2.594-.044.017-.05.185-.042 1.326l.009 1.307.473.01c.278.005.473.022.473.041 0 .02.233.033.598.033h.597V7.28h1.66l.008 2.222.009 2.22 1.07.01 1.071.008V6.15h-3.751V3.854h-2.125V6.43zm6.607-1.661v.915h2.059V4.89c0-.69.006-.797.051-.815.034-.013.049-.052.042-.112l-.01-.091-1.072-.009-1.07-.009v.916zm9.561.3c0 .991-.006 1.152-.05 1.169-.043.017-.05.358-.05 2.794v2.775h2.159v-1.51c0-1.313.007-1.514.05-1.53.043-.017.05-.318.05-2.433V3.921H66.47V5.07zm6.674-.383c0 .488-.012.765-.033.765-.02 0-.034.15-.034.383v.383H69.26v1.846c0 1.628-.006 1.847-.05 1.847-.044 0-.05.119-.042.94l.01.94 2.979.009 2.98.008V10.66c0-.998.006-1.148.05-1.148.043 0 .05-.333.05-2.795V3.92H73.143v.765zM18.96 6.116v1.232h-2.125V4.886h2.125v1.23zm2.888 1.5c0 1.467-.007 1.707-.05 1.75-.042.042-.05.21-.05 1.096v1.046h1.445c.94 0 1.444.011 1.444.033 0 .021.498.033 1.427.033h1.428v-.083c0-.052.019-.083.05-.083.028 0 .05-.03.05-.067 0-.037.015-.066.033-.066.018 0 .033-.038.033-.084 0-.045.015-.083.033-.083.018 0 .034-.037.034-.083 0-.052.018-.083.05-.083.03 0 .05-.032.05-.083 0-.046.014-.084.032-.084.019 0 .034-.067.034-.15v-.15h-3.984v-.964h3.818V5.984h-1.659c-1.069 0-1.665-.012-1.678-.033-.013-.022-.476-.034-1.28-.034h-1.26v1.7zm6.773.56c0 1.934-.006 2.195-.05 2.212-.044.017-.05.105-.042.595l.009.574 2.78.009 2.781.008v-.116c0-.082.015-.117.05-.117.03 0 .05-.031.05-.083 0-.046.014-.083.033-.083.018 0 .033-.036.033-.08 0-.044.022-.088.05-.099.027-.01.05-.05.05-.087 0-.037.015-.067.033-.067.018 0 .033-.053.033-.117s.015-.116.033-.116c.018 0 .033-.03.033-.066 0-.066-.022-.067-1.909-.067H30.68V8.84c0-1.518.005-1.638.058-1.68.047-.035.398-.044 1.76-.045 1.49 0 1.702-.007 1.702-.05 0-.028.014-.05.033-.05.018 0 .033-.053.033-.117 0-.082.015-.117.05-.117.03 0 .05-.031.05-.083 0-.045.015-.083.033-.083.018 0 .033-.052.033-.116s.015-.117.033-.117c.019 0 .033-.089.033-.2v-.2h-5.876v2.193zm28.287-1.863c0 .114-.015.168-.05.182-.044.017-.05.34-.05 2.632v2.614h2.092v-.6c0-.377.012-.598.033-.598.022 0 .033-.755.033-2.197V6.15H56.91v.163zm2.711-.14c-.012.012-.022 1.27-.022 2.795v2.773h5.744v-.084c0-.046.014-.083.032-.083.018 0 .042-.037.053-.083.012-.046.035-.083.05-.083.017 0 .03-.053.03-.117s.016-.116.034-.116c.018 0 .033-.038.033-.083 0-.052.019-.084.05-.084.027 0 .05-.029.05-.064 0-.036.014-.074.033-.085.018-.012.033-.05.033-.086 0-.063-.038-.064-1.593-.064-1.395 0-1.594-.006-1.594-.05 0-.042-.07-.05-.432-.05h-.431v-.932h1.344c.874 0 1.345.012 1.345.034 0 .02.21.033.564.033h.565V7.98c0-1.545-.007-1.763-.05-1.763-.028 0-.05-.015-.05-.034 0-.037-5.75-.048-5.788-.01zM25.6 7.713v.6h-1.692V7.114H25.6v.6zm37.85-.083c0 .229-.01.283-.05.283-.041 0-.05.057-.05.316v.316h-1.594V7.348h1.693v.283zm9.627 1.397v1.68h-1.76V9.116c0-1.386.007-1.596.05-1.613.028-.01.05-.05.05-.086 0-.066.018-.068.83-.068h.83v1.68z" fill="#999AB7"/>
</svg>
