<svg width="51" height="17" viewBox="0 0 51 17" fill="none" xmlns="http://www.w3.org/2000/svg">
    <path d="M3.42 13.723c2 2.409 3.488 2.72 4.647 2.72 2.36 0 4.301-1.659 5.46-3.661 1.159-2.002-4.206-3.56-4.206-3.56s3.704 2.277-.178 4.28c-1.59.82-4.72-.065-6.904-2.89-.77-.998-1.41-2.627-1.41-2.627s.646 3.397 2.59 5.738zM13.142 3.734c.287.188.879 1.326.07 1.661-.435.18-1.037-.333-1.037-.333-.401-.356-.788-.656-1.147-.847-.44-.233-.806-.333-1.304-.305a3.525 3.525 0 0 0-.892.176c-.417.147-.661.152-.912.027C7.668 3.987 6.689 3.68 5.784 4c-.723.256-.396.496-.35.602.046.105-.013.304.172.509 0 0-.04-.51.125-.437 0 0 .833.49 1.33.641.225.07.396.062.516.055.143-.01.213-.018.217.104.007.225-.139 1.17-.826 1.355 0 0 .26.423 1.413-.497.944-.753.977-.81 1.457-.78.976.06 1.364 1.792 2.709 1.844 2.603-.038 2.796-3.144 2.796-3.144s-1.948-.545-2.195-.545c-.031 0-.036.008-.006.027zM6.55 4.37c-.194-.203-.317-.114-.194-.203 0 0 .15-.07.353-.053.203.018.283.133.503.133.221 0-.167.08-.203.123a.353.353 0 0 1-.24.101.297.297 0 0 1-.219-.1z" fill="#78798D"/>
    <path d="M8.06.015C3.976.017 1.974 1.058.67 2.374c-.99.998-.574 3.295.319 4.553.922 1.3 2.633 3.295 7.07 4.146 3.561.682 3.339.668 3.983.974 1.483.704.117 2.523.117 2.523s2.664-2.363 1.42-4.16c-1.207-1.743-4.36-1.435-7.69-2.773C3.308 6.6 2.713 4.251 3.698 3.574c1.076-.74 2.199-.871 4.362-.882 3.895-.02 5.684 1.16 6.005 1.99.698 1.81-1.463 2.704-1.463 2.704s2.67.123 3.342-2.678c.342-1.422-.846-4.692-7.878-4.693H8.06z" fill="#A5A5B7"/>
    <path d="M6.134 6.214c-.079.182-.403.214-.403.214 1.361.23 1.931-.807 1.931-.807-1.187.815-2.564-.23-2.564-.23.3.586 1.036.823 1.036.823zM22.754 6.335c-.505-.433-1.083-.732-1.694-.732-.883 0-1.168.488-1.168.788 0 1.12 3.136 1.22 3.136 3.294 0 1.188-1.01 2.563-2.946 2.563-.758 0-1.936-.244-2.715-.887l.779-1.232c.526.389 1.389.721 2.03.721.737 0 1.347-.377 1.347-1.02 0-1.298-3.167-1.088-3.167-3.406 0-.899.821-2.208 2.683-2.208 1.252 0 2.052.533 2.557.988l-.842 1.131zM31.152 12.115l1.295-7.765h1.494l-1.063 6.379h3.03l-.231 1.386h-4.525zM42.534 4.35h1.494l-.8 4.736c-.368 2.197-1.778 3.162-3.619 3.162-1.841 0-3.125-1.076-2.757-3.273l.779-4.626h1.494l-.747 4.46c-.2 1.187.084 2.052 1.357 2.052s1.852-.865 2.052-2.052l.747-4.46zM49.27 6.335c-.505-.433-1.084-.732-1.694-.732-.884 0-1.168.488-1.168.788 0 1.12 3.136 1.22 3.136 3.294 0 1.188-1.01 2.563-2.947 2.563-.757 0-1.936-.244-2.714-.887l.778-1.232c.526.389 1.39.721 2.031.721.737 0 1.347-.377 1.347-1.02 0-1.298-3.167-1.088-3.167-3.406 0-.899.82-2.208 2.683-2.208 1.252 0 2.052.533 2.557.988l-.842 1.131zM28.744 4.316h-1.379l-4.24 7.8h1.589l3.062-5.97.536 2.963h-.803l-.703 1.386h1.748l.305 1.62h1.526l-1.641-7.799z" fill="#78798D"/>
</svg>
