<svg width="51" height="17" viewBox="0 0 51 17" fill="none" xmlns="http://www.w3.org/2000/svg">
    <path d="M3.417 13.721c2 2.409 3.488 2.72 4.647 2.72 2.36 0 4.301-1.658 5.46-3.66 1.159-2.003-4.206-3.561-4.206-3.561s3.704 2.277-.178 4.28c-1.59.82-4.72-.065-6.904-2.89-.77-.998-1.41-2.626-1.41-2.626s.646 3.396 2.59 5.737zM13.14 3.734c.288.187.88 1.325.071 1.661-.435.18-1.037-.333-1.037-.333-.401-.357-.788-.656-1.147-.847-.44-.234-.806-.333-1.304-.306a3.525 3.525 0 0 0-.892.177c-.417.147-.661.152-.912.026C7.667 3.987 6.688 3.68 5.783 4c-.723.256-.396.496-.35.601.046.106-.013.304.172.51 0 0-.04-.51.125-.437 0 0 .833.49 1.33.641.225.07.396.062.516.054.143-.009.213-.018.217.105.007.224-.139 1.17-.826 1.355 0 0 .26.422 1.413-.497.944-.754.977-.81 1.457-.78.976.059 1.364 1.791 2.709 1.844 2.604-.039 2.796-3.144 2.796-3.144s-1.948-.546-2.195-.546c-.031 0-.036.009-.006.028zm-6.59.636c-.195-.203-.318-.115-.195-.203 0 0 .15-.07.353-.053.203.018.283.133.503.133.221 0-.167.079-.203.123a.353.353 0 0 1-.24.1.297.297 0 0 1-.219-.1z" fill="#3C476F"/>
    <path d="M8.058.015C3.974.016 1.972 1.057.668 2.373c-.989.999-.574 3.295.319 4.554.922 1.3 2.633 3.294 7.07 4.145 3.561.682 3.339.668 3.983.974 1.483.705.117 2.524.117 2.524s2.665-2.364 1.42-4.16c-1.207-1.744-4.36-1.435-7.69-2.773C3.306 6.6 2.711 4.25 3.696 3.574c1.076-.74 2.199-.872 4.362-.883 3.895-.019 5.684 1.16 6.005 1.99.698 1.81-1.463 2.704-1.463 2.704s2.67.123 3.342-2.678c.342-1.421-.846-4.692-7.878-4.692h-.006z" fill="#566392"/>
    <path d="M6.13 6.213c-.079.182-.403.213-.403.213 1.361.23 1.931-.807 1.931-.807-1.187.815-2.564-.23-2.564-.23.3.586 1.037.824 1.037.824z" fill="#3C476F"/>
    <path d="M22.752 6.334c-.506-.433-1.084-.732-1.694-.732-.884 0-1.168.488-1.168.788 0 1.12 3.135 1.22 3.135 3.294 0 1.187-1.01 2.563-2.946 2.563-.758 0-1.936-.244-2.715-.887l.779-1.232c.526.388 1.389.721 2.03.721.737 0 1.347-.377 1.347-1.02 0-1.298-3.167-1.088-3.167-3.406 0-.899.821-2.208 2.683-2.208 1.252 0 2.052.533 2.557.988l-.841 1.131zM31.15 12.114l1.294-7.766h1.494l-1.063 6.379h3.03l-.231 1.386h-4.525zM42.531 4.348h1.494l-.8 4.737c-.368 2.197-1.778 3.162-3.619 3.162-1.841 0-3.125-1.076-2.757-3.273l.779-4.626h1.494l-.747 4.46c-.2 1.187.084 2.052 1.357 2.052s1.852-.865 2.052-2.052l.747-4.46zM49.266 6.334c-.505-.433-1.084-.732-1.694-.732-.884 0-1.168.488-1.168.788 0 1.12 3.136 1.22 3.136 3.294 0 1.187-1.01 2.563-2.946 2.563-.758 0-1.937-.244-2.715-.887l.779-1.232c.526.388 1.388.721 2.03.721.737 0 1.347-.377 1.347-1.02 0-1.298-3.167-1.088-3.167-3.406 0-.899.82-2.208 2.683-2.208 1.252 0 2.052.533 2.557.988l-.842 1.131zM28.742 4.315h-1.379l-4.24 7.798h1.589l3.062-5.968.536 2.962h-.803l-.703 1.387h1.748l.306 1.62h1.525l-1.641-7.8z" fill="#566392"/>
</svg>
